<svg width="215" height="237" viewBox="0 0 215 237" fill="none" xmlns="http://www.w3.org/2000/svg">
<path d="M169.751 159.488C170.948 159.581 172.028 159.402 173.094 159.119C173.36 159.05 173.626 158.96 173.898 158.936C174.288 158.901 174.612 159.057 174.74 159.457C174.864 159.854 174.695 160.168 174.357 160.371C174.147 160.499 173.908 160.585 173.674 160.657C172.453 161.04 171.197 161.189 169.92 161.172C169.537 161.168 169.251 161.216 169.075 161.644C168.168 163.838 166.477 165.284 164.466 166.436C161.799 167.965 158.935 168.872 155.924 169.42C150.328 170.445 144.684 170.593 139.026 170.4C134.202 170.238 129.386 169.928 124.567 169.69C119.133 169.42 113.706 169.527 108.283 169.976C105.209 170.231 102.138 170.69 99.04 170.542C96.2317 170.407 93.4234 170.242 90.622 169.993C84.4983 169.448 78.378 168.865 72.2577 168.251C68.2384 167.847 64.2847 167.095 60.507 165.619C57.8091 164.566 55.1905 163.324 52.6548 161.917C49.4911 160.164 47.2452 157.521 45.427 154.465C44.047 152.143 43.1569 149.652 42.5566 147.016C40.9041 139.757 40.6971 132.43 41.3319 125.053C41.9563 117.795 42.9223 110.581 44.2264 103.415C44.7163 100.731 45.3097 98.0641 45.8928 95.3973C46.4689 92.7649 47.4522 90.2844 48.8425 87.9729C48.9426 87.8073 49.0426 87.6451 49.1461 87.4795C50.7366 84.8782 53.0067 83.3257 56.0427 82.8427C59.4789 82.2942 62.9392 82.0147 66.3961 81.6766C68.3109 81.4903 70.2222 81.1695 72.1128 80.8003C72.9063 80.6451 73.6687 80.2587 74.4001 79.8895C75.3627 79.3996 76.032 78.6199 76.446 77.5953C76.891 76.4982 77.4223 75.4356 77.9122 74.3557C79.0266 71.8924 80.7757 69.988 83.0562 68.5701C84.5811 67.6213 86.1336 66.7381 87.9724 66.5104C90.5772 66.1896 93.1888 66.0274 95.8143 66.1102C97.8808 66.1758 99.9508 66.2724 102.017 66.262C104.553 66.2482 107.092 66.1792 109.625 66.0619C113.744 65.8722 117.836 66.1344 121.92 66.6312C126.333 67.1659 129.514 69.4671 131.774 73.231C133.064 75.3804 134.482 77.4538 135.841 79.5618C136.749 80.9694 137.935 82.1182 139.233 83.1567C139.505 83.374 139.843 83.5569 140.178 83.6431C141.427 83.9536 142.686 84.2158 143.942 84.4987C143.969 84.447 143.997 84.3918 144.025 84.34C143.918 84.2089 143.814 84.0744 143.707 83.9433C143.479 83.6673 143.221 83.412 143.021 83.1187C141.265 80.4967 142.082 77.9161 144.366 76.3395C146.936 74.5627 150.466 74.718 152.974 76.5844C154.281 77.5573 155.337 78.7338 156.02 80.2242C156.407 81.0694 156.631 81.9388 156.407 82.8738C156.382 82.9738 156.407 83.0842 156.407 83.2395C156.624 83.2981 156.831 83.3602 157.038 83.4085C157.925 83.6155 158.808 83.8294 159.698 84.0157C162.575 84.6229 164.559 86.41 165.98 88.8699C167.222 91.0158 168.016 93.3169 168.168 95.8285C168.344 98.8024 168.558 101.773 168.816 104.74C169.013 106.993 169.351 109.232 169.541 111.485C169.737 113.82 169.862 116.163 169.951 118.502C170.22 125.474 170.441 132.447 170.71 139.416C170.824 142.4 170.576 145.367 170.407 148.341C170.327 149.745 170.238 151.149 170.217 152.553C170.182 154.706 170.138 156.856 169.786 158.984C169.765 159.115 169.772 159.253 169.762 159.488H169.751ZM167.498 161.134C167.178 161.068 166.971 161.009 166.76 160.985C161.378 160.288 156.113 159.088 151.063 157.083C147.271 155.579 143.528 153.944 139.767 152.364C139.043 152.06 139.046 152.053 138.487 152.591C130.09 160.616 120.106 165.132 108.528 165.991C98.9917 166.698 90.0424 164.653 81.7797 159.816C68.1315 151.825 59.9964 137.37 60.3207 121.569C60.5277 111.523 63.8707 102.556 70.0566 94.6659C80.5618 81.2661 97.7221 74.4765 114.555 77.0674C123.946 78.513 132.188 82.4011 139.067 89.0148C150.041 99.5649 154.64 114.866 151.325 129.704C149.617 137.349 146.126 144.084 140.978 149.973C140.768 150.214 140.568 150.463 140.316 150.766C140.657 150.932 140.895 151.06 141.144 151.167C143.193 152.053 145.246 152.94 147.295 153.823C153.402 156.462 159.708 158.401 166.322 159.267C166.86 159.336 167.402 159.378 167.992 159.436C168.285 158.098 168.426 156.842 168.489 155.579C168.664 151.915 168.792 148.251 168.996 144.587C169.237 140.278 168.868 135.987 168.751 131.688C168.63 127.224 168.457 122.756 168.299 118.291C168.25 116.915 168.209 115.531 168.085 114.162C167.833 111.36 167.491 108.569 167.25 105.765C166.967 102.494 166.722 99.2233 166.515 95.9458C166.37 93.6585 165.639 91.5678 164.5 89.6185C163.317 87.5899 161.682 86.0995 159.287 85.6096C158.208 85.3888 157.131 85.1473 156.055 84.9024C155.655 84.8127 155.31 84.9024 154.944 85.0783C154.35 85.3681 153.743 85.6441 153.115 85.8408C150.21 86.7516 147.257 86.8102 144.283 86.2617C143.252 86.0719 142.227 85.8615 141.206 85.6269C139.929 85.3371 138.736 84.8334 137.701 84.0192C136.483 83.0566 135.42 81.9354 134.568 80.6278C133.154 78.4578 131.694 76.3119 130.359 74.0901C128.368 70.7884 125.608 68.7391 121.717 68.2665C117.601 67.7662 113.482 67.5247 109.335 67.7214C105.312 67.9111 101.286 68.0181 97.2598 67.8111C94.7206 67.68 92.1849 67.6903 89.6595 67.9836C88.6762 68.0974 87.6412 68.1492 86.7442 68.5149C83.484 69.8397 80.7861 71.851 79.3233 75.2044C78.8265 76.3429 78.2883 77.4607 77.7915 78.5958C77.3809 79.5342 76.753 80.2725 75.9285 80.8693C74.7693 81.7111 73.4755 82.2114 72.0852 82.5288C69.439 83.136 66.7411 83.2878 64.0501 83.5534C61.4454 83.8087 58.8475 84.1572 56.2497 84.4953C53.6863 84.8299 51.8268 86.2203 50.5089 88.4007C50.4226 88.5421 50.3364 88.6836 50.2501 88.825C48.9598 90.9709 48.0387 93.2686 47.5074 95.7112C46.9312 98.3505 46.3378 100.99 45.8548 103.646C44.5542 110.784 43.5916 117.974 42.9706 125.205C42.3462 132.474 42.5842 139.685 44.1954 146.84C45.082 150.763 46.8484 154.178 49.429 157.214C50.5123 158.491 51.8026 159.522 53.2516 160.347C55.9633 161.893 58.782 163.231 61.711 164.304C65.1472 165.567 68.7283 166.222 72.3577 166.605C79.8718 167.402 87.3894 168.151 94.9276 168.689C98.1499 168.92 101.365 168.958 104.595 168.651C107.969 168.33 111.357 168.099 114.744 167.951C120.126 167.709 125.495 168.078 130.866 168.348C134.309 168.52 137.752 168.72 141.199 168.789C145.753 168.882 150.293 168.689 154.802 167.937C157.959 167.409 160.988 166.567 163.765 164.929C164.994 164.204 166.101 163.362 166.915 162.179C167.126 161.875 167.278 161.527 167.495 161.123L167.498 161.134ZM90.9153 127.506C90.6807 127.027 90.4875 126.634 90.2908 126.24C89.418 124.488 88.5244 122.745 87.6723 120.982C86.068 117.67 84.8088 114.231 84.0118 110.632C83.2563 107.207 82.9941 103.764 83.6047 100.286C84.1084 97.4155 85.2676 94.9005 87.3652 92.8029C90.9946 89.17 98.0257 88.5904 102.138 92.4544C104.546 94.7142 106.154 97.4052 106.761 100.669C106.83 101.035 106.892 101.4 106.954 101.756C107.075 101.742 107.116 101.752 107.127 101.738C107.296 101.524 107.461 101.307 107.631 101.093C109.894 98.2159 112.674 96.1563 116.411 95.7181C117.529 95.587 118.671 95.5974 119.795 95.6595C122.8 95.832 125.505 96.8187 127.823 98.7783C129.165 99.9133 130.093 101.314 130.604 103.001C131.266 105.181 131.353 107.393 130.994 109.632C130.273 114.138 128.548 118.264 126.202 122.145C123.294 126.951 119.523 130.97 115.069 134.365C114.817 134.555 114.582 134.765 114.344 134.965C114.455 135.124 114.493 135.2 114.551 135.255C114.803 135.51 115.058 135.762 115.317 136.007C119.899 140.368 125.094 143.804 130.887 146.333C131.646 146.664 131.656 146.688 132.212 146.067C139.874 137.456 143.442 127.441 142.196 115.918C140.285 98.2504 125.65 85.0714 107.865 84.9334C98.3431 84.861 89.8872 87.9694 82.7491 94.2277C72.8338 102.922 68.2867 113.927 69.3114 127.151C69.3631 127.8 69.6184 128.214 70.1463 128.559C71.7264 129.601 73.4824 130.132 75.3316 130.38C77.8398 130.715 80.3238 130.577 82.8181 130.125C85.3608 129.666 87.7896 128.897 90.1597 127.893C90.384 127.8 90.5944 127.672 90.9118 127.513L90.9153 127.506ZM137.363 151.508C137.328 151.425 137.29 151.346 137.256 151.263C137.014 151.139 136.773 151.011 136.528 150.891C135.337 150.311 134.144 149.738 132.957 149.155C131.791 148.582 132.063 148.651 131.211 149.417C121.976 157.722 111.232 161.454 98.8399 159.826C85.0986 158.022 73.6687 148.479 69.3942 135.238C65.9131 124.446 67.1137 114.02 72.5509 104.136C80.4169 89.8359 96.1386 81.6145 111.957 83.5465C120.868 84.6367 128.51 88.3972 134.509 95.0937C142.817 104.364 145.581 115.287 143.386 127.458C142.068 134.769 138.763 141.158 133.854 146.719C133.664 146.937 133.488 147.165 133.278 147.42C133.509 147.561 133.644 147.654 133.788 147.727C135.179 148.4 136.566 149.076 137.963 149.735C138.656 150.063 138.694 150.073 139.208 149.448C140.416 147.982 141.689 146.55 142.769 144.994C149.044 135.952 151.794 125.94 150.383 114.99C148.696 101.935 142.072 91.861 130.994 84.8644C121.003 78.5544 110.021 76.7017 98.4949 79.1064C83.8911 82.1527 72.9994 90.3637 66.3237 103.767C59.0235 118.429 60.8589 135.693 70.9777 148.265C79.1956 158.477 90.0562 163.783 103.08 164.39C115.897 164.987 127.071 160.726 136.586 152.115C136.828 151.894 137.104 151.712 137.366 151.512L137.363 151.508ZM69.8565 130.404C69.9082 130.739 69.9358 130.981 69.9841 131.215C73.1961 146.381 86.3751 157.69 101.855 158.501C112.495 159.06 121.738 155.614 129.686 148.576C129.886 148.396 130.069 148.196 130.294 147.972C128.141 146.837 125.998 145.826 123.984 144.605C121.983 143.394 120.051 142.052 118.201 140.62C116.335 139.174 114.606 137.553 112.806 136C112.737 136.024 112.654 136.038 112.585 136.08C108.993 138.412 104.971 139.813 101.031 141.379C99.7956 141.869 99.4471 141.717 98.7468 140.551C97.9498 139.23 97.146 137.912 96.3421 136.594C94.9311 134.289 93.5166 131.991 92.0986 129.69C92.002 129.535 91.8744 129.397 91.7502 129.238C91.4811 129.342 91.2499 129.421 91.0222 129.514C87.5791 130.908 84.0429 131.898 80.31 132.119C76.822 132.326 73.4203 132.109 70.2325 130.498C70.1635 130.463 70.0773 130.456 69.8599 130.398L69.8565 130.404ZM113.057 133.772C113.392 133.537 113.651 133.382 113.878 133.192C115.348 131.943 116.88 130.756 118.267 129.425C123.021 124.85 126.505 119.458 128.5 113.144C129.124 111.167 129.59 109.142 129.559 107.055C129.493 102.632 127.965 99.52 122.521 97.7847C120.551 97.1568 118.501 97.1361 116.456 97.3569C115.062 97.5087 113.796 98.0193 112.602 98.7541C110.349 100.141 108.69 102.032 107.593 104.436C107.234 105.226 106.999 106.02 106.916 106.889C106.72 109.008 106.368 111.112 105.588 113.099C104.998 114.6 104.791 116.125 104.795 117.705C104.795 118.202 104.795 118.699 104.767 119.192C104.67 120.972 105.109 122.628 105.878 124.222C107.137 126.827 108.804 129.145 110.725 131.291C111.46 132.109 112.229 132.895 113.057 133.772ZM92.4505 126.696C92.6058 126.637 92.7403 126.603 92.8542 126.537C94.9518 125.347 96.8803 123.939 98.5363 122.166C100.348 120.227 101.659 117.974 102.818 115.614C103.163 114.91 103.37 114.179 103.449 113.403C103.708 110.895 104.256 108.456 105.115 106.082C105.264 105.671 105.388 105.233 105.405 104.802C105.474 103.17 105.343 101.549 104.919 99.9651C104.281 97.5846 102.99 95.6077 101.255 93.8758C97.6083 90.243 90.6117 90.5949 87.2479 95.4525C86.6166 96.3667 86.1094 97.3396 85.7713 98.3988C84.9709 100.907 84.7846 103.477 84.9916 106.085C85.309 110.087 86.3716 113.91 87.9724 117.564C89.2662 120.517 90.76 123.38 92.1676 126.282C92.2366 126.423 92.347 126.547 92.454 126.699L92.4505 126.696ZM93.3234 128.459C95.4279 132.471 98.0809 136 100.265 139.868C100.558 139.775 100.793 139.716 101.017 139.626C102.528 139.029 104.063 138.481 105.54 137.812C107.344 136.994 109.1 136.073 110.87 135.186C111.122 135.058 111.339 134.865 111.612 134.676C110.911 133.923 110.28 133.271 109.673 132.595C107.392 130.063 105.412 127.33 104.053 124.181C103.442 122.773 103.09 121.314 103.111 119.768C103.111 119.537 103.073 119.309 103.049 119.078C101.645 120.9 100.43 122.79 98.8227 124.384C97.2081 125.982 95.4175 127.337 93.3165 128.455L93.3234 128.459ZM149.79 84.34C149.793 84.3124 149.8 84.2848 149.803 84.2572C150.214 84.2365 150.631 84.24 151.038 84.1917C152.225 84.0537 153.367 83.788 154.347 83.0428C154.775 82.722 154.933 82.3183 154.813 81.8215C154.73 81.4765 154.613 81.1315 154.461 80.8141C153.667 79.1616 152.387 77.9748 150.762 77.1813C150.262 76.9363 149.645 76.7673 149.1 76.8052C147.861 76.888 146.657 77.2158 145.56 77.8368C143.511 78.996 143.511 80.6209 144.349 82.1665C144.842 83.0739 145.687 83.6397 146.698 83.8501C147.716 84.064 148.755 84.1813 149.786 84.34H149.79Z" fill="#47567B"/>
</svg>
