<svg width="215" height="237" viewBox="0 0 215 237" fill="none" xmlns="http://www.w3.org/2000/svg">
<path d="M104.002 113.753C105.268 107.629 106.113 100.688 102.401 95.1953C99.5064 90.9138 94.2348 89.8926 89.7049 92.18C84.5679 94.7744 82.5151 100.629 82.2667 106.052C81.9838 112.266 84.3367 118.117 87.4452 123.375C91.2919 129.882 95.494 136.199 99.5271 142.591C99.9618 143.281 100.348 143.757 101.204 143.478C113.755 139.421 124.743 130.423 128.452 117.389C130.149 111.421 131.019 103.099 126.81 97.9311C123.539 93.9188 117.46 93.8118 113.168 96.113C106.793 99.5285 104.499 107.415 103.167 113.981L106.493 115.816C106.993 111.279 110.795 107.884 114.783 106.152C117.25 105.08 119.906 104.579 122.583 104.448C124.96 104.331 127.12 104.076 127.714 106.78C128.673 111.148 126.717 116.057 124.667 119.849C122.618 123.641 119.72 127.115 116.363 129.861C112.43 133.073 107.766 135.495 102.825 136.695C103.115 138.838 103.405 140.98 103.695 143.123C107.314 138.21 110.343 132.887 112.603 127.218C114.924 121.395 116.253 115.499 117.295 109.34C117.484 108.219 117.736 107.519 118.964 107.194C120.068 106.901 121.428 107.143 122.528 107.336C123.129 107.439 123.715 107.567 124.284 107.784C124.695 107.943 125.319 108.509 125.702 108.571C125.878 106.598 125.719 106.135 125.233 107.187C125.005 107.539 124.774 107.895 124.543 108.247C124.05 108.999 123.556 109.747 123.063 110.499C119.244 116.316 115.414 122.129 111.574 127.936C112.271 129.744 112.968 131.548 113.665 133.356C115.093 131.01 116.739 128.802 118.561 126.746C120.189 124.907 122.401 123.368 123.801 121.36C125.433 119.021 125.285 115.944 125.288 113.218C125.292 109.992 125.074 106.76 124.698 103.555C124.526 102.078 122.918 99.6941 121.814 102.033C118.985 108.019 117.001 114.281 115.77 120.78L118.654 119.259C117.139 115.916 116.891 112.135 118.233 108.685L116.556 109.571C116.674 109.64 117.612 110.427 117.212 110.099L117.222 109.475C117.15 109.785 117.05 110.089 116.922 110.382C116.425 111.617 115.732 112.794 115.131 113.981C113.789 116.616 112.451 119.256 111.109 121.891C110.401 123.282 110.36 125.386 111.109 126.77C111.771 127.988 112.892 128.057 113.548 126.77C115.618 122.699 118.071 118.645 119.716 114.384C121.107 110.782 121.276 105.162 117.474 102.913C116.784 102.506 116.035 103.185 115.797 103.8C113.23 110.403 113.282 117.651 116.218 124.134C117.326 126.583 118.844 123.965 119.102 122.612C120.134 117.175 121.897 111.911 124.26 106.908L121.376 105.387C121.669 107.877 121.831 110.368 121.842 112.877C121.842 113.629 122.111 115.295 121.776 116.006C121.969 115.595 120.934 116.668 120.976 116.627C120.558 117.027 120.12 117.403 119.699 117.803C116.38 120.953 113.603 124.569 111.229 128.471C110.488 129.688 110.567 131.734 111.095 133C111.423 133.787 112.509 135.119 113.32 133.89C116.912 128.46 120.493 123.023 124.07 117.579C125.644 115.185 127.865 112.649 128.659 109.861C129.435 107.136 129.011 103.606 126.565 101.854C124.819 100.605 122.076 100.125 119.965 100.187C117.201 100.267 115.452 102.03 114.61 104.562C113.769 107.094 113.7 109.796 113.158 112.362C112.589 115.043 111.826 117.693 110.922 120.28C108.818 126.318 105.741 132.021 101.952 137.161C101.155 138.244 100.976 139.752 101.159 141.056C101.252 141.719 101.773 143.844 102.822 143.588C113.834 140.911 123.191 133.211 128.003 122.937C130.85 116.865 132.395 109.706 130.646 103.103C129.884 100.222 128.404 97.7172 125.185 97.5344C121.966 97.3515 118.782 97.8069 115.77 98.7764C108.952 100.971 103.95 106.818 103.16 113.981C103.029 115.181 103.018 117.603 104.364 118.224C105.709 118.845 106.306 116.706 106.486 115.816C107.397 111.327 109.025 106.232 112.951 103.458C116.073 101.253 121.096 100.477 124.257 103.061C127.738 105.908 126.213 111.911 124.964 115.495C123.267 120.363 120.072 124.644 116.256 128.063C111.702 132.145 106.065 134.95 100.279 136.82L101.956 137.706C98.2471 131.831 94.4797 125.987 90.8296 120.07C88.1352 115.702 84.6852 110.192 85.8961 104.804C86.9242 100.229 91.8163 96.8789 96.4842 98.007C103.046 99.5906 101.663 107.077 100.662 111.907C100.421 113.066 100.59 115.564 101.866 116.151C103.27 116.796 103.805 114.629 103.988 113.742L104.002 113.753Z" fill="#DC332E"/>
<path d="M112.282 103.296C109.28 108.24 105.951 113.111 103.329 118.269C100.772 123.295 100.096 128.84 99.6304 134.387C99.5303 135.584 100.075 140.266 102.163 138.282C110.198 130.654 109.145 118.797 114.176 109.633L111.291 108.112C112.016 114.125 112.016 121.001 106.851 125.169C105.64 126.145 105.44 127.946 105.647 129.412C105.737 130.054 106.572 132.79 107.769 131.82C115.383 125.673 115.7 115.236 114.621 106.273C114.427 104.679 112.951 102.544 111.736 104.752C109.118 109.52 108.069 114.829 106.703 120.039C105.506 124.6 103.912 129.005 100.42 132.321C101.266 133.618 102.111 134.919 102.953 136.216C103.37 131.23 103.884 126.501 106.341 122.053C108.949 117.33 111.916 112.78 114.714 108.167C115.504 106.867 115.424 104.6 114.714 103.289C114.003 101.978 112.999 102.092 112.275 103.289L112.282 103.296Z" fill="#DC332E"/>
<path d="M101.369 130.71C98.7784 126.987 97.4778 122.533 95.7976 118.365C94.9144 116.175 93.9208 114.043 92.6443 112.052C92.0302 111.093 91.354 110.192 90.6468 109.299C90.319 108.881 89.9464 108.471 89.6842 108.009C89.6118 107.881 89.3047 106.908 89.3185 107.215C89.3323 107.522 89.4427 106.763 89.5324 106.542C89.7256 106.049 90.043 105.632 90.3915 105.238C91.0746 104.472 91.9405 103.907 92.8686 103.479C93.7966 103.051 94.8523 102.754 95.9046 102.709C95.9149 102.709 97.0465 102.823 96.6774 102.578C96.9948 102.789 97.2018 104.448 97.3156 104.852C98.0781 107.557 98.8405 110.261 99.5995 112.97C100.296 115.464 101.093 117.993 100.672 120.601C100.479 121.802 100.586 123.868 101.67 124.672C102.753 125.476 103.505 124.21 103.822 123.261C104.174 122.209 104.53 121.16 104.881 120.108C105.271 118.945 105.382 115.674 103.85 115.04C102.404 114.439 102.446 113.36 102.525 111.948C102.632 110.082 102.856 108.254 102.691 106.384C102.425 103.417 101.349 100.063 98.5266 98.6177C96.2634 97.4585 95.5354 104.207 97.6089 105.273C100.321 106.663 99.0993 110.127 99.051 112.566C98.9889 115.702 99.5961 120.311 102.932 121.695L101.901 116.627C101.549 117.679 101.193 118.728 100.842 119.78C101.894 120.667 102.943 121.553 103.995 122.44C104.978 116.344 102.832 110.413 101.204 104.621C100.838 103.323 100.472 102.023 100.107 100.726C99.741 99.4284 99.4822 97.8897 98.568 96.8306C97.1121 95.1435 94.4797 95.8715 92.665 96.5373C87.6832 98.3693 85.32 103.855 85.9858 108.906C86.3412 111.597 87.6073 113.615 89.2564 115.706C90.7089 117.548 91.7922 119.59 92.7237 121.74C94.9248 126.815 96.429 132.086 99.6237 136.675C100.545 137.996 101.718 136.319 101.983 135.436C102.446 133.897 102.294 132.048 101.366 130.716L101.369 130.71Z" fill="#DC332E"/>
<path d="M85.0991 102.081C84.209 107.95 83.5845 115.547 88.4249 120.011C89.4806 120.984 90.8123 121.591 91.8645 122.554C92.7857 123.396 93.2204 124.527 93.7379 125.635C94.697 127.694 96.2943 130.523 98.8991 130.682C102.018 130.872 102.094 126.363 102.197 124.265C102.359 121.005 102.242 117.734 101.925 114.488C101.297 108.053 99.6512 101.792 97.2258 95.8059C96.6911 94.4845 95.3766 94.6191 94.7867 95.8059C94.0001 97.3894 93.2135 98.973 92.4269 100.557C91.73 101.957 91.6713 104.044 92.4269 105.435C93.0824 106.642 94.2209 106.735 94.866 105.435C95.6526 103.851 96.4392 102.268 97.2258 100.684H94.7867C96.491 104.89 97.6743 109.309 98.2988 113.805C98.6058 116.016 98.7852 118.231 98.8163 120.463C98.8335 121.729 98.8266 122.999 98.7473 124.265C98.7266 124.6 98.5575 125.759 98.9784 124.403C99.2889 123.396 99.075 123.968 98.247 123.527C96.6324 122.668 96.1701 120.546 95.3697 119.052C94.3658 117.186 92.9996 115.992 91.2642 114.819C87.2657 112.114 87.7763 108.212 88.4283 103.917C88.6077 102.733 88.5422 100.281 87.2243 99.6733C85.9064 99.0661 85.2405 101.178 85.1025 102.081H85.0991Z" fill="#DC332E"/>
<path d="M92.7754 101.561L92.1613 103.489C91.9992 104.003 91.3437 105.218 91.4472 105.738C91.1953 106.166 91.3954 106.29 92.0406 106.108C91.9612 105.642 91.9474 105.511 92.0061 105.711C92.0923 106.028 91.8025 106.649 91.7991 106.639C91.7508 106.535 92.3407 106.915 92.4373 107.06C92.6719 107.415 92.7271 108.202 92.7927 108.592C92.9583 109.578 92.9997 110.575 92.9134 111.572C92.5788 115.457 91.6852 123.12 97.3915 123.627C99.4408 123.81 99.1407 119.463 98.8819 118.434C97.671 113.642 96.2668 108.795 93.01 104.955C92.2476 104.058 91.3678 104.676 90.9193 105.494C90.2776 106.663 90.2362 108.429 90.6502 109.675C92.3476 114.791 94.9179 119.501 98.4127 123.613C100.027 125.514 101.062 121.677 101.007 120.636C100.79 116.444 100.31 112.297 99.4512 108.185C98.8164 105.149 98.392 100.277 95.4319 98.528C94.4521 97.9484 93.6655 99.3905 93.4827 100.115C91.9923 106.059 93.5551 112.745 98.2747 116.854C103.091 121.05 109.711 121.412 115.625 119.725L113.676 118.138L113.81 118.528L113.638 115.868L113.762 114.826L113.324 115.033C112.965 115.047 112.461 115.35 112.116 115.464C111.154 115.788 110.177 116.071 109.184 116.299C107.41 116.706 105.616 116.958 103.802 117.099C101.366 117.289 101.449 124.117 103.802 123.999C105.609 123.91 107.417 123.816 109.225 123.727C111.771 123.599 111.464 117.413 109.225 116.827C105.209 115.778 101.121 115.309 96.9741 115.426C94.5556 115.492 94.5936 122.392 96.9741 122.326C101.121 122.212 105.209 122.678 109.225 123.727V116.827C107.417 116.916 105.609 117.01 103.802 117.099V123.999C106.948 123.751 110.043 123.13 113.03 122.119C114.355 121.671 115.442 121.194 116.208 119.984C117.174 118.452 117.236 116.33 116.653 114.653C116.318 113.698 115.825 112.749 114.704 113.066C110.274 114.332 105.22 114.15 101.218 111.71C98.7336 110.196 95.6562 106.787 96.4566 103.593L94.5073 105.18C95.3077 105.652 95.425 107.222 95.632 108.04C95.9701 109.368 96.2703 110.703 96.5187 112.052C97.0396 114.888 97.3984 117.758 97.5502 120.639C98.4162 119.645 99.2821 118.652 100.145 117.662C97.2604 114.267 95.0248 110.43 93.6207 106.197C92.8341 107.771 92.0475 109.344 91.2609 110.917C93.9208 114.05 94.911 118.02 95.8977 121.922C96.3945 120.191 96.8913 118.462 97.3881 116.73C95.5182 116.565 95.9943 115.416 96.1668 113.991C96.4324 111.783 96.4738 109.568 96.2013 107.357C95.9287 105.145 94.4418 97.6827 90.6468 100.136C87.8005 101.975 88.1145 107.933 89.4876 110.531C90.2949 112.062 92.1199 112.925 93.3999 111.414C94.7523 109.82 95.1352 106.998 95.7562 105.045C96.1806 103.706 96.2116 101.402 95.1387 100.325C94.0657 99.249 93.1239 100.481 92.7789 101.564L92.7754 101.561Z" fill="#DC332E"/>
<path d="M151.546 87.657C155.976 87.7122 156.48 81.2469 155.169 78.2592C153.63 74.7505 149.304 73.4913 145.754 74.3917C141.762 75.4026 141.444 80.8294 142.99 83.9517C144.953 87.9157 148.959 87.3292 152.695 87.1705C155.127 87.067 155.058 80.1705 152.695 80.2705C150.953 80.3464 149.066 80.7397 147.341 80.3326C146.578 80.1532 146.278 79.684 145.66 79.408C145.595 79.3804 145.543 79.2183 145.471 79.2079L145.219 81.7195C145.367 81.5505 145.547 81.4263 145.757 81.3538C147.24 81.0261 148.803 80.9398 150.314 81.3331C151.118 81.5436 151.598 82.0645 152.291 82.3888C152.688 83.0064 152.785 82.7166 152.574 81.5298C152.898 80.4534 152.867 80.1084 152.488 80.4948C152.571 80.5258 151.515 80.757 151.546 80.757C149.166 80.7259 149.121 87.6259 151.546 87.657Z" fill="#DC332E"/>
<path d="M169.362 159.696C170.559 159.79 171.639 159.61 172.705 159.327C172.971 159.258 173.236 159.169 173.509 159.144C173.899 159.11 174.223 159.265 174.351 159.665C174.475 160.062 174.306 160.376 173.968 160.58C173.757 160.707 173.519 160.794 173.285 160.866C172.063 161.249 170.808 161.397 169.531 161.38C169.148 161.377 168.862 161.425 168.686 161.853C167.779 164.047 166.088 165.492 164.077 166.645C161.41 168.173 158.546 169.08 155.534 169.629C149.939 170.654 144.294 170.802 138.636 170.609C133.813 170.447 128.997 170.136 124.177 169.898C118.744 169.629 113.317 169.736 107.893 170.184C104.819 170.44 101.749 170.899 98.6509 170.75C95.8426 170.616 93.0343 170.45 90.2329 170.202C84.1091 169.657 77.9888 169.074 71.8685 168.459C67.8493 168.056 63.8956 167.304 60.1178 165.827C57.4199 164.775 54.8014 163.533 52.2656 162.125C49.102 160.373 46.856 157.73 45.0379 154.673C43.6579 152.351 42.7678 149.86 42.1675 147.225C40.5149 139.966 40.3079 132.638 40.9427 125.262C41.5672 118.003 42.5332 110.789 43.8373 103.624C44.3272 100.939 44.9206 98.2726 45.5036 95.6058C46.0798 92.9734 47.063 90.4929 48.4534 88.1814C48.5534 88.0158 48.6535 87.8536 48.757 87.688C50.3474 85.0867 52.6175 83.5342 55.6535 83.0512C59.0897 82.5027 62.5501 82.2232 66.007 81.8851C67.9217 81.6988 69.833 81.378 71.7236 81.0088C72.5171 80.8536 73.2796 80.4672 74.011 80.098C74.9735 79.6081 75.6428 78.8284 76.0568 77.8038C76.5019 76.7067 77.0332 75.6441 77.5231 74.5642C78.6374 72.1009 80.3866 70.1965 82.667 68.7786C84.1919 67.8298 85.7444 66.9466 87.5833 66.7189C90.188 66.3981 92.7997 66.2359 95.4251 66.3187C97.4917 66.3843 99.5617 66.4809 101.628 66.4705C104.164 66.4567 106.703 66.3877 109.235 66.2704C113.355 66.0807 117.446 66.3429 121.531 66.8397C125.944 67.3744 129.125 69.6756 131.384 73.4395C132.675 75.5889 134.093 77.6623 135.452 79.7703C136.359 81.1779 137.546 82.3267 138.843 83.3652C139.116 83.5825 139.454 83.7654 139.789 83.8516C141.038 84.1621 142.297 84.4243 143.553 84.7072C143.58 84.6555 143.608 84.6003 143.635 84.5485C143.528 84.4174 143.425 84.2829 143.318 84.1518C143.09 83.8758 142.832 83.6205 142.631 83.3272C140.875 80.7052 141.693 78.1246 143.977 76.548C146.547 74.7712 150.077 74.9265 152.585 76.7929C153.892 77.7658 154.948 78.9423 155.631 80.4327C156.017 81.2779 156.242 82.1473 156.017 83.0823C155.993 83.1823 156.017 83.2927 156.017 83.448C156.235 83.5066 156.442 83.5687 156.649 83.617C157.535 83.824 158.419 84.0379 159.309 84.2242C162.186 84.8314 164.17 86.6185 165.591 89.0784C166.833 91.2243 167.627 93.5254 167.779 96.037C167.954 99.0109 168.168 101.981 168.427 104.948C168.624 107.201 168.962 109.44 169.152 111.693C169.348 114.029 169.472 116.371 169.562 118.71C169.831 125.683 170.052 132.655 170.321 139.624C170.435 142.609 170.187 145.576 170.018 148.549C169.938 149.954 169.849 151.358 169.828 152.762C169.793 154.915 169.748 157.064 169.397 159.193C169.376 159.324 169.383 159.462 169.372 159.696H169.362ZM167.109 161.342C166.788 161.277 166.581 161.218 166.371 161.194C160.989 160.497 155.724 159.296 150.673 157.292C146.882 155.788 143.139 154.152 139.378 152.572C138.654 152.269 138.657 152.262 138.098 152.8C129.701 160.825 119.717 165.341 108.138 166.2C98.6026 166.907 89.6533 164.861 81.3905 160.024C67.7423 152.034 59.6072 137.578 59.9315 121.777C60.1385 111.731 63.4816 102.765 69.6674 94.8744C80.1727 81.4746 97.333 74.685 114.166 77.2759C123.556 78.7215 131.798 82.6096 138.678 89.2233C149.652 99.7734 154.251 115.074 150.936 129.913C149.228 137.558 145.736 144.292 140.589 150.181C140.379 150.423 140.179 150.671 139.927 150.975C140.268 151.14 140.506 151.268 140.755 151.375C142.804 152.262 144.857 153.148 146.906 154.032C153.013 156.671 159.319 158.61 165.933 159.476C166.471 159.545 167.013 159.586 167.603 159.645C167.896 158.306 168.037 157.05 168.099 155.788C168.275 152.124 168.403 148.46 168.607 144.796C168.848 140.487 168.479 136.195 168.362 131.896C168.241 127.432 168.068 122.964 167.91 118.5C167.861 117.123 167.82 115.74 167.696 114.37C167.444 111.569 167.102 108.778 166.861 105.973C166.578 102.702 166.333 99.4318 166.126 96.1543C165.981 93.867 165.25 91.7763 164.111 89.827C162.928 87.7984 161.293 86.308 158.898 85.8181C157.818 85.5973 156.742 85.3558 155.666 85.1109C155.265 85.0212 154.92 85.1109 154.555 85.2868C153.961 85.5766 153.354 85.8526 152.726 86.0493C149.821 86.9601 146.868 87.0187 143.894 86.4702C142.863 86.2804 141.838 86.07 140.817 85.8354C139.54 85.5456 138.347 85.0419 137.312 84.2277C136.094 83.2651 135.031 82.1439 134.179 80.8363C132.764 78.6663 131.305 76.5204 129.97 74.2986C127.979 70.9969 125.219 68.9476 121.328 68.475C117.212 67.9747 113.093 67.7332 108.946 67.9299C104.923 68.1196 100.897 68.2266 96.8707 68.0196C94.3315 67.8885 91.7957 67.8988 89.2703 68.1921C88.2871 68.3059 87.2521 68.3577 86.3551 68.7234C83.0948 70.0482 80.3969 72.0595 78.9341 75.4129C78.4373 76.5514 77.8991 77.6692 77.4023 78.8043C76.9918 79.7427 76.3639 80.481 75.5393 81.0778C74.3801 81.9196 73.0864 82.4199 71.696 82.7373C69.0499 83.3445 66.352 83.4963 63.661 83.7619C61.0562 84.0172 58.4584 84.3657 55.8605 84.7038C53.2972 85.0384 51.4376 86.4288 50.1197 88.6092C50.0335 88.7506 49.9472 88.8921 49.861 89.0335C48.5707 91.1794 47.6495 93.4771 47.1182 95.9197C46.5421 98.559 45.9487 101.198 45.4657 103.855C44.165 110.993 43.2025 118.183 42.5815 125.414C41.957 132.683 42.1951 139.893 43.8062 147.049C44.6929 150.971 46.4593 154.387 49.0399 157.423C50.1232 158.699 51.4135 159.731 52.8625 160.555C55.5742 162.101 58.3928 163.44 61.3219 164.513C64.7581 165.775 68.3392 166.431 71.9686 166.814C79.4827 167.611 87.0002 168.359 94.5385 168.898C97.7608 169.129 100.976 169.167 104.205 168.86C107.579 168.539 110.967 168.308 114.355 168.159C119.737 167.918 125.105 168.287 130.477 168.556C133.92 168.729 137.363 168.929 140.81 168.998C145.364 169.091 149.904 168.898 154.413 168.145C157.57 167.618 160.599 166.776 163.376 165.137C164.605 164.413 165.712 163.571 166.526 162.387C166.737 162.084 166.888 161.735 167.106 161.332L167.109 161.342ZM90.5261 127.715C90.2915 127.235 90.0983 126.842 89.9017 126.449C89.0288 124.696 88.1353 122.954 87.2831 121.191C85.6789 117.879 84.4196 114.439 83.6227 110.841C82.8671 107.415 82.6049 103.972 83.2156 100.494C83.7193 97.624 84.8785 95.109 86.9761 93.0114C90.6055 89.3785 97.6366 88.7989 101.749 92.6629C104.157 94.9227 105.765 97.6137 106.372 100.877C106.441 101.243 106.503 101.609 106.565 101.964C106.686 101.95 106.727 101.961 106.738 101.947C106.907 101.733 107.072 101.516 107.241 101.302C109.505 98.4244 112.285 96.3648 116.022 95.9266C117.139 95.7955 118.281 95.8059 119.406 95.868C122.411 96.0405 125.116 97.0272 127.434 98.9868C128.776 100.122 129.704 101.523 130.215 103.21C130.877 105.39 130.964 107.601 130.605 109.84C129.884 114.346 128.159 118.472 125.813 122.354C122.904 127.159 119.134 131.179 114.68 134.574C114.428 134.763 114.193 134.974 113.955 135.174C114.065 135.333 114.103 135.408 114.162 135.464C114.414 135.719 114.669 135.971 114.928 136.216C119.51 140.577 124.705 144.013 130.498 146.542C131.257 146.873 131.267 146.897 131.823 146.276C139.485 137.665 143.052 127.649 141.807 116.126C139.896 98.4589 125.261 85.2799 107.476 85.1419C97.954 85.0695 89.498 88.1779 82.36 94.4362C72.4447 103.13 67.8976 114.136 68.9222 127.36C68.974 128.008 69.2293 128.422 69.7571 128.767C71.3372 129.809 73.0933 130.34 74.9425 130.589C77.4506 130.923 79.9346 130.785 82.429 130.333C84.9716 129.875 87.4004 129.105 89.7706 128.101C89.9948 128.008 90.2053 127.881 90.5227 127.722L90.5261 127.715ZM136.973 151.717C136.939 151.634 136.901 151.554 136.867 151.472C136.625 151.347 136.384 151.22 136.139 151.099C134.948 150.519 133.755 149.947 132.568 149.364C131.402 148.791 131.674 148.86 130.822 149.626C121.586 157.93 110.843 161.663 98.4508 160.035C84.7094 158.23 73.2796 148.687 69.005 135.446C65.524 124.655 66.7246 114.229 72.1618 104.345C80.0278 90.0444 95.7494 81.823 111.568 83.755C120.479 84.8452 128.121 88.6057 134.12 95.3022C142.428 104.572 145.191 115.495 142.997 127.667C141.679 134.977 138.374 141.367 133.465 146.928C133.275 147.145 133.099 147.373 132.889 147.628C133.12 147.77 133.254 147.863 133.399 147.935C134.79 148.608 136.177 149.284 137.574 149.943C138.267 150.271 138.305 150.281 138.819 149.657C140.027 148.191 141.3 146.759 142.38 145.203C148.655 136.161 151.405 126.149 149.994 115.198C148.307 102.144 141.683 92.0695 130.605 85.0729C120.614 78.7629 109.632 76.9102 98.1058 79.3149C83.5019 82.3612 72.6103 90.5722 65.9345 103.975C58.6343 118.638 60.4697 135.902 70.5886 148.474C78.8065 158.686 89.6671 163.992 102.691 164.599C115.508 165.196 126.682 160.935 136.197 152.324C136.439 152.103 136.715 151.92 136.977 151.72L136.973 151.717ZM69.4673 130.613C69.5191 130.948 69.5467 131.189 69.595 131.424C72.8069 146.59 85.9859 157.899 101.466 158.71C112.106 159.269 121.348 155.822 129.297 148.784C129.497 148.605 129.68 148.405 129.904 148.18C127.752 147.045 125.609 146.034 123.594 144.813C121.593 143.602 119.661 142.26 117.812 140.828C115.946 139.383 114.217 137.761 112.416 136.209C112.347 136.233 112.265 136.247 112.196 136.288C108.604 138.62 104.581 140.021 100.642 141.587C99.4064 142.077 99.058 141.925 98.3576 140.759C97.5607 139.438 96.7568 138.12 95.953 136.802C94.5419 134.498 93.1274 132.2 91.7095 129.899C91.6129 129.744 91.4852 129.606 91.361 129.447C91.0919 129.55 90.8608 129.63 90.6331 129.723C87.19 131.117 83.6537 132.107 79.9208 132.328C76.4329 132.535 73.0312 132.317 69.8434 130.706C69.7744 130.672 69.6881 130.665 69.4708 130.606L69.4673 130.613ZM112.668 133.98C113.003 133.746 113.262 133.59 113.489 133.401C114.959 132.152 116.491 130.965 117.878 129.633C122.632 125.058 126.116 119.666 128.11 113.353C128.735 111.376 129.201 109.351 129.17 107.263C129.104 102.84 127.576 99.7285 122.132 97.9932C120.162 97.3653 118.112 97.3446 116.066 97.5654C114.673 97.7172 113.407 98.2278 112.213 98.9626C109.96 100.35 108.301 102.24 107.203 104.645C106.845 105.435 106.61 106.228 106.527 107.098C106.331 109.216 105.979 111.321 105.199 113.308C104.609 114.808 104.402 116.333 104.405 117.913C104.405 118.41 104.405 118.907 104.378 119.4C104.281 121.181 104.719 122.837 105.489 124.431C106.748 127.035 108.414 129.354 110.336 131.5C111.071 132.317 111.84 133.104 112.668 133.98ZM92.0614 126.904C92.2166 126.846 92.3512 126.811 92.465 126.745C94.5626 125.555 96.4912 124.148 98.1472 122.374C99.9584 120.435 101.269 118.183 102.429 115.823C102.774 115.119 102.981 114.388 103.06 113.611C103.319 111.103 103.867 108.664 104.726 106.29C104.875 105.88 104.999 105.442 105.016 105.01C105.085 103.379 104.954 101.757 104.53 100.174C103.891 97.7931 102.601 95.8162 100.866 94.0843C97.2191 90.4515 90.2225 90.8034 86.8588 95.661C86.2274 96.5752 85.7203 97.5481 85.3822 98.6073C84.5818 101.115 84.3955 103.686 84.6025 106.294C84.9199 110.296 85.9825 114.118 87.5833 117.772C88.877 120.725 90.3709 123.589 91.7785 126.49C91.8475 126.632 91.9579 126.756 92.0648 126.908L92.0614 126.904ZM92.9342 128.667C95.0387 132.679 97.6918 136.209 99.8756 140.076C100.169 139.983 100.403 139.924 100.628 139.835C102.139 139.238 103.674 138.689 105.151 138.02C106.955 137.202 108.711 136.281 110.481 135.395C110.733 135.267 110.95 135.074 111.223 134.884C110.522 134.132 109.891 133.48 109.284 132.804C107.003 130.271 105.023 127.539 103.664 124.389C103.053 122.982 102.701 121.522 102.722 119.977C102.722 119.745 102.684 119.518 102.66 119.287C101.256 121.108 100.041 122.999 98.4335 124.593C96.8189 126.19 95.0284 127.546 92.9273 128.664L92.9342 128.667ZM149.4 84.5485C149.404 84.5209 149.411 84.4933 149.414 84.4657C149.825 84.445 150.242 84.4485 150.649 84.4002C151.836 84.2622 152.978 83.9965 153.958 83.2513C154.386 82.9305 154.544 82.5268 154.424 82.03C154.341 81.685 154.223 81.34 154.072 81.0226C153.278 79.3701 151.998 78.1833 150.373 77.3898C149.873 77.1448 149.255 76.9758 148.71 77.0137C147.472 77.0965 146.268 77.4243 145.171 78.0453C143.121 79.2045 143.121 80.8294 143.96 82.375C144.453 83.2824 145.298 83.8482 146.309 84.0586C147.327 84.2725 148.365 84.3898 149.397 84.5485H149.4Z" fill="#47567B"/>
</svg>
