<svg width="215" height="237" viewBox="0 0 215 237" fill="none" xmlns="http://www.w3.org/2000/svg">
<path d="M106.769 69.9757C106.182 64.2142 105.382 58.0767 101.701 53.3674C98.8786 49.7553 93.0516 46.4847 88.6977 49.5552C84.2679 52.674 83.3709 58.9633 84.3231 63.9382C85.3995 69.5721 88.7287 73.857 92.9481 77.5795C95.2561 79.6116 97.6884 81.5022 99.8964 83.6481C102.422 86.1045 104.661 88.8231 106.648 91.728C107.117 92.4111 107.9 92.2455 108.39 91.728C115.653 84.0621 121.107 74.716 124.202 64.6179C125.733 59.6188 126.561 52.774 122.152 48.9238C117.743 45.0736 113.369 49.638 110.374 53.05C105.999 58.0318 104.547 63.883 103.557 70.2862H106.883C106.607 66.3325 107.172 62.334 108.376 58.57C108.904 56.9209 109.601 55.5651 111.088 54.5887C112.575 53.6124 114.386 52.5912 116.073 52.2876C118.368 51.8736 122.114 53.7676 122.07 56.4793C122.025 59.191 118.651 61.7992 116.622 63.0654L118.806 66.3912C118.806 63.714 120.31 61.1851 122.339 59.4946L120.389 54.4266C119.934 56.017 119.02 58.1146 117.315 58.7115C116.939 58.8426 116.543 58.8874 116.163 58.7563C116.053 58.7184 115.625 58.3734 115.58 58.3803C115.232 59.1082 115.263 59.5257 115.677 59.6395C115.822 59.6878 115.894 59.5636 115.894 59.2635C116.277 58.9806 116.605 58.3734 116.929 58.018L115.601 58.3665C116.142 58.7218 116.198 59.1634 116.18 58.3768L117.447 55.051C114.994 56.0964 112.127 56.9209 109.915 58.4355C107.631 59.9983 106.72 62.5617 107.076 65.2906C107.338 67.2916 108.259 68.8717 110.026 69.8688C110.709 70.2552 111.454 70.5174 112.158 70.8624C112.42 70.99 112.734 71.2108 113.006 71.3074C113.962 71.6455 113.124 73.0359 113.034 69.9688L115.98 67.5297C115.552 66.6327 115.497 66.06 115.68 65.094L112.796 66.6154C114.614 69.6721 113.251 72.9738 110.243 74.9058C110.802 76.8274 111.361 78.7491 111.92 80.6707C113.714 77.4588 115.822 74.4814 118.223 71.6938L116.481 65.7357C112.955 70.5312 109.432 75.3232 105.906 80.1187L107.997 80.6569C105.817 77.1897 109.329 73.3084 111.368 70.5967H109.625C110.26 71.4489 110.233 71.2557 109.739 71.956C109.066 72.9186 107.921 73.5292 106.789 73.7431L107.659 74.2158C106.551 73.0669 105.837 73.8397 104.502 73.6914C103.081 73.5327 101.835 72.2769 100.731 71.4696C98.368 69.7377 95.7184 68.337 93.5484 66.3532C92.4168 65.3182 90.3019 63.2034 90.5124 61.4922C90.7608 59.4601 93.9106 58.6252 95.5218 58.7391C98.1645 58.9254 100.121 61.4301 101.135 63.676C101.608 64.7248 101.918 65.8461 101.966 67.0018C102.008 67.9851 101.922 68.0748 100.8 67.9609C98.2369 67.7022 97.4641 64.2315 96.2221 62.4168C94.6386 60.1053 92.3167 58.3699 89.6671 57.4833C89.8051 59.5843 89.9431 61.6854 90.0777 63.7899C91.5715 62.4306 93.8968 61.9717 95.8081 62.5962C96.7569 62.9067 97.6332 63.5035 98.2439 64.2901C98.8545 65.0767 98.9718 65.5356 98.9649 66.0117L100.231 62.6859C99.5583 63.1516 98.9166 63.3138 98.0955 63.0964C97.747 63.0033 97.4469 62.7031 97.1191 62.6238C96.5223 62.4754 96.7362 61.3093 96.8569 63.3241L95.5908 66.6499C97.4331 66.1083 99.5376 66.6603 100.873 68.023C101.946 69.1201 102.908 67.8643 103.233 66.7845C103.629 65.4597 103.681 63.1551 102.615 62.0649C100.438 59.8431 97.647 59.122 94.6765 59.9949C93.6691 60.2916 93.3621 62.5203 93.4104 63.3207C93.5898 66.2394 94.711 69.234 97.8643 69.9481C98.9649 70.1965 100.238 70.0516 101.149 69.3375C102.75 68.0851 102.553 65.3976 102.26 63.5794C101.763 60.4951 99.9792 57.2625 96.9605 56.0377C93.8934 54.7957 90.7159 55.6617 88.3354 57.8317C87.1866 58.8771 86.8899 63.5173 88.746 64.1383C91.5543 65.0767 93.683 66.8121 95.0423 69.441C96.2843 71.8387 97.7608 74.6332 100.797 74.8609C104.236 75.1162 105.192 71.2281 105.361 68.544C105.572 65.2044 104.978 61.8406 103.571 58.7977C102.373 56.2068 100.272 53.2639 97.478 52.2703C95.1389 51.4389 92.4996 51.8736 90.5296 53.3881C85.3615 57.3556 86.5794 65.6425 89.9914 70.3138C92.0131 73.0807 95.0836 74.9127 97.8816 76.786C99.2961 77.7313 100.607 78.9009 102.077 79.7496C102.801 80.167 103.65 80.5258 104.495 80.5914C105.209 80.6466 105.868 80.2981 106.569 80.4223L105.699 79.9497C107.976 82.3164 111.802 77.9073 112.654 75.9235C114.217 72.2838 113.724 67.7988 111.361 64.6317C110.909 64.0245 110.074 64.0279 109.619 64.6317C107.373 67.6159 105.12 70.7382 104.254 74.44C103.398 78.0867 103.502 82.275 105.551 85.5283C106.006 86.2528 106.917 87.0532 107.642 86.0665C111.168 81.271 114.69 76.479 118.216 71.6835C119.172 70.3863 119.289 68.4784 118.833 66.9639C118.53 65.9565 117.512 64.5178 116.474 65.7253C113.8 68.8338 111.471 72.2044 109.474 75.7821C108.825 76.9447 108.828 78.7146 109.204 79.9635C109.418 80.6707 110.177 82.1749 111.154 81.5505C117.395 77.545 118.93 67.9402 115.228 61.7268C113.917 59.5257 112.648 61.6647 112.344 63.2482C111.751 66.3567 112.175 69.5445 113.531 72.3976C113.903 73.1842 114.638 73.6879 115.414 73.1118C116.263 72.4804 116.501 70.921 116.474 69.9585C116.422 68.1541 116.039 66.3601 114.6 65.1561C113.596 64.3177 112.365 63.9555 111.223 63.3586C110.881 63.1792 110.377 62.748 110.139 62.6617C110.557 63.5622 110.578 64.5489 110.202 65.6287L110.505 65.3079C110.892 65.1009 111.24 64.8042 111.633 64.5937C113.772 63.4656 116.125 62.641 118.347 61.6957C119.379 61.2576 119.63 59.2945 119.613 58.3699C119.565 55.7307 118.799 53.2053 116.498 51.7045C116.035 51.4044 115.48 51.7114 115.17 52.053C113.469 53.9125 112.351 56.1274 112.254 58.6804C112.168 60.8919 112.679 63.7657 114.676 65.1078C118.985 68.0092 122.459 61.0368 123.353 57.9007C123.698 56.6967 123.701 55.2304 123.218 54.0678C123.001 53.5434 122.201 52.1703 121.404 52.8327C117.322 56.2275 115.345 61.1058 115.339 66.3808C115.339 67.1088 115.891 70.7244 117.522 69.7066C122.156 66.819 125.43 62.0994 125.478 56.5069C125.52 51.8529 122.973 46.2397 117.905 45.3841C115.521 44.9839 113.124 46.257 111.099 47.3679C108.732 48.6685 107.124 50.5246 106.117 53.0293C103.695 59.053 103.095 65.6839 103.543 72.1078C103.598 72.9255 104.126 74.6401 105.206 74.6401C106.286 74.6401 106.741 72.9324 106.869 72.1078C107.266 69.5307 107.631 66.8845 108.58 64.4385C109.529 61.9924 111.154 60.0052 112.906 58.0974C114.438 56.4276 116.505 53.6296 119.134 54.2955C121.242 54.8302 122.194 56.707 121.838 58.7046C120.959 63.6553 118.53 68.6233 116.101 72.9807C113.507 77.6347 110.295 81.8955 106.631 85.7595H108.373C104.899 80.688 100.617 76.6894 95.9668 72.7323C92.4133 69.7066 87.7765 65.8254 87.4246 60.7849C87.2832 58.7736 88.4182 56.7484 90.2226 55.8135C92.5513 54.606 95.4597 55.5409 97.4814 56.9313C102.315 60.2536 102.884 66.4705 103.429 71.8042C103.533 72.8047 104.205 74.7781 105.551 74.2123C106.896 73.6465 106.869 71.0728 106.755 69.9688L106.769 69.9757Z" fill="#DC332E"/>
<path d="M119.579 58.8288C121.97 58.8288 121.99 51.9288 119.579 51.9288C117.167 51.9288 117.167 58.8288 119.579 58.8288Z" fill="#DC332E"/>
<path d="M106.9 110.261C103.833 112.152 102.198 115.243 101.546 118.707L104.43 117.186C104.399 117.11 104.423 117.91 104.454 117.838C105.089 116.354 105.216 114.429 104.454 112.959C103.85 111.79 102.591 111.61 102.015 112.959C100.749 115.919 100.762 119.097 101.991 122.064C102.263 122.716 102.946 123.309 103.667 122.95C104.499 122.54 104.723 121.336 104.871 120.542C104.813 120.86 105.054 119.99 105.051 120.004C105.22 119.594 105.444 119.2 105.703 118.842C106.279 118.045 106.983 117.43 107.814 116.916C109.098 116.126 109.205 113.998 109.018 112.673C108.908 111.876 108.194 109.464 106.897 110.265L106.9 110.261Z" fill="#DC332E"/>
<path d="M103.294 122.143C104.416 122.937 105.551 123.713 106.651 124.531C107.258 124.983 107.852 125.466 108.376 126.007C109.321 126.984 109.446 128.15 108.766 129.343C108.514 129.785 108.186 130.182 107.859 130.651C108.028 130.799 108.19 130.944 108.359 131.082C109.121 131.707 109.88 132.334 110.653 132.945C111.071 133.273 111.485 133.639 111.957 133.866C113.889 134.787 115.4 136.23 116.867 137.734C116.908 137.779 116.949 137.823 116.991 137.868C117.574 138.507 118.157 139.096 119.057 139.341C119.72 139.521 120.337 139.893 120.958 140.211C123.063 141.28 125.164 142.36 127.261 143.443C128.597 144.133 129.87 144.92 131.06 145.841C132.93 147.287 134.762 148.777 136.442 150.444C139.35 153.328 141.603 156.664 143.269 160.393C145.674 165.775 149.121 170.409 153.34 174.487C154.551 175.656 155.848 176.736 157.042 177.923C158.173 179.051 159.257 180.238 160.292 181.456C161.365 182.715 162.182 184.136 162.69 185.727C162.762 185.958 162.893 186.175 162.993 186.396C163.145 186.731 163.1 186.989 162.862 187.165C162.631 187.334 162.313 187.327 162.065 187.114C161.944 187.01 161.848 186.869 161.768 186.727C161.686 186.586 161.627 186.43 161.579 186.272C161.058 184.547 160.081 183.087 158.946 181.714C157.58 180.062 156.041 178.585 154.444 177.164C152.353 175.304 150.342 173.372 148.586 171.185C146.785 168.936 145.177 166.552 143.683 164.095C143.197 163.291 142.869 162.391 142.441 161.553C141.61 159.924 140.854 158.251 139.899 156.702C138.481 154.408 136.77 152.32 134.748 150.523C133.354 149.281 131.902 148.101 130.453 146.925C129.173 145.886 127.748 145.065 126.282 144.313C124.95 143.626 123.615 142.94 122.283 142.257C122.107 142.167 121.924 142.095 121.669 141.977C121.738 142.108 121.752 142.17 121.79 142.201C123.563 143.795 125.329 145.393 127.344 146.683C128.438 147.383 129.445 148.191 130.377 149.095C130.701 149.409 131.039 149.712 131.395 149.988C132.323 150.706 133.023 151.61 133.578 152.627C134.455 154.228 133.485 156.253 131.677 156.471C130.18 156.65 128.673 156.602 127.258 155.967C125.685 155.26 124.125 154.525 122.566 153.783C121.476 153.262 120.555 152.527 119.785 151.585C118.661 150.209 117.305 149.077 115.894 148.008C111.378 144.582 106.875 141.139 102.363 137.71C101.121 136.764 99.8547 135.85 98.6058 134.919C96.4185 133.283 94.2415 131.634 92.0439 130.009C91.3021 129.461 90.5121 128.978 89.7393 128.467C89.6599 128.415 89.5633 128.391 89.4322 128.332C89.4081 128.75 89.5944 129.054 89.7324 129.361C90.5845 131.23 91.4988 133.056 92.8029 134.68C94.3036 136.554 95.6802 138.527 97.1499 140.428C97.7398 141.191 98.3988 141.901 99.0819 142.581C100.072 143.571 100.983 144.623 101.838 145.731C104.112 148.677 106.589 151.444 109.221 154.08C110.977 155.836 112.665 157.661 114.369 159.469C115.204 160.355 115.859 161.373 116.487 162.415C117.001 163.274 116.96 164.188 116.767 165.103C116.653 165.637 116.204 165.896 115.697 166.013C114.659 166.251 113.62 166.3 112.599 165.931C112.251 165.806 111.902 165.675 111.574 165.506C110.129 164.771 108.652 164.095 107.293 163.198C106.472 162.657 105.613 162.163 104.761 161.67C103.384 160.873 102.132 159.914 100.952 158.855C100.452 158.403 100.017 157.878 99.5545 157.381C99.0819 156.878 98.6092 156.367 98.1366 155.863C98.0986 155.888 98.0607 155.915 98.0193 155.939C98.0779 156.074 98.1297 156.212 98.1952 156.343C99.3372 158.617 100.538 160.866 101.607 163.177C102.218 164.495 102.622 165.906 103.101 167.283C103.981 169.826 104.833 172.375 105.727 174.914C106.423 176.895 107.545 178.633 108.845 180.265C109.128 180.617 109.404 180.976 109.656 181.352C109.936 181.763 109.901 182.135 109.601 182.335C109.328 182.518 108.976 182.435 108.69 182.077C106.875 179.831 105.24 177.478 104.322 174.697C103.394 171.889 102.453 169.087 101.507 166.286C101.283 165.624 101.069 164.958 100.786 164.319C98.485 159.12 95.7216 154.187 92.3406 149.602C91.1227 147.953 90.0015 146.228 88.8768 144.513C87.8176 142.895 87.1276 141.118 86.9241 139.179C86.862 138.589 86.8171 137.989 86.8585 137.399C87.0207 135.084 87.1932 132.769 87.4071 130.461C87.7831 126.432 87.6175 122.416 87.0759 118.417C86.7723 116.161 85.9684 114.046 85.0231 111.983C84.892 111.693 84.6988 111.434 84.5332 111.162C84.4849 111.176 84.4401 111.189 84.3918 111.203C84.409 111.414 84.4228 111.624 84.4504 111.831C84.616 113.046 84.5436 114.243 84.2641 115.44C84.0226 116.464 83.5672 117.372 82.8979 118.169C82.6702 118.441 82.3459 118.662 82.0251 118.821C81.2971 119.176 80.5174 119.362 79.7032 119.369C78.4716 119.38 77.3193 119.77 76.1532 120.094C75.4011 120.304 75.4045 120.36 75.4114 121.132C75.4252 122.509 75.4252 123.885 75.4528 125.262C75.5011 127.453 75.1527 129.602 74.8284 131.755C74.649 132.931 74.4799 134.111 74.2557 135.281C73.9038 137.116 73.4587 138.931 73.1413 140.77C72.6928 143.364 72.1408 145.927 71.406 148.456C71.2335 149.046 71.1024 149.653 71.0023 150.257C70.5987 152.738 70.333 155.229 70.8126 157.73C70.9368 158.372 71.1369 159 71.2956 159.634C71.3301 159.772 71.3646 159.917 71.3508 160.055C71.3232 160.348 71.161 160.552 70.8643 160.618C70.5952 160.676 70.3606 160.58 70.2295 160.348C70.1122 160.138 70.0432 159.897 69.9777 159.658C69.267 157.105 69.2083 154.515 69.5223 151.899C69.7051 150.368 69.988 148.857 70.4227 147.373C71.0334 145.303 71.475 143.195 71.8338 141.066C72.0822 139.59 72.4341 138.13 72.7308 136.661C72.786 136.385 72.7998 136.102 72.8308 135.833C69.4567 134.556 66.6277 132.472 63.7125 130.465C63.6573 130.568 63.6021 130.634 63.5917 130.703C63.3226 132.573 63.0121 134.436 62.8017 136.312C62.5188 138.8 62.329 141.298 62.0737 143.792C61.9288 145.22 61.7046 146.642 61.57 148.073C61.501 148.822 61.5183 149.581 61.5528 150.333C61.7011 153.448 62.1876 156.495 63.4054 159.396C64.9441 163.057 66.6484 166.634 68.8875 169.926C69.9742 171.523 70.7091 173.279 71.4336 175.045C72.265 177.078 73.093 179.116 73.8486 181.18C74.5869 183.194 75.0354 185.282 75.0595 187.441C75.0595 187.645 75.063 187.855 75.0285 188.055C74.9629 188.425 74.7145 188.638 74.4109 188.621C74.1246 188.607 73.9314 188.404 73.8693 188.049C73.852 187.948 73.8486 187.845 73.8486 187.741C73.8382 185.282 73.2621 182.936 72.3685 180.666C71.3508 178.088 70.2882 175.525 69.2083 172.972C68.922 172.296 68.539 171.651 68.1285 171.04C65.6272 167.3 63.6711 163.284 61.9702 159.131C61.3182 157.533 61.0491 155.853 60.7213 154.183C60.6523 153.825 60.5833 153.469 60.4074 153.097C60.3591 153.276 60.3108 153.452 60.2625 153.631C59.8795 155.015 59.5242 156.409 59.1102 157.782C58.7617 158.931 58.158 159.962 57.4473 160.928C56.9505 161.608 56.4468 162.284 55.95 162.96C55.36 163.764 54.4803 163.968 53.5695 164.057C53.1624 164.099 52.8312 163.833 52.5414 163.56C51.9583 163.015 51.5236 162.36 51.3477 161.584C51.0682 160.366 50.7853 159.141 50.6232 157.902C50.1505 154.263 50.1919 150.609 50.3782 146.952C51.0924 132.783 48.7809 119.083 44.0302 105.759C41.3013 98.107 37.8099 90.8241 33.3801 84.0069C29.8611 78.5904 25.8349 73.6017 20.998 69.2961C20.8773 69.1891 20.7565 69.0718 20.6634 68.9373C20.4943 68.6958 20.4771 68.4301 20.6841 68.2024C20.8911 67.9713 21.1636 67.9575 21.4155 68.1058C21.6259 68.2266 21.8157 68.3922 21.9985 68.5578C24.4618 70.7451 26.7112 73.1359 28.8054 75.6751C33.6009 81.4918 37.4959 87.8812 40.7389 94.6708C45.5862 104.821 48.8671 115.464 50.5783 126.583C51.4305 132.117 51.8341 137.682 51.703 143.285C51.6444 145.831 51.5547 148.374 51.4857 150.916C51.4719 151.385 51.4857 151.855 51.4857 152.41C51.772 152.331 52.0032 152.269 52.2309 152.206C53.4556 151.861 54.2112 152.238 54.6631 153.424C54.7563 153.673 54.8425 153.931 54.8805 154.194C55.084 155.643 55.1841 157.095 54.9288 158.548C54.8805 158.83 54.8149 159.113 54.7114 159.379C54.3319 160.359 53.6419 160.966 52.5 161.059C52.6207 161.739 52.945 162.263 53.428 162.691C53.5108 162.763 53.6626 162.826 53.7627 162.801C54.2181 162.698 54.6942 162.619 54.9978 162.191C55.5946 161.356 56.2432 160.555 56.7952 159.69C57.223 159.02 57.6267 158.306 57.8785 157.557C58.3408 156.177 58.71 154.766 59.0688 153.352C59.4103 151.999 59.7312 150.637 59.9761 149.264C60.2349 147.828 60.3729 146.376 60.5971 144.937C61.0456 142.053 61.3009 139.152 61.5838 136.247C61.7356 134.694 62.0427 133.159 62.2635 131.617C62.3428 131.068 62.3601 130.513 62.4256 129.961C62.467 129.623 62.3808 129.378 62.0979 129.164C60.228 127.746 59.1447 125.779 58.3236 123.644C57.982 122.75 57.8647 121.812 57.9199 120.86C57.9958 119.583 58.8238 118.983 60.0624 119.283C60.7282 119.445 61.2595 119.804 61.6839 120.335C62.3118 121.122 62.6878 122.026 62.9362 122.992C63.3985 124.786 63.7573 126.597 63.7125 128.464C63.7056 128.784 63.8229 129.012 64.0713 129.198C64.6785 129.65 65.2581 130.154 65.8963 130.558C67.4385 131.538 69.0048 132.483 70.5711 133.418C71.1679 133.777 71.7993 134.08 72.4203 134.394C72.8757 134.625 73.1103 134.532 73.2069 134.011C73.4242 132.842 73.5691 131.658 73.7899 130.489C74.3868 127.332 74.235 124.144 74.1798 120.963C74.1418 118.624 74.0004 116.282 73.9797 113.943C73.9659 112.59 74.0521 111.234 74.1832 109.889C74.3419 108.288 74.956 107.367 77.0053 106.836C80.0689 106.042 82.6288 106.991 84.6954 109.347C85.5165 110.282 86.134 111.334 86.617 112.483C87.928 115.609 88.6042 118.862 88.687 122.25C88.7181 123.565 88.8147 124.876 88.8699 126.187C88.8802 126.428 88.9872 126.545 89.1804 126.659C91.9438 128.295 94.4865 130.244 97.0326 132.193C98.0917 133.004 99.1612 133.804 100.224 134.611C105.099 138.313 109.977 142.008 114.845 145.717C116.232 146.773 117.622 147.832 118.954 148.957C119.671 149.564 120.286 150.292 120.913 150.999C121.424 151.575 121.98 152.096 122.67 152.427C124.426 153.276 126.195 154.097 127.965 154.918C128.221 155.035 128.507 155.087 128.831 155.077C128.697 154.984 128.569 154.887 128.431 154.801C127.01 153.918 125.695 152.91 124.646 151.585C124.584 151.506 124.512 151.43 124.45 151.347C123.822 150.554 123.887 150.14 124.726 149.595C124.915 149.471 125.126 149.371 125.292 149.226C125.536 149.012 125.792 148.794 125.975 148.529C126.54 147.718 126.489 147.628 125.695 147.025C124.681 146.255 123.691 145.455 122.704 144.651C121.717 143.847 120.724 143.05 119.778 142.198C118.547 141.084 117.36 139.914 116.156 138.769C115.397 138.044 114.683 137.275 113.879 136.606C113.22 136.057 112.464 135.629 111.747 135.157C111.216 134.808 110.65 134.505 110.149 134.118C109.208 133.394 108.273 132.648 107.383 131.862C106.63 131.196 105.954 130.447 105.23 129.75C103.674 128.26 102.111 126.777 100.545 125.296C100.231 125 99.8823 124.741 99.5683 124.448C98.8059 123.744 98.7955 122.533 99.5407 121.815C100.079 121.298 100.665 120.849 101.445 120.767C101.504 120.76 101.559 120.725 101.611 120.698C101.628 120.691 101.635 120.667 101.687 120.598C101.11 119.607 101.021 118.49 101.155 117.358C101.297 116.182 101.928 115.26 102.87 114.436C102.628 114.308 102.439 114.208 102.252 114.108C100.717 113.28 99.1819 112.452 97.6501 111.621C97.4707 111.524 97.2913 111.407 97.1533 111.262C96.7704 110.858 96.9291 110.31 97.4673 110.161C97.6432 110.113 97.833 110.099 98.0158 110.106C101.262 110.227 104.385 109.547 107.476 108.664C108.776 108.291 110.056 107.843 111.343 107.422C111.574 107.346 111.809 107.246 112.009 107.108C112.144 107.015 112.299 106.846 112.313 106.698C112.378 106.049 112.74 105.604 113.217 105.217C113.496 104.99 113.762 104.748 114.034 104.514C114.01 104.472 113.986 104.427 113.958 104.386C113.769 104.431 113.572 104.462 113.386 104.521C110.308 105.504 107.151 105.756 103.946 105.556C97.8123 105.176 92.0439 103.413 86.5066 100.833C78.2439 96.9789 71.0472 91.6866 65.0511 84.7935C62.9949 82.4302 61.1974 79.8807 59.6415 77.1655C58.4823 75.1473 57.4714 73.0566 56.9884 70.7589C56.5365 68.6026 56.2536 66.4257 56.4019 64.2142C56.4951 62.8239 56.4433 61.4197 56.7573 60.0466C57.1989 58.1043 58.0476 56.3724 59.4414 54.9303C59.6242 54.744 59.845 54.5784 60.0762 54.4611C60.3177 54.3369 60.5626 54.4197 60.7351 54.637C60.8904 54.8371 60.8869 55.0648 60.7627 55.2718C60.6799 55.4098 60.5626 55.5306 60.4488 55.6479C58.8031 57.3142 57.951 59.3463 57.7612 61.6509C57.6474 63.0412 57.5818 64.4419 57.6163 65.8357C57.6888 68.713 58.1545 71.5248 59.4621 74.1295C60.2832 75.7614 61.1319 77.3898 62.3152 78.7974C62.8017 79.3735 63.3709 79.8876 63.9402 80.3844C64.3404 80.7363 64.8027 81.0157 65.2339 81.3262C67.1763 82.7131 69.3222 83.5756 71.7061 83.8447C73.6036 84.0586 75.4908 84.3519 77.3848 84.5727C80.6244 84.9487 83.7225 84.3036 86.7412 83.1789C89.0562 82.3164 91.24 81.171 93.3859 79.9566C93.9138 79.6564 94.3933 79.27 94.9384 78.8905C94.7452 78.6421 94.6141 78.4696 94.4761 78.2937C92.1543 75.3577 90.0049 72.301 88.135 69.0546C87.4623 67.8816 86.8792 66.6534 86.3169 65.4217C85.5682 63.783 85.2991 62.058 85.4475 60.2536C85.5993 58.4079 85.8063 56.5759 86.341 54.7923C86.6895 53.6365 87.2415 52.5912 88.0005 51.6528C89.4598 49.8519 91.3642 49.1515 93.6516 49.2274C96.522 49.3206 100.593 51.9736 101.997 55.4478C103.118 58.2216 103.532 61.0402 103.177 64.0107C102.904 66.298 102.228 68.4681 101.473 70.6174C101.024 71.8939 100.489 73.1428 99.9409 74.3814C99.3234 75.7821 98.454 77.0275 97.419 78.1557C97.1706 78.4248 96.9256 78.6939 96.6669 78.9802C96.7911 79.1493 96.8773 79.2838 96.9808 79.408C99.558 82.5544 102.135 85.6974 104.716 88.8438C104.885 89.0508 105.054 89.2578 105.233 89.4544C105.554 89.8098 105.661 89.8408 106.075 89.5821C106.982 89.0163 107.776 88.3056 108.573 87.5604C108.483 87.3879 108.414 87.243 108.335 87.1015C106.047 82.9374 104.24 78.5938 103.415 73.8846C102.922 71.0694 102.991 68.2369 103.287 65.4114C103.536 63.0136 104.136 60.6849 104.802 58.3734C105.996 54.2127 108.756 51.3526 112.402 49.2378C113.379 48.672 114.469 48.4374 115.59 48.3856C116.949 48.3235 118.298 48.4443 119.62 48.7893C120.986 49.1446 122.09 49.8898 122.925 51.018C124.215 52.7568 125.002 54.706 125.154 56.8692C125.361 59.8086 125.047 62.6928 124.074 65.4907C123.156 68.1265 122.228 70.7589 120.993 73.2774C119.613 76.096 117.826 78.6559 115.994 81.1813C115.124 82.3785 114.203 83.5377 113.237 84.6555C112.461 85.5559 111.592 86.3736 110.76 87.2292C110.619 87.3741 110.467 87.5121 110.284 87.6846C110.398 87.8502 110.481 88.0123 110.601 88.1365C111.226 88.7886 111.812 89.4924 112.506 90.0616C113.824 91.1415 115.18 92.173 116.566 93.1632C117.922 94.1326 119.506 94.6087 121.096 95.0365C122.883 95.5195 124.708 95.799 126.537 96.0853C127.182 96.1854 127.755 96.1164 128.286 95.7265C128.535 95.5471 128.811 95.4057 129.073 95.2435C130.618 94.2913 132.243 93.5185 133.975 92.9631C136.028 92.3007 138.043 91.5348 139.985 90.586C142.393 89.4096 144.843 89.3785 147.327 90.3583C148.586 90.8551 149.859 91.3209 151.125 91.8108C152.34 92.28 153.45 92.9251 154.52 93.6669C157.245 95.554 159.812 97.6309 162.196 99.9321C163.29 100.988 164.553 101.792 165.919 102.423C168.12 103.437 170.311 104.483 172.563 105.366C174.965 106.308 176.935 107.736 178.553 109.74C179.936 111.452 181.368 113.115 182.475 115.026C183.917 117.524 184.804 120.228 185.529 122.995C186.222 125.645 186.65 128.343 186.988 131.051C187.295 133.521 187.964 135.878 188.847 138.186C189.517 139.931 190.248 141.649 190.938 143.388C191.587 145.01 192.549 146.379 194.005 147.383C194.461 147.697 194.564 148.06 194.35 148.36C194.136 148.66 193.757 148.684 193.305 148.377C192.38 147.746 191.569 146.99 190.959 146.048C190.624 145.534 190.303 144.999 190.069 144.434C189.154 142.233 188.254 140.028 187.398 137.806C186.488 135.436 185.977 132.973 185.663 130.451C185.318 127.701 184.821 124.972 184.083 122.292C183.117 118.79 181.699 115.512 179.394 112.669C178.528 111.6 177.621 110.565 176.721 109.523C175.737 108.385 174.533 107.557 173.15 106.963C170.714 105.918 168.296 104.841 165.874 103.765C165.367 103.541 164.88 103.275 164.394 103.009C163.252 102.388 162.203 101.64 161.265 100.732C158.853 98.3968 156.235 96.3199 153.468 94.4224C152.581 93.8152 151.639 93.3184 150.639 92.932C149.203 92.3766 147.772 91.8004 146.316 91.3002C144.498 90.6792 142.683 90.7378 140.906 91.5106C139.588 92.0833 138.281 92.6836 136.946 93.2149C135.842 93.6531 134.707 94.0222 133.578 94.4017C132.205 94.864 130.943 95.5471 129.704 96.2716C128.821 96.7891 127.951 97.3273 127.041 97.8069C124.439 99.1696 121.955 100.739 119.513 102.368C119.033 102.685 118.526 102.958 118.053 103.285C116.708 104.224 115.345 105.145 114.041 106.139C113.158 106.811 113.358 108.202 114.355 108.695C115.124 109.075 115.932 109.251 116.801 109.119C119.057 108.774 121.176 108.019 123.222 107.036C123.611 106.849 123.994 106.653 124.37 106.439C126.858 105.028 129.545 104.245 132.367 103.917C134.141 103.71 135.924 103.596 137.701 103.41C138.37 103.341 139.036 103.21 139.692 103.054C140.81 102.785 141.917 102.478 143.028 102.175C143.401 102.075 143.766 101.937 144.166 101.805C144.153 101.564 144.139 101.36 144.132 101.16C144.118 100.791 144.097 100.422 144.101 100.053C144.118 98.4658 144.97 97.4481 146.35 96.8167C147.234 96.4131 148.155 96.6063 148.786 97.2756C149.41 97.9345 149.548 98.8798 149.09 99.732C148.91 100.067 148.658 100.394 148.365 100.632C147.696 101.171 146.982 101.657 146.278 102.157C146.078 102.299 145.86 102.413 145.612 102.564C145.664 102.796 145.688 103.02 145.764 103.227C146.136 104.272 146.443 105.345 146.913 106.346C147.913 108.481 149.369 110.223 151.539 111.283C152.146 111.579 152.76 111.873 153.385 112.135C153.833 112.321 154.106 112.614 154.085 113.108C154.023 114.532 154.534 115.771 155.331 116.903C155.862 117.658 156.442 118.379 157.032 119.086C157.642 119.814 158.449 120.249 159.35 120.542C159.729 120.667 160.005 120.629 160.275 120.311C160.885 119.59 161.527 118.897 162.148 118.186C162.458 117.831 162.755 117.462 163.045 117.089C163.773 116.14 164.715 115.461 165.774 114.926C166.202 114.708 166.65 114.577 167.137 114.612C168.372 114.698 169.141 115.792 168.755 116.965C168.454 117.879 167.934 118.676 167.192 119.29C165.667 120.556 163.938 121.436 162.003 121.881C161.606 121.974 161.189 122.012 160.782 122.012C160.426 122.012 160.143 122.085 159.916 122.367C158.456 124.175 156.59 125.541 154.82 127.004C153.447 128.139 151.963 129.15 150.497 130.164C149.362 130.951 148.106 131.203 146.699 131.072C143.639 130.785 140.654 130.168 137.725 129.278C135.907 128.726 134.051 128.408 132.174 128.177C131.339 128.074 130.508 127.943 129.676 127.808C128.631 127.636 127.644 127.277 126.747 126.725C125.695 126.08 124.564 125.676 123.36 125.469C121.376 125.124 119.389 124.807 117.401 124.496C115.659 124.224 113.9 124.034 112.168 123.703C110.094 123.306 108.042 122.785 105.975 122.35C105.195 122.188 104.398 122.112 103.608 122.005C103.515 121.991 103.419 122.019 103.325 122.026C103.315 122.067 103.305 122.105 103.294 122.147V122.143ZM65.127 82.7649C65.0994 82.7925 65.0718 82.8235 65.0442 82.8511C65.2029 83.0512 65.3581 83.2513 65.5203 83.448C70.0501 88.83 75.4149 93.2184 81.4558 96.796C86.4514 99.7561 91.7368 102.026 97.4017 103.354C101.987 104.427 106.603 104.741 111.274 103.924C113.461 103.541 115.538 102.892 117.47 101.799C120.006 100.363 122.542 98.9212 125.074 97.4791C125.185 97.417 125.267 97.3135 125.388 97.2135C124.043 96.9306 122.759 96.6684 121.479 96.3924C118.916 95.8404 116.539 94.8709 114.483 93.2046C114.082 92.8803 113.662 92.587 113.254 92.2765C111.93 91.2622 110.695 90.1513 109.618 88.8714C109.542 88.7782 109.446 88.7058 109.328 88.5919C109.035 88.8438 108.759 89.0853 108.48 89.3233C107.617 90.0616 106.741 90.7585 105.595 91.0345C105.271 91.1139 105.054 91.0966 104.84 90.8413C104.485 90.417 104.102 90.0133 103.75 89.5855C101.235 86.5219 98.7231 83.4549 96.2115 80.3913C96.0597 80.2084 95.8941 80.0394 95.7388 79.8703C95.1523 80.2705 94.6486 80.6638 94.1001 80.9778C91.8334 82.2715 89.5219 83.479 87.069 84.3829C83.9295 85.5387 80.7072 86.1907 77.3434 85.8043C75.2424 85.5628 73.1517 85.2661 71.0541 84.9867C69.0496 84.7176 67.1901 84.0517 65.4892 82.9512C65.3788 82.8787 65.2512 82.8304 65.1304 82.7683L65.127 82.7649ZM109.556 86.6737C109.811 86.446 109.994 86.2839 110.177 86.1217C111.73 84.7279 113.016 83.103 114.269 81.4504C116.328 78.7353 118.295 75.9546 119.83 72.8944C121.058 70.4449 121.955 67.8678 122.863 65.2941C123.808 62.6203 124.136 59.8672 123.953 57.0486C123.829 55.1373 123.139 53.4157 122.035 51.8598C121.314 50.8455 120.337 50.2107 119.126 49.9278C118.019 49.669 116.898 49.5724 115.766 49.6104C114.748 49.6449 113.765 49.8553 112.882 50.3832C109.597 52.3359 107.076 54.9303 105.996 58.708C105.351 60.9609 104.761 63.2241 104.519 65.5597C104.26 68.0575 104.181 70.5553 104.543 73.0531C105.219 77.7106 107.024 81.9679 109.183 86.0976C109.277 86.2735 109.401 86.4357 109.553 86.6703L109.556 86.6737ZM95.8389 78.0004C95.9631 77.9038 96.0355 77.859 96.0907 77.8038C97.1568 76.7067 98.0607 75.4923 98.7334 74.1157C99.7995 71.9319 100.569 69.6376 101.269 67.3158C101.869 65.332 102.114 63.2965 102.094 61.2369C102.073 58.9081 101.359 56.7553 100.234 54.7336C99.3406 53.1259 97.902 52.122 96.3357 51.256C95.1385 50.5936 93.8655 50.3763 92.5303 50.5005C91.1434 50.6281 89.9808 51.2284 89.0769 52.3083C88.3144 53.2191 87.7797 54.2472 87.4588 55.3926C87.0103 56.983 86.8378 58.6114 86.6895 60.2502C86.5377 61.9303 86.7964 63.5311 87.4968 65.0526C88.0281 66.2083 88.5766 67.3606 89.2114 68.4612C91.0296 71.6145 93.1203 74.5884 95.3697 77.445C95.5077 77.6209 95.6526 77.79 95.8354 78.0073L95.8389 78.0004ZM149.573 129.147C149.6 129.174 149.628 129.202 149.655 129.229C149.838 129.119 150.028 129.022 150.201 128.898C150.721 128.529 151.218 128.129 151.75 127.78C153.944 126.349 155.817 124.52 157.818 122.85C158.205 122.53 158.508 122.126 158.812 121.684C158.646 121.605 158.56 121.553 158.467 121.519C157.456 121.153 156.611 120.535 155.948 119.704C155.244 118.824 154.572 117.913 153.944 116.979C153.378 116.133 152.967 115.188 152.936 114.167C152.916 113.425 152.595 113.118 151.96 112.842C150.677 112.287 149.442 111.624 148.448 110.603C147.147 109.264 146.061 107.781 145.433 106.001C145.132 105.148 144.846 104.293 144.549 103.441C144.505 103.313 144.436 103.196 144.384 103.085C142.873 103.489 141.41 103.9 139.937 104.269C139.285 104.434 138.615 104.562 137.946 104.631C136.128 104.821 134.303 104.935 132.488 105.145C129.832 105.456 127.303 106.194 124.96 107.526C124.584 107.739 124.201 107.936 123.811 108.122C121.6 109.192 119.309 110.016 116.86 110.351C115.58 110.527 114.407 110.213 113.348 109.509C113.037 109.302 112.823 109.326 112.513 109.458C111.681 109.806 110.829 110.103 109.987 110.434C109.566 110.599 109.149 110.772 108.745 110.969C108.452 111.114 108.207 111.327 108.166 111.572C108.58 112.007 109.011 112.328 109.249 112.752C109.477 113.163 109.563 113.68 109.604 114.16C109.653 114.691 109.304 115.102 108.876 115.474C109.063 115.557 109.152 115.605 109.246 115.636C110.77 116.126 112.292 116.62 113.824 117.096C114.093 117.179 114.386 117.196 114.672 117.217C115.894 117.303 117.043 117.089 118.06 116.364C118.209 116.257 118.385 116.185 118.55 116.106C119.475 115.65 120.341 115.102 121.114 114.415C123.515 112.28 126.461 111.417 129.532 110.944C131.295 110.672 133.078 110.524 134.824 110.123C136.076 109.837 137.342 109.744 138.619 109.868C141.182 110.113 143.701 110.575 146.136 111.441C146.716 111.648 147.275 111.921 147.865 112.097C148.865 112.393 149.731 112.921 150.58 113.511C151.26 113.984 151.498 114.584 151.387 115.36C151.329 115.768 151.242 116.168 151.177 116.575C150.932 118.079 151.129 119.563 151.346 121.05C151.418 121.536 151.518 122.036 151.467 122.516C151.305 124.027 151.108 125.535 150.473 126.946C150.218 127.508 149.994 128.081 149.759 128.65C149.693 128.812 149.638 128.981 149.58 129.147H149.573ZM111.792 158.489C111.619 158.285 111.495 158.123 111.357 157.982C110.394 157.002 109.439 156.008 108.456 155.046C105.737 152.382 103.225 149.54 100.897 146.531C100.041 145.424 99.1302 144.375 98.14 143.385C97.4742 142.719 96.829 142.022 96.2494 141.28C94.828 139.448 93.4791 137.558 92.0473 135.736C90.7984 134.142 89.7531 132.435 88.9354 130.585C88.8975 130.499 88.8319 130.423 88.6905 130.206C88.6456 130.54 88.6146 130.73 88.5973 130.92C88.5628 131.331 88.5352 131.738 88.5007 132.148C88.3558 133.949 88.1971 135.747 88.0764 137.551C88.0419 138.058 88.0936 138.576 88.1488 139.083C88.3558 141.053 89.17 142.791 90.2533 144.413C91.0744 145.641 91.8886 146.88 92.7787 148.056C93.5308 149.053 94.383 149.971 95.1972 150.923C95.6905 151.499 96.2253 152.041 96.6876 152.641C97.2637 153.397 97.9089 154.076 98.6127 154.711C99.2061 155.246 99.8098 155.788 100.31 156.405C101.476 157.844 102.88 159.006 104.416 160.003C106.013 161.045 107.665 162.008 109.301 162.991C109.749 163.26 110.232 163.467 110.701 163.702C110.733 163.526 110.701 163.436 110.65 163.36C110.205 162.694 109.756 162.032 109.315 161.363C108.901 160.735 108.966 160.324 109.577 159.893C110.08 159.538 110.605 159.217 111.122 158.886C111.326 158.755 111.533 158.637 111.785 158.489H111.792ZM122.287 120.297C122.463 120.391 122.549 120.446 122.642 120.487C124.84 121.505 127.041 122.516 129.231 123.551C129.652 123.751 130.004 123.765 130.373 123.489C130.487 123.402 130.615 123.333 130.736 123.254C132.902 121.802 135.034 120.304 137.008 118.59C137.591 118.083 138.26 117.658 138.929 117.265C140.516 116.333 142.065 116.323 143.683 117.337C145.35 118.383 147.113 119.287 149.062 119.725C149.328 119.783 149.6 119.821 149.859 119.866C149.897 119.749 149.921 119.707 149.918 119.673C149.755 118.189 149.835 116.723 150.163 115.267C150.238 114.926 150.097 114.702 149.821 114.484C149.034 113.856 148.117 113.529 147.202 113.152C145.081 112.276 142.883 111.714 140.627 111.348C139.085 111.1 137.532 110.896 135.969 111.158C134.351 111.431 132.737 111.724 131.122 112.024C130.908 112.066 130.677 112.152 130.504 112.283C129.066 113.373 127.589 114.419 126.385 115.788C125.547 116.744 124.674 117.672 123.818 118.614C123.325 119.155 122.832 119.697 122.287 120.294V120.297ZM134.803 127.335C134.731 127.218 134.717 127.166 134.686 127.153C134.541 127.08 134.393 127.008 134.241 126.949C131.267 125.807 128.369 124.506 125.495 123.13C123.256 122.057 120.962 121.098 118.685 120.108C117.84 119.739 116.984 119.38 116.108 119.1C112.92 118.083 109.694 117.182 106.572 115.971C106.106 115.792 106.054 115.806 105.737 116.202C104.781 117.403 104.661 118.779 104.926 120.225C104.95 120.363 105.026 120.494 105.081 120.625C105.181 120.874 105.361 121.001 105.633 121.05C106.241 121.156 106.848 121.263 107.441 121.426C109.68 122.05 111.964 122.426 114.265 122.74C117.419 123.168 120.551 123.734 123.687 124.275C124.988 124.5 126.213 124.962 127.362 125.645C127.955 125.997 128.617 126.307 129.287 126.438C131.094 126.79 132.923 127.035 134.81 127.335H134.803ZM75.3873 119C75.5701 118.959 75.7081 118.935 75.8427 118.9C77.1916 118.545 78.5268 118.155 79.9378 118.107C80.4553 118.089 80.9728 117.882 81.4765 117.72C81.6594 117.662 81.8457 117.524 81.9699 117.372C82.4149 116.83 82.7668 116.23 82.9669 115.55C83.4879 113.784 83.4051 112.017 82.9117 110.268C82.515 108.854 81.4972 108.084 80.0827 107.867C79.1271 107.722 78.1576 107.788 77.2123 108.033C76.0635 108.333 75.5149 108.888 75.3907 110.065C75.27 111.207 75.1837 112.356 75.1837 113.501C75.1837 115.122 75.2769 116.74 75.3321 118.362C75.339 118.562 75.3631 118.762 75.3838 118.997L75.3873 119ZM135.41 126.038C135.466 126.076 135.524 126.135 135.593 126.166C137.315 126.946 139.033 127.729 140.758 128.498C141.607 128.878 142.497 129.116 143.411 129.267C144.484 129.447 145.553 129.654 146.623 129.84C146.926 129.892 147.234 129.895 147.541 129.926C147.879 129.961 148.055 129.833 148.148 129.485C148.282 128.991 148.486 128.519 148.676 128.043C148.993 127.242 149.324 126.445 149.642 125.641C149.728 125.421 149.776 125.183 149.856 124.896C149.5 124.834 149.221 124.786 148.941 124.738C148.517 124.665 148.089 124.596 147.665 124.524C145.477 124.158 143.29 123.792 141.103 123.43C140.378 123.309 139.671 123.396 138.988 123.672C137.656 124.206 136.576 125.138 135.428 125.952C135.414 125.962 135.417 125.99 135.407 126.035L135.41 126.038ZM131.257 124.431C132.15 124.786 132.94 125.11 133.744 125.407C133.865 125.452 134.065 125.383 134.182 125.303C134.996 124.751 135.814 124.199 136.601 123.609C138.27 122.357 140.085 121.919 142.165 122.333C144.556 122.812 146.975 123.157 149.383 123.558C149.597 123.592 149.814 123.603 150.049 123.627C150.263 122.761 150.37 121.964 150.073 121.156C149.707 121.101 149.359 121.081 149.024 120.991C147.696 120.636 146.381 120.239 145.167 119.563C144.325 119.09 143.463 118.662 142.631 118.176C141.841 117.713 141.051 117.675 140.216 118.017C139.354 118.372 138.564 118.842 137.867 119.459C135.973 121.139 133.917 122.599 131.822 124.006C131.66 124.117 131.505 124.244 131.257 124.431ZM127.955 112.642C127.945 112.6 127.934 112.559 127.92 112.518C127.489 112.635 127.058 112.749 126.63 112.873C124.898 113.37 123.291 114.108 121.935 115.333C121.155 116.037 120.286 116.613 119.344 117.085C118.812 117.351 118.291 117.637 117.771 117.924C117.66 117.986 117.574 118.086 117.432 118.203C118.674 118.752 119.847 119.266 121.048 119.797C122.166 118.593 123.249 117.448 124.305 116.278C125.402 115.06 126.461 113.805 127.786 112.818C127.848 112.77 127.896 112.704 127.948 112.645L127.955 112.642ZM125.523 150.55C125.547 150.675 125.543 150.726 125.564 150.754C126.792 152.313 128.334 153.48 130.139 154.283C130.722 154.542 131.367 154.611 132.009 154.504C132.537 154.414 132.744 154.104 132.64 153.583C132.612 153.445 132.55 153.31 132.481 153.186C132.036 152.396 131.508 151.675 130.798 151.092C130.246 150.637 129.725 150.143 129.183 149.671C128.752 149.295 128.314 148.922 127.869 148.56C127.769 148.477 127.631 148.439 127.472 148.36C127.058 149.35 126.42 150.102 125.523 150.554V150.55ZM100.217 123.389C102.587 125.39 104.802 127.48 106.958 129.775C107.245 129.367 107.524 129.043 107.728 128.674C108.1 128.001 108.045 127.411 107.503 126.87C107 126.366 106.434 125.914 105.865 125.479C105.213 124.979 104.509 124.551 103.864 124.044C103.18 123.506 102.449 123.061 101.649 122.73C101.048 122.481 100.952 122.492 100.527 122.954C100.431 123.057 100.358 123.182 100.213 123.385L100.217 123.389ZM112.633 159.431C111.899 159.879 111.188 160.311 110.415 160.78C110.977 161.594 111.46 162.353 112.009 163.06C112.478 163.664 113.096 164.109 113.789 164.44C114.369 164.72 114.962 164.692 115.587 164.64C115.68 164.102 115.738 163.616 115.483 163.157C114.735 161.808 113.824 160.58 112.63 159.431H112.633ZM62.4325 127.787C62.4325 127.46 62.4498 127.225 62.4325 126.99C62.3049 125.555 62.0185 124.148 61.5735 122.781C61.3803 122.188 61.0249 121.643 60.7006 121.101C60.5074 120.777 60.1797 120.587 59.8036 120.498C59.3448 120.387 59.1757 120.487 59.155 120.949C59.1378 121.315 59.1343 121.695 59.1999 122.053C59.6001 124.168 60.6213 125.962 62.0737 127.529C62.1496 127.611 62.26 127.663 62.436 127.791L62.4325 127.787ZM53.88 156.671C53.811 155.867 53.7765 155.253 53.7006 154.642C53.6626 154.342 53.5764 154.038 53.4591 153.759C53.2797 153.324 53.0968 153.248 52.6311 153.373C52.3551 153.445 52.0894 153.559 51.8134 153.645C51.5719 153.718 51.5029 153.88 51.5236 154.114C51.5547 154.483 51.565 154.853 51.6064 155.218C51.7513 156.543 51.8824 157.868 52.0584 159.186C52.1446 159.821 52.7242 160 53.1624 159.52C53.4004 159.262 53.5902 158.903 53.6557 158.561C53.7903 157.882 53.8213 157.185 53.8765 156.674L53.88 156.671ZM161.751 120.584C161.796 120.611 161.813 120.632 161.83 120.632C161.889 120.632 161.955 120.636 162.01 120.622C163.642 120.19 165.105 119.425 166.402 118.355C166.933 117.917 167.302 117.341 167.547 116.703C167.751 116.175 167.454 115.799 166.895 115.85C166.736 115.864 166.571 115.916 166.426 115.985C165.57 116.399 164.791 116.916 164.173 117.658C163.428 118.555 162.665 119.445 161.913 120.339C161.851 120.415 161.806 120.504 161.751 120.587V120.584ZM108.004 109.854C106.655 110.172 105.313 110.537 103.95 110.796C102.597 111.055 101.224 111.207 99.8443 111.407C100.348 111.876 103.715 113.535 104.298 113.594C104.105 112.832 104.243 112.169 104.854 111.645C105.457 111.124 106.175 111.186 106.8 111.269C107.238 110.755 107.617 110.31 108.004 109.854ZM104.792 115.367C104.54 115.133 104.298 115.126 104.067 115.243C103.833 115.364 103.594 115.495 103.398 115.668C102.249 116.675 101.97 118.731 102.804 120.015C102.939 120.218 103.091 120.418 103.267 120.587C103.367 120.684 103.529 120.715 103.739 120.811C103.401 118.79 103.557 116.958 104.792 115.364V115.367ZM145.464 101.219C146.343 100.722 147.12 100.198 147.779 99.5146C147.941 99.3456 148.058 99.1006 148.11 98.8695C148.227 98.3244 147.792 97.831 147.24 97.8655C147.044 97.8793 146.84 97.9552 146.661 98.0449C145.512 98.6349 145.084 99.7285 145.467 101.215L145.464 101.219ZM107.458 114.488C107.596 114.47 107.783 114.46 107.962 114.426C108.359 114.346 108.476 114.156 108.352 113.767C108.307 113.615 108.211 113.477 108.114 113.346C107.614 112.676 106.882 112.49 106.106 112.456C105.578 112.431 105.337 112.828 105.544 113.328C105.865 114.094 106.344 114.35 107.455 114.488H107.458Z" fill="#47567B"/>
</svg>
