<svg width="215" height="237" viewBox="0 0 215 237" fill="none" xmlns="http://www.w3.org/2000/svg">
<path d="M101.714 81.6115C96.6733 78.3262 91.0536 76.0763 85.1531 74.9023C82.196 74.3136 79.1849 74.0193 76.1703 74.0226C74.6647 74.0226 73.1591 74.1038 71.6603 74.2595C70.4626 74.3847 69.0247 74.4151 68.03 75.1594C65.5466 77.0135 66.0643 81.6453 68.0909 83.611C69.1939 84.6801 70.6149 85.0658 72.0325 85.5429C73.6971 86.1045 75.3617 86.6526 77.0331 87.1906C83.6576 89.3255 90.3363 91.2675 97.0624 93.0539C97.5733 93.1892 98.0808 92.3569 98.2601 92.0626C99.7792 89.5318 99.5288 85.7899 97.8744 83.3708C96.3688 81.1682 93.7501 80.522 91.2769 80.0517C85.4034 78.9352 79.3777 79.6018 73.7884 81.669C72.7565 82.0513 72.5535 84.0644 72.5468 84.9305C72.4994 89.7179 74.2926 94.5629 77.8721 97.8244C81.4517 101.086 86.5977 102.673 91.5679 102.395C95.7294 102.162 100.324 100.409 101.752 96.1124C103.223 91.6735 101.434 86.7507 96.7714 85.4854C94.2881 84.8121 91.7269 84.9542 89.1792 84.9745C85.7722 85.0016 82.3652 85.0252 78.9582 85.0523C76.7421 85.0692 77.1582 89.6266 77.7605 90.8277C81.1235 97.5064 89.4397 101.492 96.6496 98.7041C98.6289 97.9394 99.6506 96.3899 99.8773 94.2922C100.182 91.4773 99.0416 89.136 96.3823 88.1108C92.3866 86.5714 88.1811 87.5526 84.1245 88.2665C82.2874 88.5913 80.4299 88.8856 78.5589 88.8687C77.5778 88.8586 76.5695 88.7841 75.6154 88.5371C75.1316 88.412 74.614 88.2496 74.1775 88.0026C73.8798 87.8706 73.626 87.6879 73.4095 87.4443C73.5313 88.1075 73.5888 88.2834 73.5854 87.9789C73.5178 87.9857 74.3839 83.0595 74.5835 82.5419C75.3583 80.5389 76.9079 79.0841 78.9243 78.3702C82.8896 76.9695 87.5383 78.3465 91.463 79.2364C93.5776 79.7134 95.7666 80.0687 97.8101 80.8096C98.6289 81.1073 99.4341 81.4626 100.175 81.9227C100.331 82.0208 101.691 83.2828 101.677 83.2862C101.075 83.3911 102.435 81.7671 101.545 82.437C101.204 82.6941 100.902 83.2185 100.574 83.5129C99.6912 84.3046 98.595 84.873 97.5462 85.4076C94.985 86.7135 92.2648 87.7962 89.3958 88.1447C84.8249 88.7029 79.442 87.2244 77.4695 82.6637C76.9045 81.3611 75.6865 81.5472 75.0775 82.6637C74.3129 84.061 74.4651 86.0335 75.0775 87.4477C76.6271 91.0307 79.7803 93.4971 83.5088 94.5087C87.7921 95.6692 92.2378 94.6779 96.2402 92.9693C100.243 91.2607 104.066 89.0616 104.827 84.5922C105.497 80.6743 104.063 76.9932 100.517 75.0816C96.971 73.17 92.8501 72.7539 89.1217 71.9419C85.3933 71.1299 81.2385 70.46 77.5676 72.0231C73.802 73.6268 71.8938 77.5379 71.0513 81.3306C70.2089 85.1234 68.9638 90.9731 72.2423 93.8084C75.4801 96.6064 80.8224 95.6252 84.6286 94.9418C86.794 94.5527 88.9695 94.1027 91.172 94.0452C92.1363 94.0181 93.1174 94.0587 94.0681 94.2414C94.552 94.3328 95.0155 94.4614 95.4756 94.6373C95.7091 94.7253 96.8459 95.3715 96.7782 95.1008L96.609 92.4923C96.7071 91.3352 97.2891 91.4502 96.3417 91.934C95.9628 92.1269 95.5128 92.2757 95.1068 92.3908C94.332 92.6141 93.5234 92.7257 92.7182 92.7832C91.0299 92.9016 89.2875 92.7156 87.677 92.1911C84.4933 91.1558 81.6648 89.0582 80.1457 86.0402L78.948 91.8156C84.0163 91.7784 89.2943 91.3081 94.3422 91.8054C95.2861 91.8968 96.2233 92.049 97.103 92.4077C97.5327 92.5836 97.9928 92.7866 98.3582 93.081C98.4902 93.1892 98.8319 93.6629 98.8995 93.6561C98.9131 93.6561 99.0044 92.4043 98.93 92.3705C98.9943 92.3975 98.2905 93.1892 98.3108 93.1689C97.6443 93.8422 96.785 94.3226 95.9256 94.705C91.9468 96.4846 86.503 95.8587 82.6731 93.9945C79.2661 92.3366 75.8827 88.9634 75.9233 84.9271L74.6816 88.1887C78.4744 86.7846 82.4836 86.1417 86.5267 86.2838C88.4146 86.3515 90.3025 86.5816 92.1464 86.9943C92.9956 87.1838 93.8279 87.424 94.6027 87.8233C94.9512 88.0026 95.2625 88.3341 95.6076 88.4864L95.9053 88.8281C96.4365 88.845 96.4229 88.3274 95.8647 87.2718L97.0624 86.2805C91.4867 84.7986 85.9448 83.1881 80.4435 81.4592C77.7233 80.6032 75.0098 79.7168 72.3099 78.7999C71.7517 78.6104 71.1664 78.4548 70.6318 78.2011C69.2176 77.5379 69.4544 76.5365 69.5018 79.3717C69.5424 81.8483 69.3326 81.29 71.1021 81.0803C71.6637 81.016 72.2253 80.9585 72.7904 80.9145C82.6731 80.1465 92.5287 82.7178 100.821 88.1244C102.79 89.4067 103.663 82.8667 101.721 81.5979L101.714 81.6115Z" fill="#FFCDB3"/>
<path d="M103.325 56.4835C110.796 57.556 120.276 54.0915 123.297 46.6583C124.907 42.6964 124.325 37.7263 120.918 34.908C118.259 32.7054 114.5 31.8799 111.11 31.8156C104.205 31.6837 97.0998 34.9486 92.9586 40.5311C90.0692 44.4219 91.0741 49.074 94.6976 52.048C97.4246 54.2843 101.139 55.1911 104.621 54.9847C108.911 54.7309 112.964 52.8667 116.679 50.8401C118.185 50.018 120.012 49.2499 121.186 47.9677C122.779 46.2219 122.982 43.3359 122.258 41.1841C120.956 37.3135 116.178 37.3406 112.819 36.982C108.823 36.5523 104.215 35.8655 100.51 37.8819C96.8562 39.8713 95.1307 44.0734 95.7769 48.1131C96.0746 49.9672 96.9644 52.0547 98.8997 52.6468C100.835 53.2389 103.332 52.5013 105.233 52.0446C108.826 51.1818 113.773 49.9977 115.678 46.4655C116.618 44.7197 116.828 42.49 116.222 40.6021C115.532 38.4503 113.84 37.8041 111.756 37.6214C103.64 36.9008 96.4941 44.2967 96.4908 52.2239C96.4908 54.2471 96.9069 56.6527 98.3381 58.1989C99.847 59.8262 101.907 59.4202 103.789 58.774C108.031 57.3226 111.763 54.5347 114.565 51.0566C115.542 49.842 115.603 47.8662 115.17 46.4282C114.886 45.4809 113.847 43.9855 112.856 45.2136C111.151 47.3316 109.155 49.1045 106.793 50.4646C105.741 51.0736 100.93 53.8817 99.9282 52.2611C99.5425 51.6352 101.024 49.4699 101.573 48.7932C103.01 47.0203 104.922 45.7313 107.067 44.9599C108.065 44.6012 109.111 44.4118 110.166 44.3576C110.694 44.3306 111.225 44.3373 111.753 44.3847C112.281 44.4321 113.008 44.7738 113.495 44.74L113.387 41.5021L113.11 41.8472C112.893 42.0164 112.731 42.2464 112.507 42.419C112.115 42.7201 111.648 42.9265 111.205 43.1396C109.716 43.8501 108.156 44.4422 106.576 44.9091C105.139 45.3354 103.667 45.6399 102.185 45.8531C101.515 45.9478 100.825 46.073 100.145 46.0527C99.8098 46.0425 99.4512 45.8937 99.1501 45.8801C99.0587 45.8565 98.9877 45.8057 98.9403 45.7245C98.6527 45.3354 98.6662 45.6873 98.9877 46.7869C99.0689 46.7801 100.351 45.0783 100.581 44.9125C101.667 44.1242 102.946 43.6708 104.266 43.4712C107.287 43.0178 110.457 43.478 113.468 43.8163C114.842 43.9719 116.314 44.0362 117.654 44.3779C118.127 44.4997 118.543 44.7535 119.003 44.8888C119.119 44.9227 119.443 45.2441 119.535 45.2305C119.514 44.1919 119.494 43.1566 119.47 42.1179L119.193 42.3412C117.975 42.6795 116.628 43.8434 115.505 44.4524C114.165 45.1798 112.802 45.87 111.398 46.4655C108.779 47.5752 106.011 48.3229 103.149 48.2282C100.798 48.1537 98.4971 47.5414 96.5314 46.2219C96.0848 45.9207 95.6788 45.5926 95.3032 45.2069C95.1002 45.0005 94.9006 44.6824 94.6773 44.4896C93.4086 43.4035 97.3738 44.2967 94.3728 46.753C95.2525 46.0358 95.9055 44.8144 96.7479 44.0058C100.168 40.7239 104.946 38.8259 109.652 38.5891C112.348 38.4537 115.187 38.7819 117.657 39.9255C118.222 40.186 118.784 40.4905 119.291 40.8525C119.768 41.1942 120.086 41.722 120.54 42.0604C120.786 42.2464 120.786 42.5645 120.8 42.0401C120.783 42.6558 120.103 43.4712 119.748 43.9144C115.925 48.6951 109.202 50.5458 103.325 49.7033C101.167 49.392 100.869 56.1181 103.325 56.47V56.4835Z" fill="#FFCDB3"/>
<path d="M97.9622 48.1335C100.307 48.1335 100.327 41.3668 97.9622 41.3668C95.5972 41.3668 95.5972 48.1335 97.9622 48.1335Z" fill="#FFCDB3"/>
<path d="M161.948 81.7774C155.97 73.2717 145.695 68.2068 135.301 68.7278C133.894 68.7989 133.62 71.1334 133.609 72.1112C133.521 79.8861 138.975 85.6343 146.178 87.7049C149.467 88.6489 153.246 89.4541 156.684 89.3932C160.121 89.3323 162.439 87.661 162.804 84.1964C162.923 83.063 162.939 80.6135 161.623 80.0349C155.036 77.132 147.992 75.4133 140.806 74.9701C140.955 77.1862 141.107 79.4022 141.256 81.6149C142.426 80.7285 144.132 80.4917 145.272 81.6048C145.069 80.062 144.866 78.5192 144.666 76.9764C143.773 80.106 140.748 82.1766 137.49 81.6352C134.98 81.2157 133.058 79.135 134.641 76.7903L132.158 74.7671C133.2 80.2549 135.602 85.746 140.403 88.9432C144.561 91.7142 150.458 91.9781 154.515 88.8925C155.723 87.9756 155.895 86.1351 155.696 84.731C155.601 84.0679 154.816 81.4559 153.615 82.3694C150.286 84.9036 145.745 84.9475 142.135 82.9311C138.525 80.9146 136.184 76.9933 135.419 72.9739C135.281 72.2465 134.147 69.1541 132.936 70.9507C129.776 75.6366 129.198 84.2641 134.807 87.5087C140.417 90.7533 146.074 85.7189 147.593 80.397C147.965 79.0978 148.053 76.8106 146.987 75.7685C145.17 73.9957 142.484 73.4916 140.363 75.0953C138.952 76.1644 138.241 81.5845 140.812 81.7401C147.714 82.1631 154.403 83.7769 160.73 86.5614C160.338 85.1742 159.942 83.787 159.549 82.3999C159.993 81.6116 160.026 81.4526 159.654 81.9195C159.499 82.0007 159.343 82.0852 159.187 82.1698C158.792 82.3762 158.372 82.4574 157.936 82.5318C156.86 82.7111 155.774 82.6164 154.698 82.4878C151.957 82.1664 149.173 81.8247 146.527 81.0161C142.731 79.8556 136.945 76.8005 136.999 72.1145L135.308 75.4979C145.099 75.0073 154.606 79.5985 160.246 87.6238C161.153 88.9162 162.3 87.282 162.561 86.4091C163.014 84.9035 162.868 83.0799 161.955 81.7807L161.948 81.7774Z" fill="#FFCDB3"/>
<path d="M138.85 78.8947C141.195 78.8947 141.215 72.1281 138.85 72.1281C136.485 72.1281 136.485 78.8947 138.85 78.8947Z" fill="#FFCDB3"/>
<path d="M94.5247 47.5617C96.8693 47.5617 96.8896 40.795 94.5247 40.795C92.1597 40.795 92.1597 47.5617 94.5247 47.5617Z" fill="#FFCDB3"/>
<path d="M105.301 137.528C106.671 132.453 106.018 125.974 102.053 122.137C97.7422 117.969 92.789 121.616 91.5575 126.549C90.1432 132.209 91.2056 138.556 94.6769 143.252C96.2705 145.404 98.2023 147.285 99.8838 149.366C101.565 151.447 103.206 153.802 104.617 156.194C105.165 154.309 105.713 152.425 106.261 150.54C102.465 149.163 100.875 145.408 99.4542 141.919C98.7707 143.692 98.0873 145.462 97.4039 147.235C98.9907 149.518 100.327 152.022 101.271 154.641C101.843 156.228 103.013 160.392 105.433 158.369C106.319 157.628 106.607 156.424 107.033 155.405C107.574 154.12 108.217 152.875 108.914 151.667C110.22 149.414 111.746 147.299 113.241 145.171C116.51 140.522 120.644 135.268 118.553 129.249C117.778 127.016 115.857 125.301 113.38 125.727C110.903 126.153 109.174 127.977 107.906 130.085C107.287 131.11 105.098 136.834 103.822 133.783C102.692 131.079 102.591 127.95 103.027 125.094L101.396 127.577C102.773 127.534 103.034 128.258 103.078 129.398C103.139 130.947 103.149 132.5 103.183 134.053L105.324 130.792C104.164 130.335 103.027 129.753 102.069 128.941C101.112 128.129 100.527 127.124 99.7215 126.217C98.2903 124.614 96.1588 123.869 94.9171 126.123C92.498 130.521 95.4517 137.146 98.7775 140.245C101.078 142.386 101.921 135.897 100.486 134.402C98.6286 132.466 96.5276 131.286 93.9359 130.636L94.7885 136.939C96.3889 135.559 98.9906 137.92 99.8094 139.155C100.814 140.668 100.95 142.092 100.314 143.757L102.628 142.542C101.684 141.351 100.956 140.018 100.692 138.509C99.9989 139.896 99.3053 141.283 98.6117 142.671C99.8162 143.686 101.024 144.704 102.229 145.719C103.101 146.453 104.005 144.724 104.14 144.163C104.36 143.249 106.41 142.495 107.144 141.947C108.697 140.786 109.506 139.182 110.68 137.697C111.259 136.963 111.986 136.249 112.944 136.087C113.197 136.032 113.451 136.029 113.708 136.076C113.674 134.94 113.64 133.799 113.603 132.663C113.448 132.73 112.9 133.617 112.798 133.745C111.604 135.197 110.277 136.533 109.022 137.927C107.767 139.321 106.579 140.803 105.608 142.43C105.182 143.144 104.837 143.882 104.529 144.653C104.313 145.195 104.123 145.732 103.957 146.291C103.815 146.778 103.964 146.49 103.957 146.48C103.778 146.314 103.761 145.922 103.602 145.709C102.834 144.684 103.335 147.103 103.139 146.927C103.02 146.822 103.951 146.477 103.937 146.49L104.296 146.497C104.066 145.614 103.988 145.418 104.066 145.908C103.961 146.964 104.343 148.28 104.465 149.329C104.614 150.611 104.763 151.894 104.911 153.176C104.999 153.94 106.231 156.975 107.395 155.199C110.298 150.777 113.201 146.355 116.107 141.933C116.987 140.593 117.176 138.844 116.713 137.305C116.466 136.482 115.292 134.73 114.398 136.09C111.495 140.512 108.593 144.934 105.686 149.356L108.17 151.379C107.835 148.486 107.838 145.255 106.969 142.464C106.268 140.214 104.181 138.868 102.1 140.465C99.6538 142.342 99.7451 146.311 100.601 148.967C101.163 150.706 102.81 154.573 105.189 152.777C106.887 151.494 107.05 148.652 108.19 146.906C109.533 144.856 111.343 143.121 112.988 141.317C114.865 139.26 116.757 137.122 116.757 134.165C116.757 131.208 115.024 128.362 111.78 129.597C109.022 130.65 108.349 133.684 106.241 135.42C104.164 137.132 101.914 137.829 101.214 140.749L103.125 139.192C101.921 138.177 100.713 137.159 99.5083 136.144C97.8166 134.72 97.3159 139.673 97.4276 140.306C97.952 143.303 99.0211 145.986 100.919 148.385C101.924 149.657 102.902 148.037 103.233 147.17C104.776 143.137 104.407 138.096 102.201 134.371C100.354 131.255 96.4227 128.217 93.08 131.096C91.6116 132.362 91.8653 136.885 93.9326 137.399C95.7832 137.863 97.4614 138.871 98.7741 140.241C99.3425 138.293 99.9109 136.347 100.483 134.398C99.4914 133.475 98.6286 132.456 98.067 131.211C97.8505 130.731 97.7591 130.237 97.5832 129.746L97.5087 129.232L97.096 131.363C97.1941 131.526 97.6779 131.722 97.8437 131.878C98.8384 132.818 99.5083 134.03 100.561 134.95C101.724 135.965 102.983 136.743 104.421 137.311C106.102 137.974 106.586 135.078 106.563 134.05C106.478 130.284 107.368 120.615 101.389 120.807C100.29 120.841 99.8838 122.465 99.7587 123.291C98.9906 128.318 99.2173 134.507 101.667 139.105C102.614 140.881 104.424 142.353 106.376 140.962C108.271 139.612 108.988 137.014 110.149 135.105C111.069 133.59 112.9 131.898 114.858 132.51C115.018 132.561 115.711 133.14 115.796 133.13C115.525 133.16 116.114 132.483 115.691 132.669C115.637 132.693 115.495 133.123 115.464 133.187C114.957 134.276 114.27 135.302 113.61 136.3C110.91 140.38 107.814 144.22 105.581 148.591C105.284 149.17 105.003 149.759 104.746 150.357C104.607 150.676 103.863 151.992 103.984 152.266L104.323 152.445C104.675 152.729 104.756 152.695 104.57 152.34C104.614 152.069 104.282 151.481 104.191 151.22C103.944 150.527 103.68 149.836 103.403 149.156C102.283 146.399 100.804 143.831 99.1091 141.388C98.314 140.245 97.2415 141.456 96.9268 142.261C96.3652 143.689 96.4904 145.306 97.0588 146.703C98.7234 150.791 100.919 155.453 105.358 157.063C107.845 157.967 107.693 152.574 107.002 151.41C105.027 148.06 102.797 144.866 100.246 141.926C97.9621 139.294 94.9814 136.692 94.4874 133.055C94.1356 130.453 94.9205 126.173 98.6083 127.026C101.454 127.686 103.078 131.499 102.371 134.114C102.005 135.461 101.894 137.66 102.976 138.742C104.059 139.825 104.996 138.621 105.29 137.528H105.301Z" fill="#FFCDB3"/>
<path d="M111.022 177.218C111.073 177.126 111.141 177.042 111.174 176.944C111.313 176.575 111.421 176.189 111.58 175.827C113.519 171.449 114.734 166.824 116.141 162.267C117.082 159.218 117.975 156.15 118.465 152.993C118.78 150.97 118.956 148.926 119.118 146.883C119.548 141.476 119.947 136.066 120.34 130.656C120.475 128.768 120.763 126.908 121.291 125.091C122.278 121.694 123.297 118.307 124.315 114.917C124.407 114.609 124.437 114.338 124.281 114.048C123.818 113.195 123.75 112.285 123.848 111.334C124.099 108.935 124.907 106.712 125.963 104.571C126.156 104.178 126.213 103.837 126.017 103.454C125.997 103.414 125.987 103.366 125.966 103.322C124.508 100.061 123.967 96.5997 123.757 93.0709C123.683 91.8156 123.591 90.5604 123.591 89.3052C123.591 88.2834 123.655 87.2549 123.811 86.2467C123.96 85.2824 124.102 84.3249 124.119 83.3438C124.143 81.9262 124.237 80.5052 124.322 79.0875C124.41 77.6327 124.745 76.2388 125.367 74.9125C126.298 72.9265 127.37 71.0217 128.646 69.2353C129.38 68.2034 130.233 67.2831 131.221 66.4948C131.566 66.2207 131.931 65.9704 132.307 65.7369C133.379 65.0738 134.431 65.0196 135.49 65.8113C136.417 66.5083 137.382 67.1545 138.332 67.821C138.407 67.8752 138.502 67.9733 138.566 67.9598C139.314 67.8109 140.146 68.1188 140.799 67.4726C142.683 65.6117 145.887 65.473 147.87 66.9955C150.14 68.7413 152.387 70.5142 154.643 72.2769C155.432 72.8927 156.186 73.5558 157.008 74.1242C160.097 76.2658 162.273 79.0808 163.491 82.6434C164.205 84.7343 164.966 86.8117 165.683 88.9026C166.363 90.8818 166.715 92.9085 166.512 95.0129C166.353 96.6775 165.785 98.1831 164.76 99.506C163.877 100.646 163.004 101.796 162.073 102.903C161.038 104.131 159.722 105.017 158.291 105.718C157.455 106.127 156.596 106.496 155.723 106.814C155.114 107.034 154.471 107.162 153.831 107.284C152.004 107.636 150.167 107.944 148.344 108.303C145.901 108.783 143.475 109.355 141.022 109.774C139.747 109.994 138.431 110.001 137.128 110.045C136.631 110.062 136.316 110.207 136.059 110.637C135.619 111.375 135.169 112.116 134.638 112.789C133.765 113.899 132.669 114.775 131.43 115.448C130.581 115.912 130.04 116.585 129.695 117.461C128.649 120.107 127.729 122.787 127.32 125.622C127.083 127.256 126.738 128.877 126.42 130.497C125.828 133.498 125.567 136.537 125.442 139.585C125.364 141.469 125.3 143.357 125.317 145.242C125.357 149.312 124.846 153.318 124.17 157.32C123.375 162.016 122.363 166.641 120.641 171.097C120.181 172.292 119.761 173.503 119.328 174.707C117.928 178.615 116.753 182.584 116.124 186.698C116.087 186.938 116.067 187.182 116.036 187.422C116.08 187.439 116.124 187.456 116.168 187.473C116.3 187.293 116.435 187.117 116.564 186.935C120.255 181.562 123.926 176.176 128.067 171.128C131.156 167.365 133.728 163.275 135.693 158.812C136.81 156.278 137.947 153.751 139.046 151.21C140.153 148.659 140.941 146.01 141.391 143.259C141.827 140.597 142.345 137.944 142.792 135.281C142.927 134.479 142.947 133.661 143.032 132.849C143.062 132.571 143.089 132.284 143.187 132.03C143.418 131.438 144.067 131.347 144.46 131.847C144.615 132.043 144.717 132.287 144.815 132.524C145.505 134.192 145.904 135.941 146.128 137.724C146.764 142.782 147.494 147.833 147.566 152.942C147.62 156.857 147.484 160.765 146.791 164.632C146.557 165.941 146.188 167.217 145.651 168.435C145.559 168.644 145.478 168.861 145.366 169.142C145.586 169.192 145.755 169.264 145.928 169.267C146.767 169.28 147.606 169.324 148.442 169.267C150.746 169.105 153.013 168.688 155.259 168.161C156.629 167.839 157.919 167.301 159.065 166.469C161.616 164.622 162.736 162.101 162.533 158.975C162.53 158.904 162.51 158.836 162.51 158.768C162.493 158.305 162.655 158.027 162.987 157.943C163.339 157.852 163.69 158.068 163.822 158.505C163.904 158.768 163.948 159.053 163.951 159.327C164.005 162.724 162.736 165.491 159.979 167.524C158.588 168.55 157.025 169.226 155.344 169.561C153.337 169.961 151.318 170.326 149.284 170.569C148.022 170.722 146.726 170.681 145.451 170.61C144.764 170.569 144.385 170.752 144.074 171.358C143.681 172.122 143.215 172.85 142.741 173.571C141.34 175.716 139.544 177.438 137.284 178.662C135.873 179.427 134.377 179.799 132.774 179.508C132.276 179.417 131.779 179.248 131.329 179.018C130.483 178.585 130.067 177.854 130.162 176.896C130.375 174.728 131.18 172.84 132.902 171.429C134.665 169.984 136.695 169.149 138.972 169.04C140.342 168.976 141.716 169.05 143.089 169.077C143.803 169.091 143.81 169.115 144.101 168.485C144.92 166.696 145.508 164.845 145.715 162.876C146.334 156.948 146.375 151.027 145.61 145.107C145.285 142.589 145.011 140.069 144.696 137.548C144.622 136.956 144.48 136.371 144.368 135.782C144.314 135.775 144.26 135.769 144.206 135.762C144.158 135.941 144.101 136.114 144.067 136.296C143.549 139.088 143.032 141.882 142.528 144.677C142.183 146.585 141.631 148.436 140.924 150.239C139.341 154.272 137.547 158.214 135.643 162.104C134.205 165.045 132.462 167.809 130.419 170.35C126.562 175.144 122.931 180.097 119.45 185.165C118.804 186.106 118.117 187.023 117.545 188.007C116.821 189.252 116.195 190.555 115.515 191.827C115.329 192.172 115.119 192.507 114.879 192.815C114.778 192.947 114.578 193.045 114.409 193.075C113.935 193.157 113.702 192.927 113.763 192.446C113.864 191.685 113.969 190.924 114.111 190.169C114.632 187.354 115.092 184.526 115.722 181.734C116.503 178.28 117.741 174.954 118.956 171.632C120.083 168.55 121.23 165.464 121.835 162.226C122.62 158.017 123.51 153.822 123.798 149.535C123.872 148.422 123.889 147.302 123.902 146.186C123.943 142.718 123.984 139.247 124.285 135.789C124.467 133.698 124.765 131.627 125.181 129.57C125.455 128.224 125.736 126.877 125.922 125.517C126.322 122.607 127.262 119.86 128.314 117.143C128.402 116.913 128.494 116.683 128.588 116.44C127.556 116.182 126.592 115.942 125.547 115.682C125.472 115.851 125.361 116.047 125.3 116.26C124.356 119.501 123.409 122.739 122.481 125.984C121.913 127.967 121.774 130.01 121.619 132.057C121.132 138.441 120.634 144.822 120.106 151.203C119.866 154.093 119.139 156.897 118.33 159.668C117.129 163.779 115.843 167.866 114.588 171.96C114.446 172.427 114.287 172.894 114.084 173.337C112.626 176.528 111.682 179.891 110.751 183.257C109.977 186.062 109.266 188.883 108.518 191.695C107.842 194.239 107.169 196.784 105.781 199.067C105.051 200.272 104.235 201.395 103.048 202.197C102.875 202.312 102.696 202.43 102.503 202.505C102.242 202.603 101.992 202.532 101.809 202.315C101.627 202.095 101.596 201.835 101.745 201.601C101.867 201.412 102.033 201.229 102.219 201.101C103.261 200.38 103.978 199.389 104.611 198.316C105.717 196.452 106.39 194.425 106.884 192.334C107.463 189.888 108.008 187.435 108.586 184.986C109.188 182.435 109.506 179.857 109.476 177.235C109.476 177.164 109.476 177.096 109.476 177.025C109.78 170.816 108.979 164.71 107.754 158.643C107.51 157.435 107.233 156.231 106.962 155.026C106.915 154.807 106.83 154.597 106.725 154.258C106.472 154.495 106.289 154.654 106.123 154.83C105.291 155.71 104.482 156.61 103.633 157.473C102.689 158.433 102.225 158.339 101.704 157.124C100.639 154.634 99.194 152.343 97.888 149.982C97.8474 149.904 97.7662 149.85 97.6546 149.728C97.5192 149.928 97.3941 150.083 97.2993 150.259C95.9054 152.841 94.4912 155.409 93.1277 158.007C92.0991 159.973 91.3142 162.04 90.8608 164.222C90.4887 166.005 90.5124 167.771 90.9082 169.554C91.2465 171.08 91.7337 172.556 92.2345 174.034C93.4119 177.495 94.5081 180.987 95.2186 184.576C96.1896 189.486 96.6057 194.442 96.2708 199.443C96.1896 200.651 96.034 201.852 95.902 203.053C95.8783 203.256 95.8343 203.472 95.7396 203.652C95.584 203.946 95.3133 204.078 94.975 203.997C94.6671 203.922 94.5047 203.699 94.4776 203.395C94.4641 203.236 94.4979 203.073 94.5115 202.911C94.6603 201.266 94.887 199.626 94.9479 197.978C95.1814 191.495 94.2679 185.162 92.3563 178.97C91.2296 175.323 90.0319 171.696 88.9696 168.029C87.667 163.532 86.7839 158.934 85.8738 154.343C84.9874 149.853 84.7438 145.35 84.896 140.796C84.9738 138.495 84.9028 136.188 84.8723 133.884C84.8487 132.111 84.8723 130.345 85.2614 128.603C85.275 128.538 85.2614 128.467 85.2614 128.329C84.8419 128.302 84.4257 128.322 84.0333 128.237C83.6307 128.153 83.2517 127.97 82.7848 127.801C82.7341 128.115 82.6596 128.423 82.6427 128.735C82.4194 132.524 82.3348 136.317 82.4634 140.113C82.6427 145.33 83.1029 150.523 83.6983 155.707C84.0739 158.971 84.9434 162.145 85.9584 165.278C86.9903 168.468 88.0019 171.669 88.6989 174.951C89.088 176.795 89.3316 178.669 89.6496 180.527C89.7274 180.98 89.6665 181.359 89.2233 181.599C88.726 181.87 88.2421 181.701 88.0662 181.159C87.3117 178.876 85.9652 176.961 84.3141 175.255C82.301 173.178 80.1357 171.253 77.7538 169.619C74.8205 167.606 72.3269 165.173 70.1515 162.382C67.9726 159.587 65.9088 156.715 64.2205 153.592C63.669 152.57 63.2021 151.501 62.6946 150.452C62.5965 150.249 62.4984 150.046 62.3732 149.792C62.1025 150.033 62.1431 150.297 62.1296 150.53C61.9536 154.211 61.8927 157.885 62.7995 161.502C63.1209 162.788 63.3645 164.094 63.6521 165.39C64.3355 168.482 65.6415 171.344 66.9271 174.213C67.0895 174.579 67.3298 174.663 67.6985 174.633C68.6493 174.552 69.6034 174.484 70.5541 174.443C72.9089 174.339 75.2603 174.372 77.5846 174.792C82.1555 175.617 85.3798 178.791 86.2155 183.274C86.3745 184.127 86.4219 184.982 86.2866 185.845C86.087 187.134 85.4171 188.068 84.243 188.66C82.027 189.773 79.8278 189.827 77.6151 188.647C75.4295 187.479 73.5754 185.903 71.9209 184.083C69.9079 181.87 68.1925 179.437 66.7106 176.839C66.3181 176.152 66.3249 176.169 65.5061 176.237C63.7908 176.379 62.0721 176.538 60.3533 176.605C59.2639 176.649 58.1643 176.595 57.0783 176.484C54.0096 176.162 51.5567 174.63 49.4759 172.444C49.0834 172.031 48.7925 171.503 48.532 170.992C48.4068 170.745 48.4068 170.404 48.444 170.116C48.4846 169.818 48.7316 169.642 49.0395 169.619C49.3575 169.592 49.6011 169.747 49.6789 170.048C49.9733 171.212 50.836 171.933 51.6954 172.647C53.722 174.325 56.0396 175.205 58.6887 175.239C60.8371 175.266 62.9686 175.1 65.1001 174.89C65.2524 174.876 65.4013 174.805 65.6178 174.745C65.4825 174.426 65.3776 174.146 65.2456 173.878C62.8164 168.952 61.6661 163.661 60.8202 158.285C60.7255 157.689 60.6781 157.08 60.668 156.478C60.6274 154.127 60.5732 151.775 60.8507 149.434C60.9454 148.625 61.1213 147.827 61.2736 147.028C61.3074 146.849 61.3582 146.659 61.4529 146.504C61.7303 146.04 62.292 146.017 62.61 146.45C62.7047 146.578 62.7623 146.737 62.813 146.89C63.9024 150.286 65.5434 153.406 67.4989 156.376C69.397 159.262 71.5251 161.966 73.8088 164.554C74.834 165.718 76.052 166.648 77.3038 167.545C79.4827 169.105 81.5668 170.783 83.5461 172.593C84.0434 173.049 84.5543 173.496 85.0077 173.993C85.7283 174.785 86.405 175.614 87.0952 176.429C87.2373 176.599 87.3726 176.775 87.5113 176.947C87.5621 176.927 87.6095 176.906 87.6602 176.886C87.6095 176.578 87.579 176.267 87.5012 175.966C86.9429 173.804 86.3982 171.635 85.8028 169.483C85.4238 168.117 84.9738 166.767 84.5408 165.413C83.5562 162.348 82.7205 159.239 82.3416 156.041C81.7428 150.98 81.3063 145.898 81.0965 140.8C80.9308 136.794 81.0153 132.791 81.2454 128.792C81.2894 128.051 81.4383 127.314 81.5093 126.573C81.5398 126.278 81.5702 125.947 81.4721 125.683C81.0221 124.461 81.0052 123.21 81.2319 121.961C81.5567 120.161 81.6582 118.358 81.5364 116.538C81.5195 116.26 81.4755 115.983 81.4383 115.709C81.374 115.242 81.1338 114.907 80.7379 114.636C79.0496 113.483 77.7132 111.96 76.4039 110.41C76.0892 110.038 75.7441 109.693 75.3787 109.372C74.7156 108.786 74.0254 108.235 73.3521 107.656C71.9852 106.482 70.7841 105.16 69.7691 103.667C69.1534 102.764 68.4936 101.888 67.8711 100.991C65.381 97.4049 63.5709 93.487 62.2649 89.3289C61.5037 86.9064 61.5544 84.4197 61.7574 81.9228C61.9503 79.5375 62.725 77.3282 63.7603 75.2035C64.4032 73.8874 65.408 72.8385 66.5245 71.9081C67.4042 71.1739 68.4699 71.042 69.5628 71.1875C71.2071 71.4074 72.7329 71.9724 74.0288 73.0246C74.6953 73.5626 75.284 74.1986 75.9031 74.7975C76.0655 74.9565 76.2144 75.129 76.4275 75.3557C76.5663 75.1257 76.6745 74.9599 76.7659 74.7873C77.4967 73.3663 78.6402 72.5137 80.2135 72.2092C81.6785 71.925 83.1401 71.8878 84.5611 72.375C86.0125 72.8724 87.4504 73.4238 88.8681 74.0058C89.3992 74.2223 89.8898 74.564 90.3567 74.9091C92.7081 76.638 95.3674 77.4263 98.2534 77.5177C98.9741 77.5414 99.6981 77.5075 100.419 77.5346C101.84 77.5887 103.031 78.1098 103.924 79.2669C104.685 80.2548 105.314 81.307 105.67 82.5047C105.798 82.9445 105.971 83.2186 106.519 83.2254C107.267 83.2321 107.896 83.6077 108.434 84.1253C108.596 84.281 108.762 84.4366 109.026 84.6937C108.999 84.4129 109.006 84.264 108.965 84.1287C108.688 83.1814 108.596 82.2137 108.61 81.2292C108.63 79.7405 108.532 78.2451 108.88 76.7767C108.952 76.479 108.847 76.2963 108.576 76.161C107.639 75.6974 106.729 75.1663 105.768 74.7636C103.887 73.9753 102.168 72.913 100.476 71.7965C100.013 71.4886 99.5831 71.1232 99.1669 70.7544C94.1055 66.2309 90.7086 60.6518 88.6887 54.1997C87.5858 50.6811 87.9309 47.2571 89.3823 43.911C89.8797 42.7641 90.6511 41.7998 91.5274 40.9202C91.6086 40.839 91.6931 40.751 91.7913 40.6935C94.0649 39.3063 96.4501 38.3353 99.1906 38.8563C99.6846 38.9511 100.172 39.1507 100.618 39.3841C100.95 39.5601 101.16 39.5736 101.488 39.3469C102.503 38.6499 103.555 38.0037 104.597 37.344C105.443 36.8094 106.329 36.3324 107.128 35.7369C109.002 34.3396 111.137 33.5817 113.374 33.0641C113.878 32.949 114.446 32.9998 114.964 33.0844C117.092 33.4328 119.024 34.2753 120.759 35.5474C122.204 36.6064 123.178 37.9834 123.449 39.7969C123.466 39.9018 123.517 40.0033 123.571 40.1521C123.73 40.0439 123.848 39.983 123.946 39.895C125.171 38.7988 126.646 38.562 128.193 38.7717C129.373 38.9308 130.253 39.6751 130.821 40.6799C132.063 42.8825 133.068 45.1899 133.268 47.7545C133.531 51.1784 133.494 54.599 132.79 57.9755C132.185 60.8987 131.089 63.6325 129.448 66.1361C129.079 66.6978 128.67 67.2391 128.237 67.7534C127.025 69.1879 126.186 70.8559 125.283 72.4765C124.315 74.2155 123.05 75.6907 121.473 76.8782C120.834 77.3587 120.045 77.6462 119.301 77.971C118.729 78.2214 118.702 78.1876 118.733 78.8236C118.763 79.4969 118.838 80.1702 118.865 80.8435C118.922 82.1596 118.804 83.4487 118.249 84.6667C117.755 85.7493 117.078 86.6831 116.04 87.2989C115.678 87.5154 115.502 87.7793 115.556 88.2056C115.583 88.4357 115.566 88.6725 115.539 88.9026C115.18 92.0694 115.021 95.2565 114.328 98.3861C113.908 100.277 113.418 102.138 112.693 103.938C112.355 104.781 112.044 105.633 111.763 106.499C110.833 109.362 109.669 112.122 108.326 114.816C107.118 117.238 106.16 119.762 105.622 122.428C105.402 123.511 105.392 124.57 105.656 125.673C105.957 126.935 106.062 128.244 106.252 129.533C106.282 129.753 106.299 129.976 106.34 130.382C106.593 130.095 106.729 129.926 106.881 129.766C107.507 129.11 108.106 128.427 108.769 127.808C109.672 126.962 110.768 126.684 112 126.82C115.742 127.236 118.303 130.169 118.181 133.921C118.131 135.528 117.752 137.068 117.048 138.499C114.619 143.439 111.949 148.239 108.292 152.404C107.957 152.783 107.903 153.128 108.024 153.605C109.395 159.009 110.369 164.486 110.768 170.048C110.921 172.156 110.843 174.281 110.87 176.399C110.87 176.666 110.87 176.934 110.87 177.197C110.914 177.204 110.961 177.211 111.005 177.221L111.022 177.218ZM104.418 48.1503C104.357 47.8289 104.323 47.6022 104.269 47.3823C103.674 44.9937 102.401 43.0077 100.723 41.2314C99.9654 40.4296 99.0959 40.1082 98.0606 40.0777C96.1287 40.0202 94.4269 40.751 92.7893 41.678C92.6709 41.7457 92.566 41.8472 92.4679 41.9453C91.7473 42.6829 91.1011 43.4746 90.6849 44.4287C89.3756 47.4365 89.0338 50.5153 90.015 53.6922C91.9503 59.9446 95.2355 65.3512 100.145 69.7225C100.7 70.2164 101.315 70.6394 101.928 71.0623C103.795 72.3513 105.856 73.2817 107.899 74.2392C109.774 75.1155 111.655 75.9783 113.675 76.4858C114.717 76.7497 115.762 76.9459 116.841 76.9763C118.435 77.0203 119.839 76.4925 121.023 75.4877C123.206 73.637 124.755 71.3262 125.482 68.5417C126.173 65.8959 126.254 63.196 125.76 60.5063C125.005 56.3854 124.197 52.278 123.405 48.1639C123.375 48.0015 123.3 47.8458 123.246 47.6868C123.178 47.6496 123.111 47.6124 123.043 47.5752C122.931 47.7545 122.847 47.9575 122.705 48.1064C122.187 48.6409 121.659 49.1687 121.121 49.683C119.846 50.8976 118.34 51.4694 116.561 51.4491C114.263 51.422 112.02 51.0871 109.797 50.5221C108.759 50.2582 107.713 50.0315 106.668 49.8014C106.499 49.7642 106.316 49.7946 106.11 49.7946C106.079 50.0382 106.049 50.2446 106.032 50.451C105.852 52.7043 104.709 54.4501 103.044 55.8643C101.928 56.8117 100.588 57.0654 99.1669 56.6662C97.9929 56.338 97.2181 55.5734 97.0084 54.352C96.9102 53.7836 96.9069 53.1949 96.9305 52.6163C96.9881 51.1175 97.7019 50.0619 99.1432 49.5443C99.4071 49.4495 99.6609 49.3345 99.9248 49.2465C101.356 48.7661 102.77 48.218 104.414 48.147L104.418 48.1503ZM133.244 77.2504C132.98 77.4365 132.79 77.565 132.611 77.7004C131.589 78.4718 130.554 79.2263 129.559 80.0281C128.744 80.6845 127.976 81.395 127.194 82.0919C126.278 82.9107 125.743 83.9562 125.442 85.1302C125.117 86.3989 124.931 87.6846 124.955 88.9973C125.002 91.8156 125.222 94.6238 125.614 97.4117C125.905 99.4823 126.677 101.411 127.482 103.319C128.216 105.055 129.539 106.205 131.265 106.943C133.075 107.714 134.956 108.221 136.884 108.56C137.338 108.641 137.808 108.668 138.271 108.658C139.506 108.638 140.728 108.475 141.936 108.201C143.319 107.886 144.703 107.565 146.104 107.332C147.352 107.125 148.58 106.861 149.717 106.313C150.827 105.782 151.896 105.17 152.969 104.564C155.127 103.346 156.474 101.414 157.543 99.2556C157.952 98.4233 158.091 97.5335 158.013 96.6064C157.766 93.6731 157.008 90.9326 155.087 88.6116C154.857 88.3342 154.66 88.2598 154.319 88.3477C153.283 88.615 152.251 88.9263 151.196 89.0887C147.88 89.5962 144.649 89.1496 141.526 87.9857C140.782 87.7083 140.068 87.238 139.456 86.7203C136.627 84.3182 134.553 81.3882 133.457 77.812C133.41 77.6598 133.349 77.5143 133.251 77.247L133.244 77.2504ZM81.3165 95.8621C81.1744 96.0685 81.0627 96.214 80.968 96.3696C80.3793 97.3169 79.7906 98.2677 79.2053 99.2184C78.5455 100.288 77.879 101.353 77.226 102.426C76.8335 103.072 76.5561 103.766 76.5561 104.53C76.5561 105.366 76.5696 106.205 76.6407 107.041C76.7456 108.286 77.2565 109.372 78.1192 110.278C78.8094 111.003 79.4962 111.733 80.2169 112.424C80.6161 112.809 81.0526 113.175 81.5296 113.455C83.0115 114.332 84.4799 115.249 86.0261 115.996C88.6346 117.262 91.3311 117.326 93.9904 116.125C95.1306 115.611 96.2268 114.978 97.2959 114.325C98.4158 113.645 99.3699 112.758 100.189 111.723C102.029 109.392 102.939 106.679 103.454 103.803C103.501 103.529 103.494 103.245 103.494 102.967C103.508 100.409 103.024 97.9226 102.357 95.4663C102.327 95.358 102.263 95.2633 102.195 95.1212C101.319 95.2836 100.453 95.4324 99.5932 95.6185C99.4308 95.6523 99.282 95.8147 99.1568 95.9501C97.8407 97.3745 96.1862 98.1256 94.278 98.2101C92.4679 98.2913 90.6477 98.288 88.8376 98.2169C86.3779 98.1188 84.0773 97.3981 81.9356 96.1835C81.7563 96.082 81.5702 95.9907 81.3165 95.8553V95.8621ZM75.1926 107.288C75.1926 107.024 75.2095 106.848 75.1926 106.675C74.9152 104.405 75.3787 102.324 76.7794 100.484C76.8505 100.392 76.908 100.288 76.9689 100.189C77.879 98.7278 78.7925 97.2662 79.6925 95.7978C80.1898 94.9858 80.1797 94.9824 79.6045 94.2584C78.3527 92.6784 77.6557 90.9089 77.9771 88.8721C78.2444 87.1872 78.7519 85.5632 79.6552 84.0949C79.8379 83.7971 79.8481 83.5569 79.6992 83.2558C78.3628 80.5018 76.8505 77.8594 74.7731 75.5858C74.2724 75.0377 73.7243 74.5268 73.1423 74.0633C72.08 73.2175 70.8315 72.7709 69.5019 72.5611C68.7237 72.4393 67.9489 72.4934 67.323 73.0483C66.4129 73.8535 65.5501 74.7163 65.0156 75.8226C64.0818 77.7613 63.3476 79.7642 63.1716 81.9363C62.9889 84.1727 62.8908 86.4057 63.5269 88.5913C64.6468 92.4382 66.3351 96.0347 68.5038 99.3977C69.4613 100.883 70.5473 102.287 71.5725 103.728C72.486 105.011 73.6566 106.043 74.8306 107.071C74.9084 107.142 75.0167 107.179 75.196 107.284L75.1926 107.288ZM99.4376 119.907C99.4951 119.748 99.5594 119.6 99.6034 119.444C100.077 117.756 100.744 116.149 101.556 114.596C102.709 112.386 103.819 110.157 104.952 107.941C106.488 104.94 107.598 101.783 108.403 98.518C109.226 95.1888 109.743 91.8089 110.122 88.4052C110.173 87.9451 110.163 87.4748 110.173 87.0113C110.18 86.6493 110.058 86.3583 109.652 86.1621C109.652 86.3279 109.648 86.4192 109.652 86.5106C109.753 88.8146 108.931 90.7431 107.29 92.3367C106.411 93.1927 105.369 93.7983 104.255 94.2956C103.572 94.6001 103.565 94.6035 103.761 95.3275C104.259 97.1748 104.634 99.0458 104.8 100.951C104.908 102.226 105.003 103.508 104.695 104.774C104.475 105.677 104.269 106.591 103.978 107.474C102.97 110.532 101.319 113.158 98.673 115.073C97.0422 116.253 95.2896 117.218 93.3679 117.84C92.7183 118.05 92.1668 118.368 91.8082 118.943C91.3514 119.671 90.9048 120.408 90.5157 121.169C89.4872 123.176 88.6955 125.304 87.4369 127.195C86.8211 128.122 86.4591 129.157 86.4118 130.274C86.3509 131.692 86.3103 133.109 86.2967 134.53C86.273 137.091 86.2967 139.653 86.2629 142.21C86.2324 144.68 86.1918 147.157 86.5403 149.603C87.2035 154.286 88.1237 158.921 89.247 163.512C89.2774 163.63 89.3553 163.739 89.4534 163.942C89.5312 163.715 89.5887 163.59 89.6192 163.458C90.1368 161.245 90.9623 159.144 92.0213 157.141C93.4931 154.363 94.9919 151.603 96.5212 148.855C96.8155 148.327 96.846 147.932 96.5651 147.384C95.1644 144.65 93.7807 141.903 92.4476 139.135C91.5037 137.179 90.8338 135.119 90.4244 132.981C90.1436 131.509 89.9744 130.03 90.2045 128.538C90.5496 126.278 91.2804 124.174 93.0296 122.604C94.799 121.014 96.7986 119.867 99.2955 119.948C99.3158 119.948 99.3395 119.935 99.4376 119.904V119.907ZM97.7764 146.609C97.932 146.426 98.0572 146.297 98.1621 146.155C98.585 145.57 98.9808 144.968 99.4241 144.399C101.704 141.476 103.176 138.147 104.279 134.645C105.308 131.377 105.054 128.105 104.015 124.898C103.213 122.431 100.419 120.838 97.8982 121.464C95.5062 122.059 93.5743 123.392 92.4747 125.7C91.6661 127.395 91.3548 129.188 91.5477 131.062C91.8149 133.661 92.566 136.127 93.6724 138.472C94.8836 141.036 96.1828 143.56 97.4482 146.101C97.526 146.26 97.641 146.399 97.7798 146.609H97.7764ZM107.436 151.044C107.544 151.027 107.605 151.038 107.632 151.01C107.794 150.845 107.953 150.676 108.099 150.496C111.276 146.619 113.668 142.258 115.857 137.782C116.463 136.54 116.777 135.197 116.811 133.806C116.885 130.832 114.866 128.538 111.902 128.197C111.039 128.095 110.295 128.298 109.642 128.873C107.717 130.572 106.336 132.588 105.988 135.19C105.876 136.019 105.788 136.855 105.788 137.69C105.788 141.987 106.279 146.23 107.253 150.415C107.304 150.632 107.378 150.841 107.439 151.048L107.436 151.044ZM156.119 87.6711C156.399 88.0838 156.629 88.4289 156.873 88.7673C157.553 89.718 158.176 90.7059 158.467 91.8529C158.781 93.0912 159.079 94.3396 159.296 95.5982C159.495 96.7485 159.532 97.9293 159.103 99.0492C158.121 101.607 156.599 103.762 154.336 105.352C154.153 105.481 153.974 105.613 153.791 105.745C153.811 105.796 153.828 105.843 153.848 105.894C154.217 105.806 154.606 105.765 154.955 105.623C155.99 105.203 157.032 104.794 158.027 104.293C159.133 103.735 160.158 103.028 160.96 102.071C161.931 100.91 162.851 99.709 163.768 98.5079C164.533 97.5064 164.952 96.3561 165.105 95.1042C165.328 93.2637 165.067 91.4739 164.489 89.7383C163.687 87.3327 162.831 84.9441 161.965 82.5622C160.882 79.5815 158.971 77.2301 156.389 75.4065C155.763 74.9633 155.134 74.5167 154.535 74.0396C152.61 72.5002 150.705 70.9337 148.773 69.3977C148.1 68.8631 147.406 68.3421 146.669 67.9022C145.417 67.1545 144.094 67.2154 142.781 67.7703C142.636 67.8312 142.524 67.9665 142.355 68.1019C142.511 68.1763 142.568 68.2169 142.633 68.2338C144.767 68.7582 146.649 69.8307 148.459 71.0217C149.856 71.9419 151.192 72.9603 152.532 73.9686C153.994 75.0681 155.266 76.3572 156.21 77.9372C156.775 78.8778 157.404 79.7101 158.372 80.3326C159.779 81.2393 159.999 82.3761 159.272 83.9088C158.663 85.1877 157.803 86.2771 156.714 87.1839C156.538 87.3293 156.359 87.4748 156.115 87.6778L156.119 87.6711ZM97.2249 95.7741C97.0422 95.6896 96.9644 95.632 96.8798 95.6185C94.8193 95.2599 93.016 94.3058 91.2635 93.2265C90.4041 92.6987 89.6428 92.0559 88.9932 91.2811C88.4925 90.6856 88.1068 90.0225 87.914 89.2646C87.4707 87.5323 87.9038 86.0166 89.2064 84.8155C90.1673 83.9291 91.348 83.3742 92.6608 83.2964C95.3471 83.134 97.614 84.078 99.2752 86.2128C100.892 88.2936 101.224 90.689 100.673 93.2299C100.622 93.4633 100.578 93.6968 100.51 94.0351C100.889 93.9539 101.136 93.9133 101.38 93.849C101.968 93.6934 101.995 93.6494 101.911 93.0167C101.806 92.2318 101.671 91.4536 101.593 90.6653C101.495 89.6909 101.457 88.6996 101.779 87.759C101.985 87.1636 101.897 86.6628 101.586 86.1722C101.373 85.8407 101.133 85.5193 100.859 85.2418C98.2433 82.6028 94.9682 81.4288 91.3616 81.0194C90.3229 80.901 89.2741 80.8773 88.2286 80.7927C86.2527 80.6303 84.49 81.1074 83.0183 82.4912C82.7307 82.7618 82.4296 83.019 82.1488 83.2964C81.4383 83.99 81.5431 83.8817 81.8443 84.6565C83.069 87.8267 83.2991 91.0273 82.1014 94.2652C82.0709 94.3498 82.0642 94.4411 82.0371 94.5663C82.1894 94.6779 82.3247 94.7964 82.4803 94.8877C83.7761 95.6388 85.1464 96.214 86.6215 96.5151C89.2707 97.0497 91.9435 97.0361 94.613 96.7722C95.2896 96.7046 95.9494 96.4001 96.6057 96.1734C96.8087 96.1023 96.9779 95.9365 97.2283 95.7708L97.2249 95.7741ZM127.309 66.4237L127.482 66.5015C127.644 66.2884 127.82 66.0786 127.973 65.8587C129.559 63.5783 130.635 61.0645 131.288 58.3748C132.134 54.9001 132.154 51.3713 131.897 47.8323C131.728 45.508 130.781 43.4272 129.678 41.4209C129.275 40.6867 128.639 40.1454 127.746 40.0879C126.369 39.9965 125.161 40.3484 124.319 41.5393C124.133 41.8066 123.933 42.0637 123.754 42.3344C123.378 42.9028 123.375 42.9096 123.815 43.4746C124.437 44.2697 124.826 45.1561 124.769 46.1779C124.701 47.3959 124.85 48.5902 125.08 49.7811C125.354 51.1717 125.648 52.5588 125.916 53.9528C126.23 55.5971 126.447 57.265 126.843 58.8857C127.394 61.1322 127.489 63.3889 127.343 65.6726C127.326 65.923 127.316 66.1734 127.303 66.4237H127.309ZM67.9489 176.071C68.0572 176.304 68.1181 176.48 68.2128 176.632C69.7082 179.136 71.3931 181.508 73.4164 183.619C74.8712 185.142 76.4851 186.464 78.3662 187.449C80.1458 188.379 81.895 188.285 83.6543 187.395C84.375 187.029 84.7878 186.461 84.9231 185.669C85.0517 184.898 84.9941 184.137 84.8419 183.379C84.0739 179.573 81.3807 176.906 77.4933 176.176C74.4483 175.601 71.3762 175.712 68.3075 175.969C68.2196 175.976 68.1316 176.02 67.9557 176.071H67.9489ZM80.9172 82.5081C81.2995 82.1664 81.6142 81.8957 81.9153 81.6115C83.7931 79.8217 86.0328 79.1586 88.5839 79.4394C89.1861 79.5037 89.7883 79.5714 90.3939 79.5747C91.9909 79.5917 93.5472 79.8792 95.0629 80.3394C98.0369 81.236 100.683 82.6773 102.635 85.1877C102.686 85.2554 102.774 85.296 102.834 85.3433C103.308 84.8595 103.731 84.3655 104.222 83.946C104.53 83.6821 104.557 83.4588 104.442 83.1036C104.1 82.0513 103.599 81.0972 102.933 80.2108C102.263 79.3176 101.376 78.915 100.29 78.8947C99.5932 78.8812 98.8929 78.9048 98.1959 78.8812C95.046 78.783 92.1499 77.9101 89.5853 76.0358C89.1759 75.7347 88.7463 75.4302 88.2794 75.2373C86.9226 74.6858 85.5558 74.1513 84.1686 73.6844C82.8085 73.2276 81.4146 73.2851 80.0409 73.6776C78.7756 74.0396 78.0888 74.9497 77.7335 76.1643C77.6016 76.6177 77.6895 76.9933 77.9433 77.4094C78.8399 78.8778 79.6823 80.3766 80.5484 81.8653C80.6533 82.0446 80.7481 82.2239 80.9071 82.5081H80.9172ZM104.208 122.161C104.266 122.002 104.327 121.88 104.354 121.751C104.986 118.94 106.042 116.284 107.321 113.713C108.315 111.71 109.222 109.673 109.946 107.552C110.518 105.877 111.168 104.232 111.736 102.558C112.118 101.434 112.457 100.298 112.744 99.1473C113.597 95.7708 113.81 92.3028 114.162 88.8552C114.186 88.6387 114.145 88.412 114.138 88.2428C113.245 88.0398 112.443 87.8538 111.621 87.6677C111.587 87.8199 111.56 87.9079 111.547 87.9959C111.229 90.2525 110.948 92.516 110.582 94.7659C109.797 99.5736 108.397 104.192 106.187 108.546C104.996 110.891 103.809 113.236 102.604 115.573C101.962 116.818 101.437 118.111 101.041 119.454C100.967 119.711 100.93 119.979 100.876 120.229C101.522 120.523 102.114 120.74 102.655 121.051C103.186 121.359 103.663 121.765 104.205 122.157L104.208 122.161ZM136.106 74.4625C135.879 74.7467 135.758 75.0072 135.555 75.1358C134.398 75.8565 134.448 76.8241 134.932 77.9C134.959 77.9643 134.98 78.0319 135.003 78.0962C136.089 81.1311 137.947 83.6212 140.376 85.7053C141.073 86.3042 141.875 86.7271 142.754 86.9876C146.385 88.0669 150.022 88.2936 153.672 87.0857C153.798 87.0451 153.909 86.9673 154.011 86.9166C153.791 85.976 153.581 85.0794 153.371 84.1862C153.324 84.1659 153.28 84.1321 153.239 84.1321C153.053 84.1321 152.867 84.149 152.681 84.1558C149.494 84.2573 146.49 83.6889 143.759 81.9126C141.993 80.7657 140.379 79.4496 138.877 77.9778C137.926 77.0474 137.053 76.0527 136.414 74.8753C136.36 74.7772 136.282 74.696 136.103 74.4591L136.106 74.4625ZM113.167 39.0492C112.94 38.9747 112.839 38.9172 112.731 38.9105C110.968 38.7853 109.188 38.5586 107.443 38.8969C105.791 39.215 104.499 40.1183 103.745 41.6916C103.521 42.1585 103.521 42.5442 103.833 42.984C104.709 44.2121 105.26 45.5925 105.612 47.0541C105.673 47.3045 105.754 47.5481 105.798 47.7985C105.856 48.1537 106.055 48.2823 106.4 48.3533C107.767 48.6375 109.131 48.9387 110.488 49.2635C112.602 49.771 114.734 50.0856 116.916 50.045C118.012 50.0247 118.97 49.6864 119.798 48.9793C120.137 48.6951 120.475 48.4075 120.776 48.0861C121.507 47.3045 122.218 46.5027 122.928 45.7042C123.283 45.305 123.29 45.2339 123.03 44.7907C122.62 44.0937 122.038 43.5592 121.375 43.1159C120.739 42.6863 120.069 42.3073 119.44 41.8675C117.674 40.6292 115.708 40.2503 113.6 40.4769C113.34 40.504 113.086 40.6021 112.829 40.6664C112.829 40.7205 112.836 40.7747 112.839 40.8322C113.13 40.866 113.421 40.9032 113.712 40.9269C114.879 41.0183 116.019 41.2416 117.102 41.6983C117.84 42.0096 118.516 42.4122 119.047 43.0246C119.944 44.0599 119.968 45.2711 119.118 46.3301C118.614 46.9594 117.975 47.4263 117.247 47.7613C114.744 48.9217 112.23 48.7898 109.736 47.7443C109.232 47.5312 108.776 47.1759 108.343 46.8275C107.74 46.3403 107.256 45.738 106.969 45.0072C106.654 44.202 106.634 43.3968 107.135 42.6693C107.419 42.2532 107.767 41.8472 108.167 41.5461C109.476 40.5615 110.9 39.7732 112.477 39.2928C112.67 39.2353 112.856 39.1574 113.164 39.0492H113.167ZM99.5256 91.342C99.4883 87.7692 97.367 85.2317 94.1393 84.7208C92.989 84.5381 91.9266 84.7343 90.9116 85.3027C89.0643 86.3346 88.5669 88.3207 89.8086 90.036C90.2518 90.645 90.827 91.1897 91.4292 91.6465C92.6777 92.587 94.0716 93.2942 95.54 93.8355C96.3757 94.1434 97.235 94.3125 98.1316 94.3092C98.5647 94.3092 98.8184 94.1366 99.0011 93.7577C99.397 92.9423 99.5086 92.0728 99.5222 91.3386L99.5256 91.342ZM104.387 138.956C104.33 138.939 104.272 138.922 104.218 138.905C104.113 139.105 103.998 139.297 103.907 139.504C103.024 141.571 101.87 143.476 100.51 145.266C99.918 146.044 99.397 146.873 98.8286 147.668C98.5816 148.013 98.5376 148.327 98.7778 148.689C98.9335 148.92 99.0485 149.177 99.1838 149.424C100.348 151.572 101.512 153.721 102.679 155.869C102.73 155.964 102.807 156.048 102.919 156.2C103.129 155.997 103.318 155.835 103.487 155.652C104.262 154.817 105.017 153.957 105.815 153.145C106.221 152.733 106.306 152.34 106.164 151.775C105.172 147.79 104.53 143.746 104.448 139.629C104.445 139.406 104.411 139.179 104.391 138.956H104.387ZM155.242 79.0469C155.09 78.7898 154.975 78.5665 154.836 78.3567C153.987 77.0542 152.898 75.9783 151.663 75.0445C150.807 74.3982 149.91 73.8129 149.064 73.1566C147.735 72.1246 146.283 71.2991 144.795 70.5176C143.333 69.7495 141.787 69.4011 140.176 69.2894C139.655 69.2522 139.1 69.3199 138.596 69.4586C137.581 69.7326 137.053 70.4499 137.01 71.5021C136.996 71.8032 137.026 72.1077 137.067 72.4055C137.256 73.7148 137.859 74.8313 138.732 75.8057C140.579 77.8628 142.656 79.6356 145.035 81.06C147.45 82.5081 150.086 82.8735 152.83 82.7483C153.141 82.7348 153.469 82.6096 153.743 82.4573C154.2 82.2036 154.325 81.7671 154.072 81.3239C153.787 80.8266 153.415 80.3867 152.911 80.0416C152.316 80.6506 151.629 81.06 150.817 81.1277C150.15 81.1852 149.464 81.1683 148.804 81.0702C147.197 80.8266 145.728 80.1431 144.311 79.3887C142.166 78.2485 140.362 76.6786 138.803 74.8279C138.292 74.2223 137.882 73.5321 137.723 72.7404C137.575 72.0096 137.903 71.4953 138.63 71.3397C138.965 71.2687 139.324 71.2619 139.669 71.2788C142.233 71.4074 144.625 72.1145 146.777 73.522C149.271 75.1527 151.785 76.7564 153.848 78.9488C154.38 79.5105 154.386 79.5037 155.236 79.0469H155.242ZM125.574 81.4626C125.625 81.4863 125.672 81.51 125.723 81.5337C125.858 81.4187 125.997 81.3036 126.132 81.1852C127.228 80.2514 128.314 79.3007 129.431 78.3906C130.422 77.582 131.444 76.8072 132.472 76.0493C132.895 75.738 133.007 75.3794 133.014 74.8651C133.027 73.6607 133.054 72.4427 133.224 71.2517C133.427 69.824 133.981 68.5214 135.057 67.4929C135.098 67.4523 135.101 67.3711 135.125 67.2899C134.99 67.185 134.861 67.0936 134.739 66.9887C134.178 66.5083 133.596 66.5455 133.007 66.9278C132.716 67.1173 132.398 67.2865 132.151 67.5267C131.42 68.2406 130.645 68.924 130.023 69.7259C128.565 71.6104 127.428 73.6945 126.457 75.87C125.658 77.6598 125.675 79.568 125.574 81.4593V81.4626ZM117.305 78.3973C117.048 78.377 116.845 78.3669 116.642 78.3432C115.745 78.2248 114.835 78.1639 113.955 77.9677C112.984 77.7511 112.041 77.406 111.083 77.1184C110.846 77.0474 110.609 76.9933 110.261 76.9053C110.18 77.5617 110.068 78.1267 110.044 78.6985C110.007 79.6729 109.98 80.654 110.034 81.625C110.078 82.3829 110.23 83.1408 110.373 83.8885C110.687 85.5396 111.75 86.4023 113.36 86.6662C113.384 86.6696 113.404 86.6764 113.428 86.6831C113.803 86.7846 114.155 86.717 114.51 86.5647C115.982 85.9253 116.879 84.7918 117.281 83.2727C117.708 81.6656 117.423 80.0518 117.302 78.4007L117.305 78.3973ZM142.971 170.566C142.731 170.492 142.646 170.444 142.562 170.444C141.239 170.444 139.906 170.363 138.59 170.471C136.81 170.617 135.223 171.338 133.829 172.461C132.422 173.594 131.772 175.12 131.552 176.869C131.491 177.35 131.688 177.675 132.121 177.881C132.794 178.199 133.504 178.263 134.232 178.202C135.105 178.131 135.907 177.837 136.671 177.417C138.583 176.365 140.142 174.927 141.364 173.124C141.909 172.319 142.399 171.48 142.971 170.566ZM127.032 105.542C126.01 107.711 125.283 109.808 125.198 112.078C125.185 112.464 125.283 112.863 125.398 113.236C125.479 113.489 125.638 113.75 125.831 113.936C126.947 115.022 129.17 115.201 130.324 114.518C131.924 113.564 133.339 112.437 134.354 110.84C135 109.825 134.956 109.72 133.768 109.382C132.787 109.101 131.819 108.763 130.859 108.418C129.583 107.961 128.524 107.183 127.631 106.168C127.469 105.982 127.286 105.809 127.029 105.542H127.032ZM82.9608 115.891C82.9608 116.399 82.9506 116.697 82.9608 116.994C83.0217 118.483 82.9946 119.965 82.7205 121.44C82.5818 122.191 82.5412 122.963 82.5175 123.727C82.4905 124.566 82.7814 125.328 83.2416 126.021C84.0265 127.205 85.7182 127.226 86.5099 126.041C86.882 125.483 87.1899 124.878 87.4877 124.275C88.4215 122.404 89.335 120.527 90.2552 118.649C90.2891 118.578 90.2789 118.48 90.2958 118.314C87.5858 118.459 85.2953 117.36 82.9574 115.895L82.9608 115.891ZM121.977 41.5122C122.028 41.3025 122.062 41.2179 122.072 41.1299C122.309 39.3063 121.548 37.8988 120.167 36.8128C118.55 35.5373 116.696 34.7523 114.663 34.414C114.324 34.3565 113.952 34.3294 113.627 34.4106C111.509 34.9181 109.476 35.6252 107.747 37.0192C107.629 37.1139 107.527 37.2256 107.351 37.388C107.531 37.4116 107.615 37.4353 107.7 37.4353C108.86 37.4353 110.024 37.4083 111.185 37.4319C114.169 37.4895 117 38.0917 119.508 39.8138C120.157 40.2604 120.81 40.7104 121.46 41.157C121.605 41.2585 121.754 41.36 121.977 41.519V41.5122ZM112.352 42.1517L112.342 42.2194C111.969 42.2194 111.594 42.1821 111.229 42.2261C110.609 42.3039 109.977 42.3682 109.381 42.5509C108.153 42.9265 107.818 43.9753 108.552 45.0174C109.016 45.6771 109.618 46.2083 110.359 46.5094C112.372 47.3282 114.419 47.4669 116.459 46.594C116.838 46.4316 117.19 46.188 117.528 45.9478C117.735 45.8023 117.914 45.6095 118.066 45.4065C118.435 44.926 118.435 44.476 118.043 44.0091C117.836 43.7655 117.589 43.5186 117.308 43.3798C116.706 43.0855 116.094 42.7675 115.448 42.6254C114.433 42.3987 113.387 42.3039 112.352 42.1551V42.1517ZM139.09 72.6694C139.202 73.319 139.55 73.6708 139.872 74.0261C141.13 75.4065 142.511 76.6583 144.091 77.653C145.61 78.6105 147.244 79.3481 149.024 79.7033C149.714 79.842 150.411 79.886 151.088 79.6289C151.94 79.3041 152.028 78.9285 151.304 78.4041C149.555 77.1354 147.799 75.87 146.006 74.6723C144.148 73.4306 142.061 72.8284 139.841 72.6727C139.618 72.6558 139.391 72.6727 139.094 72.6727L139.09 72.6694ZM103.352 93.0742C103.538 93.037 103.633 93.037 103.714 93.0032C104.902 92.4957 105.974 91.8123 106.817 90.8176C107.734 89.7349 108.231 88.4831 108.278 87.0621C108.309 86.1621 107.957 85.4347 107.233 84.9001C106.465 84.3317 105.788 84.3182 105.03 85.0253C104.015 85.9726 103.268 87.1399 103.021 88.5338C102.75 90.0428 103.054 91.5281 103.352 93.0776V93.0742ZM104.645 49.6458C103.975 49.4969 103.403 49.6153 102.851 49.7777C101.938 50.045 101.024 50.3292 100.131 50.654C98.5545 51.2224 98.2602 51.6758 98.2906 53.3471C98.294 53.5332 98.3042 53.7193 98.3312 53.902C98.4598 54.7309 98.876 55.1843 99.7049 55.367C100.767 55.6004 101.688 55.2858 102.462 54.555C103.234 53.831 103.833 52.9716 104.262 52.004C104.587 51.2732 104.702 50.4984 104.648 49.6424L104.645 49.6458ZM155.303 80.5864C155.381 80.8875 155.418 81.0668 155.472 81.2393C155.648 81.8077 155.621 82.3863 155.249 82.8329C154.806 83.3641 154.819 83.9359 154.894 84.5381C154.972 85.1505 155.053 85.7696 155.489 86.3752C156.775 85.3738 157.753 84.2167 158.233 82.6806C158.355 82.2848 158.172 81.9566 157.878 81.6859C157.32 81.1717 156.67 80.8266 155.943 80.627C155.777 80.583 155.591 80.5999 155.303 80.583V80.5864ZM80.6939 85.5226C80.6296 85.5125 80.5687 85.5023 80.5045 85.4956C80.4334 85.6072 80.3319 85.7087 80.2947 85.8271C79.9868 86.7779 79.6316 87.7184 79.4083 88.6894C79.0192 90.3676 79.5233 91.8596 80.5451 93.2028C80.6161 93.2975 80.7447 93.3517 80.9409 93.4972C81.7664 90.7296 81.6243 88.1109 80.6939 85.5226ZM137.27 68.6263C136.678 68.2541 136.35 68.2338 135.944 68.6195C135.646 68.9003 135.392 69.2522 135.203 69.6142C134.533 70.8796 134.387 72.2667 134.367 73.6708C134.367 73.8197 134.418 73.9652 134.472 74.2798C134.898 73.7926 135.257 73.434 135.545 73.0246C135.72 72.7742 135.856 72.4494 135.886 72.1449C136.015 70.8559 136.204 69.6007 137.27 68.6229V68.6263ZM102.912 40.23C102.862 40.1961 102.811 40.1657 102.76 40.1318C102.54 40.2739 102.249 40.3551 102.246 40.6969C102.246 40.7713 102.378 40.8457 102.513 40.9912C102.672 40.6901 102.79 40.46 102.909 40.2333L102.912 40.23Z" fill="#47567B"/>
</svg>
