<svg width="215" height="237" viewBox="0 0 215 237" fill="none" xmlns="http://www.w3.org/2000/svg">
<path d="M17.8277 174.252C18.2693 174.252 18.5005 174.514 18.704 174.776C19.0559 175.228 19.3906 175.694 19.7183 176.163C20.8879 177.857 22.2989 179.313 23.948 180.541C24.1343 180.679 24.3275 180.807 24.5518 180.966C25.4764 179.737 26.4389 178.596 27.0703 177.202C28.3502 174.362 29.2438 171.399 30.058 168.408C31.024 164.865 31.9313 161.308 32.9146 157.771C33.7598 154.739 34.3187 151.648 34.9363 148.57C35.3986 146.262 35.8436 143.944 36.3887 141.653C36.7303 140.211 37.234 138.807 37.6825 137.392C37.8998 136.706 38.1482 136.033 38.4035 135.302C38.2207 135.274 38.0827 135.243 37.9481 135.236C37.165 135.188 36.6233 134.798 36.3611 134.066C36.0748 133.269 35.7574 132.476 35.885 131.627C34.3946 130.737 33.884 129.688 34.2014 128.232C34.5119 126.818 35.6746 125.728 37.1063 125.548C37.0856 125.41 37.0753 125.272 37.0477 125.138C36.8717 124.248 37.0615 123.447 37.6652 122.768C37.8377 122.574 37.8964 122.388 37.8826 122.14C37.8067 120.591 37.7515 119.045 37.6687 117.496C37.5445 115.223 37.6273 112.956 37.786 110.686C37.9688 108.06 38.162 105.435 38.3518 102.809C38.5967 99.4181 38.6623 96.0267 38.4242 92.6319C38.407 92.4077 38.3725 92.1869 38.3414 91.9212C38.131 91.9661 37.9895 91.9971 37.8481 92.0247C36.8752 92.2041 36.061 91.6625 35.8712 90.6861C35.747 90.041 35.8402 89.4165 36.1403 88.83C36.644 87.8399 37.8032 87.7019 38.3897 88.6196C38.4449 88.7058 38.5208 88.7817 38.6554 88.9473C38.9762 88.2539 39.2212 87.6122 39.2695 86.9153C39.3799 85.3697 39.4696 83.8241 39.5662 82.275C39.8387 77.8728 39.5075 73.4948 39.0935 69.1167C38.8762 66.8328 38.6623 64.5524 38.6864 62.2547C38.6968 61.1714 38.7382 60.0846 39.0314 59.0324C39.4903 57.3867 40.5011 56.2862 42.2365 55.9619C43.3439 55.7549 44.4583 55.6134 45.5899 55.6376C48.029 55.6893 50.4716 55.6962 52.9108 55.7756C54.7979 55.8377 56.6816 56.0447 58.5688 56.0688C60.8906 56.0964 63.178 56.4207 65.4791 56.6622C68.3185 56.9589 71.1613 56.8175 73.9903 56.4725C74.494 56.4104 74.9942 56.2724 75.4979 56.2379C76.0844 56.1965 76.6813 56.1827 77.2643 56.2448C77.6128 56.2827 77.875 56.2482 78.1337 56.0171C78.3856 55.7928 78.6754 55.61 78.9445 55.3995C80.321 54.3231 81.8735 54.0264 83.5675 54.3507C84.9578 54.6164 86.2343 55.1684 87.4936 55.9584C87.4832 55.779 87.4832 55.6479 87.4694 55.5168C87.359 54.5612 87.6178 53.7021 88.1905 52.9466C89.1461 51.6942 90.6779 51.7805 91.499 53.1156C91.5439 53.1846 91.5922 53.2502 91.6888 53.3847C92.2891 52.7741 93.0205 52.574 93.8692 52.7189C93.8899 52.4739 93.8968 52.2876 93.9244 52.1048C94.0486 51.3251 94.3763 50.6592 95.1526 50.3798C95.9426 50.0934 96.6637 50.3522 97.264 50.9042C97.7297 51.332 98.0195 51.8702 98.1403 52.4946C98.1886 52.743 98.2162 52.9983 98.2783 53.2467C98.3783 53.6538 98.6405 53.8746 99.1442 53.847C99.0097 53.5952 98.8855 53.3399 98.7406 53.0915C98.4542 52.6085 98.3749 52.1013 98.5129 51.5597C98.7199 50.7351 99.2719 50.3315 100.11 50.4626C101.076 50.6144 101.921 51.0491 102.636 51.7184C102.774 51.846 102.894 51.9909 103.022 52.1255C104.53 50.9456 106.493 51.0491 107.814 53.1087C108.252 53.2088 108.673 53.226 109.018 53.3951C109.584 53.6745 109.881 54.2162 109.963 54.8303C110.019 55.2374 110.177 55.472 110.519 55.7307C110.923 56.0343 111.326 56.1309 111.792 56.2034C112.399 56.3 113.003 56.4345 113.593 56.6001C114.134 56.7519 114.68 56.8416 115.228 56.745C117.643 56.3207 120.048 56.5001 122.456 56.8071C124.65 57.0866 126.858 57.1107 129.066 57.128C130.57 57.1383 132.074 57.2418 133.579 57.3005C133.81 57.3108 134.048 57.3281 134.276 57.3005C135.921 57.1211 137.563 56.921 139.209 56.7519C139.906 56.6795 140.606 56.6243 141.307 56.6346C143.384 56.6622 145.471 56.5173 147.537 56.8244C149.511 57.1142 151.481 57.4247 153.454 57.7041C153.979 57.7766 154.51 57.7904 155.041 57.8007C156.059 57.8145 157.08 57.78 158.098 57.8214C158.667 57.8421 159.25 57.9077 159.792 58.0698C161.189 58.4873 162.165 59.3843 162.528 60.8298C163.156 63.3276 163.58 65.853 163.497 68.4474C163.476 69.0822 163.528 69.7205 163.594 70.3518C163.794 72.2942 164.008 74.2331 164.239 76.172C164.401 77.5416 164.605 78.9078 164.791 80.274C164.808 80.3948 164.843 80.5155 164.867 80.6294C166.34 80.657 167.24 81.4884 167.848 82.6856C168.237 83.4584 168.048 84.3416 167.471 84.9246C166.768 85.6353 165.688 85.6836 164.939 85.0212C164.787 84.8867 164.691 84.6831 164.57 84.5106C164.518 84.5382 164.467 84.5658 164.415 84.5934C164.353 84.7625 164.28 84.9281 164.235 85.1006C163.77 86.829 163.532 88.5954 163.352 90.3687C163.031 93.5807 162.745 96.7926 162.4 100.001C161.903 104.614 161.779 109.233 162.034 113.863C162.121 115.412 162.203 116.958 162.286 118.507C162.317 119.055 162.717 119.369 163.259 119.249C163.794 119.128 164.311 119.145 164.812 119.383C165.602 119.756 166.047 120.453 165.978 121.326C165.953 121.622 166.009 121.85 166.174 122.091C166.54 122.626 166.557 123.247 166.523 123.903C167.575 124.506 168.003 125.431 167.796 126.639C168.734 127.132 169.165 127.887 169.021 128.902C168.855 130.061 168.258 130.865 166.982 131.003C167.023 131.165 167.047 131.265 167.075 131.365C167.333 132.248 167.168 133.062 166.588 133.756C166.333 134.06 166.305 134.311 166.416 134.67C167.42 137.896 167.934 141.198 167.961 144.575C167.975 146.083 167.954 147.59 167.968 149.095C168.013 153.21 168.569 157.261 169.579 161.249C169.942 162.677 170.452 164.037 171.115 165.354C172.346 167.8 173.557 170.257 174.741 172.727C175.086 173.452 175.306 174.235 175.576 174.99C175.658 175.225 175.724 175.466 175.814 175.77C176.076 175.642 176.283 175.553 176.483 175.446C178.08 174.59 179.546 173.538 180.978 172.441C183.573 170.45 186.115 168.394 188.541 166.2C189.217 165.589 189.879 164.958 190.517 164.302C192.957 161.801 194.768 158.91 195.844 155.574C195.924 155.332 196.006 155.087 196.131 154.866C196.303 154.563 196.614 154.463 196.89 154.563C197.179 154.67 197.317 154.932 197.262 155.287C197.242 155.412 197.193 155.532 197.155 155.653C195.972 159.438 193.933 162.705 191.128 165.492C188.744 167.863 186.15 169.988 183.517 172.068C182.434 172.924 181.334 173.755 180.226 174.58C176.907 177.05 173.178 178.533 169.103 179.196C163.563 180.096 158.001 180.286 152.412 179.758C148.445 179.386 144.543 178.716 140.772 177.395C132.999 174.673 126.092 170.564 120.348 164.595C120.244 164.488 120.137 164.385 120.027 164.288C119.999 164.264 119.951 164.264 119.858 164.237C119.744 164.382 119.61 164.54 119.485 164.706C117.94 166.817 116.201 168.766 114.417 170.674C113.355 171.809 112.185 172.827 110.926 173.734C109.17 175.001 107.397 176.246 105.637 177.509C104.819 178.095 103.94 178.544 102.97 178.823C102.646 178.916 102.38 178.854 102.166 178.606C102.056 178.478 101.953 178.34 101.87 178.192C99.4823 173.955 97.157 169.688 95.6114 165.047C95.1836 163.757 94.7696 162.463 94.3453 161.173C94.2832 160.98 94.2038 160.794 94.0934 160.504C93.8243 160.783 93.6242 160.99 93.4241 161.201C84.5231 170.585 74.0972 177.726 62.036 182.439C57.2923 184.291 52.4036 185.613 47.3494 186.282C44.9275 186.603 42.4918 186.72 40.0457 186.717C37.6963 186.713 35.402 186.279 33.0871 186.006C28.9505 184.888 25.021 183.357 21.7814 180.424C20.5808 179.337 19.4975 178.144 18.6074 176.788C18.3073 176.329 18.0727 175.825 17.8381 175.328C17.6863 174.997 17.6345 174.638 17.8139 174.245L17.8277 174.252ZM154.755 121.319C154.682 121.281 154.575 121.212 154.462 121.174C152.461 120.532 150.484 119.801 148.452 119.283C146.847 118.873 145.333 118.296 143.922 117.468C141.303 115.937 138.688 114.391 136.111 112.787C131.83 110.123 127.841 107.063 123.953 103.862C121.328 101.702 118.751 99.4905 116.387 97.0445C112.999 93.5393 110.088 89.696 108.038 85.2489C106.714 82.3751 105.413 79.4943 104.112 76.6101C103.412 75.0611 102.808 73.4741 102.408 71.8181C102.384 71.7111 102.322 71.6145 102.215 71.3661C102.091 71.7525 102.011 71.9871 101.939 72.2252C100.121 78.1799 97.4261 83.7206 93.883 88.8335C90.8608 93.1943 87.8144 97.5413 84.6853 101.83C82.1288 105.331 79.7276 108.933 77.3333 112.538C76.2155 114.222 75.077 115.881 73.6763 117.344C72.1169 118.966 70.5886 120.629 68.7428 121.936C66.6625 123.413 64.5097 124.765 62.143 125.755C61.3081 126.104 60.5249 126.594 59.7383 127.049C58.5274 127.753 57.3371 128.488 56.1331 129.205C55.2602 129.73 54.346 129.992 53.342 129.595C53.3075 129.581 53.2592 129.602 53.173 129.612C53.1661 129.792 53.1661 129.978 53.1454 130.164C53.1074 130.544 53.1074 130.934 53.0108 131.3C52.7797 132.162 52.3036 132.859 51.4169 133.142C51.0547 133.259 50.7752 133.435 50.551 133.708C50.7269 134.743 50.7166 135.16 50.3509 135.695C50.1025 136.057 50.0162 136.43 50.0783 136.837C50.2267 137.823 50.3854 138.807 50.551 139.79C51.0305 142.657 51.5549 145.52 51.9793 148.394C52.2484 150.205 52.5416 151.999 53.1833 153.721C53.7836 155.336 54.4978 156.898 55.3361 158.403C56.9059 161.218 58.0754 164.185 58.7654 167.345C59.3105 169.833 60.0074 172.285 60.9217 174.669C61.2943 175.642 61.6255 176.629 61.6841 177.681C61.691 177.785 61.7117 177.895 61.7531 177.988C62.0533 178.685 61.9946 179.399 61.8635 180.117C61.8014 180.465 61.7152 180.807 61.622 181.242C61.936 181.124 62.1706 181.045 62.4017 180.952C69.626 178.064 76.2811 174.19 82.4462 169.456C86.293 166.5 89.8603 163.236 93.1516 159.669C93.538 159.251 93.6794 158.896 93.4724 158.327C93.1792 157.513 92.9584 156.66 92.7824 155.812C92.1683 152.859 91.8026 149.86 91.5232 146.862C90.9988 141.222 91.3852 135.619 92.6375 130.092C93.3448 126.963 94.6454 124.058 96.2393 121.284C96.5533 120.736 96.9638 120.235 97.3778 119.756C98.0885 118.931 98.9131 118.234 99.8791 117.71C100.748 117.237 101.67 117.068 102.649 117.192C104.675 117.444 106.365 118.345 107.707 119.873C107.935 120.132 108.1 120.484 108.197 120.818C109.156 124.141 109.456 127.525 109.101 130.968C109.077 131.189 109.073 131.41 109.06 131.631C109.246 131.51 109.329 131.372 109.391 131.224C110.17 129.437 111.236 127.836 112.499 126.356C113.096 125.655 113.748 125 114.583 124.607C115.635 124.11 116.698 123.575 117.812 123.275C119.996 122.681 122.063 122.995 123.86 124.496C124.771 125.259 125.468 126.187 126.03 127.222C127.175 129.326 127.962 131.565 128.455 133.901C129.132 137.106 128.973 140.321 128.507 143.53C128.159 145.931 127.434 148.242 126.699 150.55C125.337 154.849 123.494 158.91 120.934 162.632C120.841 162.767 120.772 162.922 120.7 163.053C122.508 165.472 128.169 169.971 132.313 172.237C135.607 174.042 139.037 175.542 142.656 176.677C142.838 176.305 143.008 176.011 143.132 175.698C143.422 174.97 143.694 174.231 143.97 173.496C144.75 171.409 145.533 169.325 146.302 167.231C146.747 166.017 147.189 164.799 147.586 163.571C147.848 162.763 148.038 161.935 148.252 161.114C148.983 158.334 149.404 155.508 149.504 152.627C149.59 150.147 149.714 147.666 149.866 145.186C149.99 143.15 150.242 141.135 150.846 139.169C151.708 136.364 152.664 133.601 153.899 130.937C154.003 130.713 154.068 130.523 153.885 130.296C153.195 129.443 153.037 128.519 153.589 127.518C153.496 127.453 153.43 127.401 153.361 127.36C152.354 126.725 151.981 125.776 152.078 124.638C152.16 123.689 152.792 123.102 153.74 123.009C153.947 122.988 154.158 122.985 154.355 122.971C154.489 122.412 154.617 121.884 154.755 121.319ZM147.31 100.118C147.344 99.9218 147.368 99.7596 147.403 99.6009C147.727 98.076 147.71 96.5649 147.203 95.078C147.061 94.6571 146.868 94.2569 146.699 93.8463C145.906 91.9247 145.105 90.0065 144.319 88.0814C142.569 83.8034 141.697 79.3563 141.693 74.7333C141.693 72.0147 141.759 69.2961 142.028 66.5913C142.207 64.787 141.914 63.0378 141.493 61.2956C141.389 60.8678 141.151 60.5745 140.751 60.4055C140.575 60.3296 140.403 60.2502 140.22 60.195C136.673 59.1324 133.106 58.2251 129.346 58.3838C126.989 58.4838 124.633 58.332 122.287 58.0836C121.103 57.9594 119.924 57.8352 118.737 57.7524C117.978 57.7007 117.219 57.7662 116.377 57.9353C116.567 58.1147 116.687 58.2216 116.805 58.3355C117.557 59.0807 118.371 59.7776 119.047 60.5849C121 62.9274 122.646 65.4701 123.839 68.2922C124.916 70.8348 126.116 73.3188 127.434 75.7476C129.308 79.2011 131.195 82.6442 133.486 85.8458C134.883 87.795 136.194 89.8064 137.584 91.7591C142.58 98.7833 147.603 105.787 152.592 112.814C153.82 114.543 154.972 116.327 156.138 118.103C156.456 118.59 156.683 119.135 156.977 119.701C157.128 119.501 157.246 119.328 157.377 119.169C157.525 118.99 157.649 118.755 157.843 118.655C158.602 118.255 158.529 117.637 158.346 116.975C158.26 116.668 158.156 116.368 158.084 116.057C157.877 115.191 157.622 114.332 157.491 113.453C157.301 112.173 157.215 110.879 157.059 109.592C156.504 105.011 156.297 100.415 156.242 95.8025C156.207 92.9597 156.049 90.1203 155.862 87.2844C155.776 85.9769 155.479 84.6831 155.293 83.3825C155.148 82.3751 155.107 81.3435 154.879 80.3568C154.199 77.4002 153.444 74.4608 152.74 71.5076C152.574 70.8107 152.485 70.0931 152.398 69.3789C152.371 69.1374 152.426 68.8683 152.505 68.6303C152.678 68.1162 153.102 67.8989 153.613 68.0714C153.889 68.1645 154.158 68.3129 154.403 68.4785C155.431 69.1685 156.083 70.1448 156.469 71.304C156.994 72.8807 157.339 74.4953 157.501 76.1513C157.673 77.9108 157.622 79.6737 157.515 81.4332C157.315 84.8487 157.18 88.2608 157.397 91.6797C157.48 92.9942 157.522 94.3086 157.525 95.6265C157.529 99.2594 157.656 102.885 158.008 106.504C158.212 108.595 158.37 110.696 158.681 112.773C158.926 114.426 159.367 116.054 159.726 117.689C159.747 117.782 159.816 117.882 159.892 117.938C160.237 118.193 160.596 118.434 160.989 118.71C160.999 118.51 161.02 118.328 161.01 118.145C160.968 117.362 160.916 116.575 160.872 115.792C160.585 111.017 160.506 106.246 160.996 101.478C161.386 97.6758 161.724 93.8705 162.11 90.0686C162.359 87.6156 162.752 85.1868 163.604 82.8546C163.68 82.6442 163.714 82.3958 163.697 82.1715C163.618 81.2193 163.528 80.2671 163.414 79.3184C163.121 76.9172 162.793 74.5194 162.517 72.1182C162.376 70.8762 162.234 69.6239 162.245 68.3784C162.269 65.9358 161.9 63.5588 161.317 61.2024C161.034 60.0674 160.233 59.4636 159.14 59.2152C158.791 59.1359 158.426 59.1048 158.067 59.0979C157.111 59.0807 156.155 59.1014 155.2 59.0807C154.524 59.0669 153.841 59.0496 153.171 58.9565C151.615 58.7426 150.066 58.4942 148.514 58.2389C145.795 57.7938 143.052 57.8973 140.317 57.9387C139.623 57.9491 138.933 58.0422 138.25 58.2216C138.443 58.3424 138.636 58.401 138.833 58.4631C139.64 58.7219 140.458 58.953 141.251 59.2497C141.986 59.5257 142.487 60.0605 142.683 60.8436C143.177 62.7894 143.487 64.7456 143.287 66.7673C143.008 69.579 142.939 72.4011 142.966 75.2267C142.994 78.1316 143.432 80.9778 144.181 83.7792C144.833 86.208 145.864 88.4919 146.868 90.7896C147.413 92.0316 147.917 93.2978 148.369 94.5743C148.786 95.7611 148.986 96.9962 148.959 98.2658C148.948 98.8523 148.69 99.3318 148.362 99.7769C148.12 100.101 147.772 100.232 147.31 100.125V100.118ZM43.7717 121.308C43.9511 121.512 44.1098 121.553 44.2754 121.363C44.3996 121.219 44.5342 121.081 44.6342 120.918C45.407 119.673 46.1902 118.438 46.9319 117.175C48.2981 114.853 49.4677 112.418 50.9822 110.179C51.2306 109.809 51.4273 109.406 51.6239 109.006C53.1385 105.894 54.1079 102.592 54.7979 99.218C55.2085 97.2032 55.3741 95.1401 55.7122 93.1115C56.5022 88.4057 57.8201 83.9034 60.518 79.8704C62.7329 76.5549 64.3889 72.9462 65.6654 69.165C66.1864 67.616 66.7349 66.0773 67.28 64.5351C67.3559 64.3178 67.4525 64.1004 67.5836 63.9072C67.7251 63.6968 67.9528 63.6209 68.2046 63.6899C68.4806 63.7658 68.6393 63.9728 68.6428 64.2488C68.6428 64.4351 68.591 64.6248 68.5289 64.8042C67.9873 66.3705 67.4387 67.9299 66.8936 69.4962C66.0932 71.8043 65.2204 74.0882 64.0577 76.241C63.0986 78.0143 62.0636 79.7462 61.0286 81.4746C60.2869 82.7166 59.5555 83.9621 59.0587 85.3214C58.0099 88.2021 57.175 91.145 56.8472 94.1982C56.4194 98.1623 55.6052 102.033 54.3115 105.807C53.618 107.822 52.7728 109.758 51.6308 111.565C50.9305 112.676 50.275 113.822 49.6264 114.964C48.5051 116.937 47.4805 118.969 46.166 120.829C46.1143 120.905 46.097 121.005 46.0522 121.125C46.5386 121.177 46.9768 121.222 47.446 121.274C47.5391 121.067 47.6219 120.877 47.7116 120.687C48.3671 119.259 49.0399 117.838 49.9748 116.565C50.7787 115.471 51.5894 114.377 52.4036 113.29C54.3184 110.744 56.2124 108.185 57.9167 105.49C59.5762 102.865 61.108 100.177 62.212 97.2618C62.8226 95.6541 63.4436 94.0533 64.0646 92.4491C66.0967 87.2016 67.9942 81.9093 69.5501 76.4997C70.3816 73.6052 71.1475 70.6865 72.0272 67.8057C73.1174 64.2453 74.4491 60.7815 76.4915 57.6351C76.5226 57.5868 76.5191 57.5178 76.5467 57.3867C76.2673 57.4143 76.0189 57.4178 75.7774 57.4661C72.8035 58.0767 69.7847 58.0733 66.7694 58.0664C66.4313 58.0664 66.0898 58.025 65.7551 57.9836C63.2056 57.6765 60.6629 57.3488 58.0823 57.3281C56.3435 57.3143 54.6082 57.1038 52.8694 57.0486C50.4716 56.9727 48.0739 56.9244 45.6727 56.9313C44.6377 56.9313 43.5992 57.0659 42.5711 57.197C41.2774 57.3626 40.546 58.1802 40.232 59.3981C40.1147 59.8466 40.0526 60.3158 40.0112 60.7781C39.8491 62.6238 39.9491 64.4696 40.0975 66.3119C40.2941 68.7648 40.5805 71.2143 40.7116 73.6742C40.8496 76.2582 40.8668 78.8492 40.9013 81.4401C40.9117 82.3509 40.7495 83.2652 40.7668 84.1725C40.8013 86.0045 40.5391 87.7674 39.7904 89.4476C39.6455 89.7719 39.6317 90.0824 39.7111 90.4343C40.1354 92.3076 40.2941 94.2017 40.1251 96.1268C39.9353 98.283 39.7835 100.443 39.6248 102.602C39.4282 105.269 39.2315 107.936 39.0452 110.606C38.8831 112.959 38.783 115.312 38.9348 117.669C39.0107 118.876 39.0521 120.084 39.1142 121.295C39.1211 121.433 39.1418 121.57 39.1729 121.829C39.4075 121.615 39.5558 121.481 39.7042 121.343C40.7944 120.325 41.3429 119.031 41.5568 117.589C41.7776 116.078 41.926 114.557 42.1502 113.046C42.6401 109.761 42.823 106.463 42.8713 103.144C42.8954 101.533 43.0196 99.9183 43.1956 98.3175C43.5061 95.5299 43.7476 92.7423 43.6027 89.9306C43.5406 88.7438 43.4957 87.5535 43.5199 86.3667C43.5578 84.4589 43.6372 82.5476 43.7441 80.6432C43.8649 78.4835 43.9235 76.3065 44.2168 74.1675C44.5756 71.5628 45.1379 68.9891 45.6382 66.405C45.8279 65.4218 46.1729 64.4799 46.6594 63.6036C46.8422 63.2724 47.0561 62.9412 47.3218 62.6756C48.0911 61.9097 49.2641 62.1719 49.6505 63.1827C49.754 63.4587 49.8196 63.7554 49.861 64.0452C50.0507 65.4218 50.0093 66.7983 49.7575 68.168C49.3228 70.5623 48.5189 72.8427 47.5736 75.0749C47.3425 75.62 47.0837 76.1651 46.925 76.7343C46.4558 78.4076 46.028 80.0946 45.583 81.7782C45.476 82.1888 45.3518 82.5959 45.269 83.0099C45.1621 83.5481 45.0172 84.0897 45.0068 84.6348C44.9723 86.6945 45.0241 88.7541 44.9689 90.8138C44.9206 92.6802 44.8481 94.5501 44.6549 96.4028C44.3548 99.2766 44.1167 102.15 44.0822 105.042C44.0615 106.739 43.9477 108.436 43.7993 110.127C43.6475 111.859 43.4302 113.587 43.1921 115.312C43.0265 116.509 42.8195 117.703 42.5608 118.883C42.3193 119.977 41.8328 120.963 41.0221 121.767C40.9462 121.843 40.9117 121.96 40.8323 122.102C41.1083 122.119 41.3153 122.133 41.5085 122.147C41.65 121.978 41.7466 121.791 41.8984 121.695C42.3434 121.408 42.5366 120.974 42.7057 120.511C42.785 120.291 42.8747 120.077 42.9541 119.856C44.2375 116.413 45.583 113.004 47.3356 109.761C49.1227 106.453 49.9507 102.878 49.9921 99.111C50.0093 97.4136 50.03 95.7093 50.1818 94.0223C50.4544 90.9587 50.8339 87.902 51.1582 84.8418C51.5032 81.6057 52.3691 78.5145 53.618 75.5165C54.967 72.2804 56.4884 69.1271 58.0547 65.9945C58.1099 65.8806 58.172 65.7668 58.2514 65.6667C58.4446 65.4252 58.7033 65.339 58.9897 65.4666C59.2795 65.5943 59.3899 65.8565 59.3174 66.1532C59.2519 66.4188 59.1346 66.6707 59.0173 66.9191C57.8374 69.4134 56.623 71.8905 55.4845 74.4056C54.2114 77.2139 53.1074 80.0946 52.6865 83.172C52.2932 86.0528 51.8999 88.937 51.6446 91.8315C51.4135 94.4501 51.3928 97.0893 51.2272 99.7148C51.1409 101.067 51.0133 102.426 50.7821 103.762C50.2991 106.529 49.202 109.085 47.8669 111.538C46.9423 113.239 46.1557 114.998 45.476 116.813C44.962 118.186 44.4307 119.549 43.9097 120.918C43.858 121.053 43.8166 121.191 43.7752 121.312L43.7717 121.308ZM48.7811 123.354C49.3124 123.216 49.8196 123.082 50.3302 122.954C50.6717 122.871 50.8718 122.674 50.9719 122.326C51.3307 121.074 52.0552 120.032 52.928 119.083C53.8595 118.065 54.7945 117.051 55.7398 116.047C56.5712 115.164 57.4682 114.353 58.4929 113.694C58.8655 113.453 59.2484 113.197 59.659 113.052C60.0454 112.914 60.487 112.835 60.8941 112.866C61.6186 112.925 61.9705 113.477 61.7842 114.181C61.6876 114.546 61.5289 114.898 61.3736 115.247C60.2662 117.727 58.5377 119.711 56.4229 121.377C55.5673 122.053 54.622 122.574 53.6077 122.975C53.1523 123.154 52.7072 123.347 52.2553 123.534C52.0414 123.62 51.9137 123.761 51.893 124.006C51.793 125.272 52.0483 126.466 52.69 127.553C53.2178 128.446 54.2597 128.74 55.1705 128.246C56.3815 127.591 57.5545 126.866 58.7482 126.173C59.5934 125.683 60.4283 125.186 61.2908 124.727C61.8532 124.427 62.4569 124.213 63.0262 123.93C65.2997 122.806 67.4525 121.481 69.35 119.794C70.6955 118.597 71.9341 117.275 73.183 115.978C74.2007 114.919 75.0391 113.718 75.8429 112.49C77.5748 109.844 79.2998 107.191 81.1145 104.603C84.6749 99.5319 88.2836 94.488 91.8992 89.4545C96.0047 83.7482 99.0821 77.5451 101.045 70.79C101.18 70.3242 101.307 69.855 101.442 69.3651C101.076 69.2133 100.738 69.0926 100.421 68.9304C100.11 68.7717 99.8204 68.5682 99.5134 68.3784C99.4409 68.4923 99.3995 68.5647 99.3547 68.6372C98.368 70.2276 96.1358 70.3691 94.9801 68.9097C94.5488 68.3681 94.2452 67.7678 94.1831 67.0674C94.1762 66.9812 94.1348 66.8949 94.09 66.75C93.6242 67.1916 93.3517 67.6643 93.1171 68.1645C92.7686 68.9132 92.4236 69.6687 92.0579 70.4105C90.5813 73.4223 89.2358 76.4928 87.9869 79.6082C87.3418 81.2228 86.6552 82.827 85.9031 84.3933C84.0505 88.2642 81.9494 92.004 79.7414 95.6783C78.044 98.5038 76.0982 101.16 73.835 103.568C73.1692 104.276 72.4136 104.907 71.6546 105.514C71.3372 105.769 70.9129 105.939 70.5127 106.039C69.8779 106.197 69.4225 105.839 69.3673 105.186C69.3431 104.914 69.3673 104.634 69.4121 104.362C69.6536 102.754 70.1884 101.24 70.8059 99.7424C72.2722 96.1889 74.3215 92.9631 76.3846 89.7477C78.8272 85.9424 81.3595 82.1957 83.7676 78.3696C86.2205 74.4677 88.7494 70.6209 91.5715 66.9708C91.6681 66.8466 91.7336 66.6983 91.8337 66.5292C90.4295 65.9876 90.395 64.7387 90.2398 63.5312C89.5291 63.8796 88.8632 63.8486 88.1974 63.6381C87.1589 63.3104 86.7656 62.5583 87.0865 61.506C87.152 61.2887 87.2383 61.0748 87.3142 60.8609C86.3999 60.4607 86.2171 60.333 85.9825 59.8259C85.5374 58.8771 85.6099 57.9732 86.2654 57.1349C86.3723 56.9969 86.4862 56.8623 86.6104 56.7071C85.8686 56.4242 85.2028 56.1447 84.5197 55.917C84.0194 55.7514 83.4985 55.6203 82.9775 55.5306C82.0702 55.3754 81.1594 55.4961 80.3866 55.9619C78.9997 56.8002 77.7128 57.7869 76.9504 59.2842C76.3259 60.5124 75.6773 61.7337 75.1288 62.9999C73.8074 66.0428 72.8311 69.2099 71.9962 72.4149C70.8232 76.9172 69.4466 81.3573 67.9183 85.7457C66.9557 88.5126 65.8138 91.214 64.8581 93.9809C62.9192 99.5837 60.1868 104.762 56.7196 109.558C54.9911 111.948 53.2351 114.322 51.4549 116.675C50.4095 118.058 49.6195 119.576 48.8881 121.136C48.5672 121.822 48.4637 122.502 48.7742 123.34L48.7811 123.354ZM111.323 57.4626C111.274 58.5666 110.998 59.5464 109.932 60.1364C110.277 60.9747 110.174 61.7648 109.732 62.5238C109.277 63.3035 108.618 63.7796 107.662 63.8279C107.883 64.5627 108 65.2286 107.69 65.8875C107.397 66.5085 106.931 66.9605 106.296 67.2192C105.613 67.4987 104.975 67.2123 104.302 66.957C104.133 67.7505 103.857 68.3991 103.246 68.8683C103.15 68.9408 103.115 69.1754 103.143 69.3168C103.55 71.2488 103.988 73.1774 104.795 74.9921C106.151 78.035 107.507 81.0813 108.894 84.1104C110.108 86.7635 111.575 89.2682 113.348 91.59C115.615 94.5536 118.185 97.2308 120.983 99.6837C127.11 105.052 133.561 109.989 140.624 114.084C142.349 115.085 144.08 116.075 145.833 117.027C146.444 117.358 147.116 117.589 147.782 117.8C148.835 118.127 149.904 118.4 150.967 118.693C151.087 118.728 151.219 118.735 151.467 118.773C150.856 118.227 150.328 117.8 149.852 117.324C147.82 115.295 145.602 113.484 143.408 111.638C140.627 109.299 137.767 107.07 134.793 104.986C133.975 104.414 133.192 103.796 132.409 103.175C128.545 100.112 125.461 96.458 123.725 91.7694C123.453 91.0346 123.122 90.3204 122.763 89.6235C121.89 87.9261 120.993 86.2391 120.089 84.5589C119.827 84.0725 119.551 83.5895 119.213 83.1582C117.867 81.4367 116.525 79.7082 115.118 78.0384C114.093 76.8206 113.017 75.6476 112.133 74.3159C111.719 73.688 111.402 73.0187 111.274 72.2769C111.185 71.7491 111.109 71.1833 111.647 70.8314C112.158 70.5002 112.692 70.6554 113.148 70.9521C113.624 71.2626 114.083 71.618 114.486 72.0182C115.866 73.3775 117.053 74.9024 118.14 76.5066C119.948 79.1769 121.259 82.0991 122.435 85.0868C123.391 87.5156 124.381 89.9306 125.368 92.349C126.523 95.1849 128.255 97.6241 130.456 99.7458C132.002 101.24 133.644 102.616 135.393 103.858C138.25 105.887 141.051 107.988 143.725 110.255C146.071 112.245 148.469 114.174 150.667 116.34C151.967 117.624 153.416 118.742 154.951 119.739C155.134 119.856 155.331 119.952 155.521 120.056C155.559 120.018 155.6 119.98 155.638 119.946C155.486 119.628 155.365 119.297 155.183 119C154.572 118.007 153.982 116.996 153.309 116.044C151.294 113.18 149.259 110.327 147.206 107.491C141.872 100.136 136.639 92.7078 131.502 85.2144C131.105 84.6383 130.694 84.0656 130.349 83.4584C128.735 80.6156 127.075 77.7969 125.557 74.9058C124.384 72.6737 123.387 70.3484 122.325 68.0541C121.048 65.2941 119.358 62.8101 117.322 60.5642C115.839 58.9254 114.021 57.849 111.806 57.5109C111.664 57.4902 111.519 57.4902 111.316 57.4764L111.323 57.4626ZM43.1438 185.347C43.0645 184.871 42.9748 184.44 42.9299 184.005C42.8989 183.691 42.9713 183.367 42.9299 183.053C42.7229 181.552 42.7954 180.045 42.8195 178.537C42.8402 177.464 43.0438 176.432 43.4129 175.425C43.582 174.97 43.7372 174.5 43.8235 174.024C44.0477 172.793 44.234 171.558 44.4203 170.319C44.5307 169.584 44.5859 168.842 44.7032 168.108C45.3587 164.043 46.0211 159.979 46.6939 155.919C46.9043 154.635 47.2217 153.386 47.8151 152.217C48.2188 151.42 48.788 150.782 49.547 150.309C49.7989 150.154 50.0576 150.081 50.3267 150.223C50.6062 150.371 50.6614 150.633 50.651 150.93C50.6269 151.651 50.6096 152.372 50.5993 153.093C50.5372 157.164 49.7126 161.052 47.8703 164.706C47.5564 165.33 47.2528 165.969 47.0389 166.631C46.3696 168.691 45.7244 170.757 45.4726 172.92C45.4243 173.341 45.3173 173.755 45.2276 174.169C44.9965 175.246 44.7308 176.319 44.5376 177.402C44.2961 178.758 44.0374 180.12 44.1443 181.511C44.2064 182.335 44.2409 183.167 44.341 183.984C44.479 185.113 44.648 185.188 45.6037 185.075C47.8151 184.816 50.0266 184.54 52.2346 184.236C54.6737 183.898 56.9197 182.915 59.207 182.07C60.2282 181.69 60.5801 180.89 60.5732 179.924C60.5629 178.395 60.4214 176.874 59.8556 175.425C58.8413 172.831 58.0858 170.15 57.4855 167.435C56.8472 164.547 55.7743 161.842 54.3632 159.255C53.9182 158.434 53.4731 157.613 53.0764 156.767C51.8413 154.135 51.0719 151.382 50.6993 148.484C50.2991 145.372 49.6816 142.288 49.1606 139.19C49.033 138.427 48.9122 137.661 48.7673 136.757C48.1429 137.717 47.339 138.117 46.3558 138.165C45.3415 138.213 44.4755 137.899 43.9339 137.075C42.2675 137.382 40.8392 137.033 39.511 136.043C39.3488 136.495 39.2074 136.889 39.0659 137.285C38.476 138.924 37.8757 140.556 37.5341 142.27C37.1063 144.413 36.6302 146.548 36.2093 148.694C35.5331 152.131 34.8707 155.567 33.9151 158.944C33.0077 162.149 32.197 165.382 31.3241 168.597C30.4996 171.63 29.6267 174.649 28.3157 177.516C27.9086 178.406 27.4601 179.265 26.8736 180.058C26.5735 180.465 26.3423 180.924 26.0974 181.373C26.0215 181.511 26.0111 181.683 25.9732 181.835C27.4636 182.887 29.0954 183.481 30.8549 183.971C30.8032 183.505 30.7342 183.129 30.7238 182.756C30.6479 180.283 30.8204 177.833 31.4656 175.435C31.7968 174.207 32.1832 172.993 32.5592 171.775C32.9422 170.54 33.2975 169.294 33.7426 168.08C34.2463 166.707 34.8328 165.361 35.3848 164.005C36.2921 161.787 37.2202 159.576 38.1034 157.347C39.0866 154.86 40.0181 152.351 41.0048 149.867C41.374 148.943 41.8052 148.039 42.2675 147.156C42.5401 146.635 42.8954 146.152 43.2646 145.689C43.5095 145.379 43.8683 145.196 44.2858 145.358C44.6825 145.513 44.7412 145.883 44.7722 146.252C44.7791 146.338 44.786 146.421 44.7929 146.507C44.9585 148.446 44.8067 150.375 44.4203 152.272C43.5475 156.553 41.8604 160.49 39.2281 163.992C38.1965 165.365 37.127 166.714 36.0541 168.056C35.1985 169.129 34.5085 170.284 34.0945 171.602C33.6322 173.079 33.1423 174.552 32.6972 176.036C32.0383 178.233 31.7243 180.472 32.0038 182.767C32.0486 183.146 32.1314 183.519 32.2108 183.891C32.2901 184.254 32.5144 184.481 32.8835 184.578C33.5183 184.743 34.1428 184.971 34.7879 185.088C36.9062 185.478 39.0487 185.537 41.1946 185.489C41.8432 185.475 42.4883 185.399 43.1542 185.351L43.1438 185.347ZM157.015 143.05C157.318 143.264 157.342 143.544 157.339 143.82C157.335 144.285 157.339 144.754 157.294 145.22C157.159 146.573 156.98 147.918 156.852 149.271C156.535 152.631 156.128 155.981 155.559 159.31C155.162 161.635 154.893 163.985 154.958 166.345C155.01 168.315 154.793 170.233 154.365 172.151C154.006 173.766 153.761 175.404 153.471 177.033C153.433 177.24 153.416 177.454 153.413 177.667C153.406 177.964 153.561 178.161 153.854 178.195C154.613 178.285 155.369 178.389 156.131 178.426C157.401 178.492 158.677 178.513 159.95 178.551C160.333 178.561 160.716 178.585 161.096 178.571C161.744 178.554 161.838 178.461 161.845 177.83C161.848 177.385 161.831 176.94 161.803 176.494C161.751 175.711 161.662 174.928 161.617 174.145C161.534 172.72 161.306 171.316 160.944 169.939C160.254 167.335 160.019 164.689 160.044 161.994C160.064 159.555 160.013 157.109 159.854 154.677C159.609 150.858 159.474 147.045 159.674 143.223C159.692 142.885 159.726 142.543 159.785 142.212C159.926 141.415 160.578 141.17 161.172 141.718C161.444 141.97 161.658 142.308 161.831 142.643C162.307 143.564 162.49 144.575 162.576 145.589C162.766 147.894 162.9 150.205 163.083 152.51C163.173 153.652 163.287 154.794 163.463 155.922C163.652 157.137 163.959 158.334 164.159 159.548C164.429 161.176 164.991 162.694 165.691 164.185C166.771 166.479 167.592 168.863 167.892 171.402C167.989 172.223 168.099 173.044 168.241 173.859C168.42 174.89 168.52 175.918 168.379 176.964C168.334 177.291 168.341 177.626 168.32 178.026C170.528 177.716 172.591 177.212 174.578 176.36C174.561 176.187 174.568 176.056 174.53 175.942C174.223 175.039 173.982 174.104 173.578 173.248C172.429 170.809 171.194 168.411 170.028 165.982C169.545 164.971 169.041 163.943 168.745 162.87C168.227 161.011 167.803 159.124 167.447 157.226C166.716 153.348 166.623 149.419 166.688 145.486C166.747 141.994 166.267 138.586 165.27 135.246C165.229 135.112 165.157 134.988 165.136 134.943C164.515 134.867 163.98 134.801 163.438 134.736C162.824 135.764 162.024 136.219 160.992 136.005C160.551 135.916 160.116 135.691 159.737 135.44C159.167 135.06 159.188 134.384 159.098 133.759C157.411 133.752 155.959 133.445 155.786 131.424C155.148 131.289 155.134 131.282 154.92 131.776C154.541 132.652 154.161 133.528 153.816 134.418C152.909 136.754 152.047 139.117 151.574 141.58C151.081 144.147 150.991 146.766 150.867 149.374C150.784 151.071 150.784 152.772 150.673 154.466C150.446 158.071 149.535 161.542 148.507 164.985C148.258 165.817 147.92 166.624 147.61 167.435C147.023 168.96 146.416 170.478 145.833 172.003C145.222 173.607 144.632 175.221 144.036 176.833C144.025 176.864 144.053 176.912 144.07 176.981C146.689 177.671 149.314 178.399 152.116 178.416C152.15 177.74 152.164 177.109 152.212 176.477C152.329 174.987 152.768 173.562 153.137 172.123C153.699 169.922 153.885 167.694 153.723 165.43C153.703 165.137 153.696 164.833 153.74 164.544C154.268 161.08 154.606 157.595 154.882 154.104C154.955 153.176 155.072 152.244 155.269 151.334C155.572 149.919 155.779 148.501 155.879 147.056C155.948 146.024 156.173 145.003 156.345 143.978C156.411 143.585 156.632 143.281 157.015 143.057V143.05ZM119.741 162.077C119.903 161.86 120.013 161.732 120.1 161.59C120.893 160.259 121.735 158.955 122.459 157.588C124.315 154.104 125.502 150.357 126.561 146.573C127.334 143.816 127.648 140.994 127.631 138.134C127.61 134.605 126.668 131.303 125.099 128.163C124.65 127.266 124.095 126.438 123.36 125.745C122.518 124.952 121.552 124.42 120.376 124.317C119.365 124.23 118.381 124.303 117.44 124.703C116.777 124.986 116.087 125.228 115.463 125.583C114.897 125.904 114.321 126.273 113.893 126.752C113.131 127.601 112.399 128.498 111.788 129.461C109.753 132.666 108.866 136.167 109.318 139.966C109.574 142.101 110.143 144.168 110.747 146.228C112.43 151.955 115.149 157.112 119.22 161.518C119.375 161.687 119.537 161.853 119.744 162.073L119.741 162.077ZM107.797 137.675C107.738 137.834 107.676 137.989 107.628 138.148C106.541 141.629 105.044 144.927 103.239 148.091C101.035 151.958 98.4301 155.546 95.5148 158.903C95.2354 159.227 95.1422 159.503 95.2871 159.928C95.8495 161.573 96.367 163.236 96.9155 164.889C98.3024 169.084 100.462 172.92 102.515 176.805C102.743 177.236 103.126 177.336 103.508 177.471C103.64 177.385 103.747 177.319 103.85 177.243C105.509 176.06 107.186 174.901 108.825 173.686C110.101 172.741 111.416 171.816 112.565 170.726C114.804 168.608 116.794 166.255 118.619 163.767C118.754 163.585 118.864 163.388 119.009 163.164C115.708 159.676 113.044 155.812 111.257 151.389C109.477 146.983 108.059 142.481 107.8 137.672L107.797 137.675ZM94.6834 157.889C94.9007 157.651 95.0456 157.502 95.1802 157.344C96.8638 155.346 98.4439 153.269 99.8894 151.096C102.463 147.228 104.612 143.147 106.096 138.731C107.355 134.981 108.087 131.144 107.956 127.17C107.89 125.21 107.597 123.285 107.01 121.412C106.907 121.077 106.748 120.725 106.517 120.47C105.758 119.642 104.826 119.08 103.753 118.721C102.146 118.183 100.724 118.428 99.4202 119.542C98.2852 120.511 97.3916 121.653 96.7327 122.975C95.2423 125.966 93.9382 129.019 93.5035 132.379C93.2999 133.956 92.9342 135.515 92.7859 137.095C92.2408 142.95 92.8342 148.75 93.8071 154.518C93.9934 155.622 94.2556 156.712 94.6834 157.896V157.889ZM90.3847 70.8866C90.3502 70.8659 90.3157 70.8486 90.2812 70.8279C89.6429 71.7491 88.9771 72.653 88.3664 73.5914C86.6759 76.1892 84.9992 78.794 83.3294 81.4022C80.4211 85.9424 77.5127 90.4791 74.6251 95.0331C73.4176 96.9375 72.493 98.9972 71.6546 101.084C71.2993 101.968 71.0785 102.903 70.8094 103.817C70.7473 104.031 70.7404 104.262 70.6852 104.641C70.9784 104.445 71.1647 104.348 71.3131 104.214C71.8202 103.762 72.3619 103.337 72.8035 102.827C73.8868 101.578 74.9632 100.315 75.9671 99.0006C77.7646 96.6546 79.2584 94.1085 80.7005 91.5314C82.9292 87.5466 85.0786 83.5274 86.7863 79.2804C87.8455 76.6446 89.0288 74.0537 90.1535 71.4455C90.2329 71.2592 90.3088 71.0694 90.3847 70.8831V70.8866ZM163.176 178.644C164.36 178.52 165.515 178.402 166.675 178.275C166.968 178.244 167.03 178.026 167.054 177.771C167.199 176.374 167.22 174.987 166.916 173.596C166.699 172.586 166.688 171.526 166.485 170.512C166.071 168.446 165.377 166.469 164.494 164.551C164.035 163.55 163.559 162.536 163.3 161.477C162.814 159.479 162.407 157.457 162.107 155.422C161.869 153.811 161.855 152.169 161.717 150.54C161.558 148.66 161.379 146.78 161.199 144.903C161.179 144.682 161.099 144.468 161.044 144.251C160.937 144.392 160.92 144.516 160.91 144.641C160.709 147.442 160.851 150.243 161.034 153.034C161.248 156.277 161.375 159.517 161.32 162.767C161.286 164.706 161.444 166.627 161.927 168.511C162.514 170.802 162.9 173.117 162.99 175.48C163.028 176.491 163.107 177.502 163.176 178.644ZM43.5958 147.794C43.5337 147.766 43.4681 147.735 43.406 147.708C43.2956 147.928 43.1783 148.149 43.0714 148.374C41.6224 151.447 40.4666 154.642 39.2798 157.823C38.8865 158.875 38.4829 159.928 38.0551 160.966C37.4651 162.398 36.8441 163.819 36.2404 165.244C36.161 165.43 36.1024 165.627 36.0334 165.817C40.6391 160.662 43.4302 154.77 43.5958 147.794ZM45.1379 77.6831C45.1759 77.69 45.2104 77.7003 45.2483 77.7072C45.3104 77.5589 45.3725 77.4105 45.4312 77.2587C45.8107 76.2479 46.1695 75.2301 46.5731 74.2296C47.3149 72.3804 47.9807 70.5036 48.4051 68.5509C48.7121 67.133 48.8122 65.7012 48.619 64.2557C48.5879 64.0211 48.4913 63.7934 48.3775 63.4035C48.1222 63.7451 47.9083 63.9348 47.8151 64.1694C47.4839 64.994 47.0906 65.8082 46.9112 66.6672C46.373 69.2582 45.8969 71.8629 45.4519 74.4711C45.2725 75.5268 45.2414 76.6101 45.1414 77.6796L45.1379 77.6831ZM52.5106 121.888C52.5485 121.919 52.583 121.95 52.621 121.981C52.759 121.936 52.9004 121.898 53.0315 121.843C56.4815 120.37 58.8137 117.793 60.3455 114.429C60.3731 114.367 60.349 114.281 60.349 114.115C60.0074 114.294 59.7245 114.426 59.4554 114.588C58.2514 115.326 57.2405 116.285 56.2918 117.32C55.6639 118.007 55.0084 118.673 54.3977 119.376C53.8423 120.015 53.3248 120.684 52.8004 121.346C52.6762 121.505 52.6037 121.705 52.5071 121.884L52.5106 121.888ZM91.1851 56.4449C90.7883 56.2448 90.7435 55.8929 90.7055 55.4892C90.6538 54.9062 90.5503 54.3162 90.3709 53.7608C90.2225 53.3019 89.7637 53.226 89.398 53.54C89.2427 53.6745 89.1116 53.8539 89.0116 54.0333C88.6424 54.6854 88.6459 55.365 88.9219 56.0516C89.0081 56.2655 89.1254 56.4725 89.191 56.6933C89.3324 57.1763 89.0737 57.5316 88.57 57.5696C88.4009 57.5834 88.2319 57.5523 88.0628 57.5627C87.5212 57.6041 87.0727 57.9836 87.0244 58.508C86.9588 59.2049 87.1382 59.612 87.9973 59.4567C88.2836 59.405 88.3561 59.2152 88.4596 59.0013C88.8287 58.2285 89.3876 58.0181 90.1777 58.3355C90.3502 58.4045 90.5158 58.4838 90.7193 58.5735C90.7435 58.194 90.7297 57.8525 90.7987 57.5316C90.8746 57.1866 91.0367 56.8589 91.1885 56.4449H91.1851ZM46.8008 163.629C46.8526 163.636 46.9009 163.64 46.9526 163.647C48.6914 160.121 49.3469 156.367 49.2469 152.441C49.0675 152.607 48.9226 152.79 48.8536 153C48.5741 153.842 48.2291 154.677 48.0739 155.543C47.7185 157.502 47.4667 159.479 47.1665 161.446C47.0561 162.174 46.925 162.901 46.8043 163.629H46.8008ZM153.765 69.6032C153.713 69.7067 153.682 69.7412 153.682 69.7791C153.685 69.9068 153.682 70.0344 153.713 70.1586C154.52 73.4499 155.331 76.7378 156.142 80.0291C156.145 80.0463 156.169 80.067 156.187 80.0705C156.204 80.0739 156.228 80.0601 156.259 80.0532C156.273 80.0015 156.304 79.9463 156.307 79.8876C156.445 77.1518 156.162 74.4711 155.314 71.856C155.089 71.1626 154.769 70.5209 154.241 70.0034C154.096 69.8619 153.93 69.7446 153.765 69.6066V69.6032ZM98.5957 55.1028C97.4986 54.4439 97.3675 54.2714 97.0708 53.0466C96.9569 52.5809 96.7637 52.1634 96.4015 51.846C96.1703 51.6459 95.8943 51.4769 95.5907 51.6114C95.263 51.7563 95.1526 52.0841 95.1974 52.4118C95.2595 52.8638 95.3803 53.3088 95.47 53.7228C95.7494 53.7746 95.9461 53.7849 96.1186 53.8539C96.329 53.9402 96.5533 54.0437 96.7154 54.1955C97.0397 54.4956 97.1087 54.8889 96.9742 55.3064C96.8465 55.6962 96.5084 55.9377 96.0392 55.9308C95.6908 55.9239 95.3423 55.8411 94.9973 55.7963C94.7006 56.6622 95.4389 57.6351 96.3325 57.6627C96.536 57.159 96.6878 56.6519 96.9397 56.193C97.2433 55.641 97.8332 55.7342 98.3749 55.7342C98.4508 55.5168 98.5198 55.3202 98.5957 55.0994V55.1028ZM112.585 72.1665C112.651 72.6564 112.827 73.0601 113.086 73.412C113.831 74.4125 114.58 75.4095 115.37 76.379C116.318 77.5416 117.312 78.6732 118.281 79.8221C118.519 80.105 118.744 80.4017 119.061 80.7984C118.368 78.5111 114.152 72.9083 112.589 72.1734L112.585 72.1665ZM39.5351 133.432C39.3902 133.908 39.5558 134.315 39.8905 134.684C40.684 135.553 41.7086 135.885 42.8437 135.964C43.1369 135.985 43.2991 135.84 43.3025 135.567C43.3129 135.032 43.4129 134.456 42.8092 134.118C42.6884 134.049 42.5953 133.911 42.5159 133.79C42.3676 133.566 42.1778 133.539 41.9191 133.539C41.1428 133.532 40.3666 133.473 39.5351 133.435V133.432ZM106.962 57.9905C107.103 56.8106 107.493 56.2344 108.487 55.6686C108.884 55.4409 108.949 55.2098 108.725 54.7958C108.621 54.6026 108.476 54.399 108.242 54.4784C108.09 54.5267 107.949 54.6957 107.869 54.8441C107.559 55.4202 107.29 56.0136 106.979 56.5898C106.665 57.1694 106.168 57.3557 105.53 57.2073C105.247 57.1418 104.964 57.1004 104.702 57.0521C104.171 58.0353 104.126 59.2152 104.595 59.8121C105.223 59.0013 105.882 58.2285 106.962 57.9905ZM39.0073 129.067C38.9038 129.088 38.8244 129.102 38.7485 129.123C37.4755 129.481 36.7027 128.964 36.5371 127.643C36.5129 127.446 36.4853 127.253 36.4508 126.98C35.8574 127.442 35.5021 127.953 35.3606 128.588C35.2295 129.16 35.3606 129.685 35.7919 130.102C36.2749 130.572 37.6169 130.647 38.1793 130.251C38.3518 130.13 38.5001 129.961 38.6864 129.875C39.0659 129.706 39.0728 129.43 39.0038 129.067H39.0073ZM93.0722 62.196C91.7888 62.4996 91.4611 62.8205 91.4852 63.8451C91.5163 65.2044 91.9751 65.4459 93.2068 65.4632C93.5449 65.4666 93.8105 65.301 94.0175 65.0354C94.2659 64.7145 94.2694 64.5869 93.9761 64.2798C93.5863 63.8727 93.3137 63.4104 93.1964 62.8584C93.1516 62.6549 93.1205 62.4479 93.0757 62.1926L93.0722 62.196ZM95.3423 66.236C95.1422 67.1123 95.6425 68.2542 96.4118 68.6165C97.0121 68.8994 97.5986 68.7338 98.0885 68.3646C98.5232 68.0334 98.644 67.5401 98.4991 67.0329C97.433 66.7638 96.4084 66.5051 95.3423 66.236ZM99.779 67.0398C100.317 67.8092 101.059 68.1887 101.939 68.3198C102.035 68.3336 102.153 68.2991 102.246 68.2542C102.846 67.9472 103.112 67.4159 103.205 66.7776C103.284 66.2291 102.832 66.0773 102.491 65.8461C102.46 65.8254 102.411 65.8323 102.301 65.8151C101.645 66.4913 100.79 66.8604 99.7825 67.0364L99.779 67.0398ZM46.9837 131.689C47.339 131.827 47.6185 131.924 47.8841 132.045C48.1739 132.176 48.4465 132.348 48.7397 132.466C49.033 132.579 49.3435 132.669 49.6505 132.731C49.9852 132.797 50.2163 132.635 50.3543 132.321C50.582 131.803 50.3888 131.21 49.8265 130.927C49.4711 130.747 49.0709 130.654 48.6811 130.561C48.1843 130.44 47.7634 130.544 47.4908 131.037C47.3701 131.255 47.1838 131.438 46.9837 131.689ZM108.37 60.0294C107.855 61.2369 106.962 61.8407 105.713 61.8924C105.627 62.1305 105.644 62.2961 105.868 62.3892C106.22 62.5341 106.565 62.6928 106.924 62.8136C107.707 63.0827 108.432 62.7756 108.846 62.0166C109.28 61.2128 109.17 60.6815 108.37 60.0294ZM95.8115 63.921C97.0639 64.4178 98.0609 63.9348 98.3128 62.7342C98.3542 62.5341 98.3197 62.2478 98.2024 62.096C97.847 61.6509 97.0018 61.6371 96.6085 62.058C96.1186 62.5824 95.9219 63.2414 95.815 63.9245L95.8115 63.921ZM104.419 62.5134C104.361 62.2167 104.309 61.8579 104.212 61.5129C104.178 61.3887 104.06 61.2473 103.943 61.1921C103.553 61.0058 102.577 61.4232 102.401 61.8303C102.108 62.5134 102.601 63.5553 103.312 63.752C103.878 63.9072 104.205 63.714 104.333 63.1413C104.374 62.955 104.388 62.7653 104.419 62.5134ZM103.553 65.1389C104.212 65.5805 104.768 65.9151 105.399 66.1152C105.71 66.2118 105.982 66.1359 106.227 65.9289C106.613 65.6046 106.831 65.201 106.693 64.6938C106.541 64.1384 106.251 63.6933 105.63 63.5795C105.156 64.4167 104.464 64.9365 103.553 65.1389ZM98.7406 65.27C98.9096 65.5598 99.0821 65.8323 99.434 65.7702C99.9308 65.6805 100.441 65.5943 100.897 65.3942C101.204 65.2596 101.473 64.9595 101.673 64.6766C101.908 64.3488 101.79 64.0832 101.418 63.9107C101.014 63.7244 100.597 63.7106 100.179 63.8693C99.5134 64.1211 99.0097 64.5455 98.7406 65.2734V65.27ZM94.1245 53.8056C93.5104 53.6814 92.9411 53.7228 92.5616 54.3059C92.2235 54.8234 92.0338 55.3926 91.9924 56.0033C92.5444 56.1861 93.0688 56.3586 93.6277 56.5449C93.6104 55.8515 93.7795 55.2581 94.1521 54.7164C94.3522 54.4266 94.2866 54.1161 94.1245 53.8022V53.8056ZM42.9506 128.922C43.2749 129.292 43.5509 129.609 43.8304 129.92C44.027 130.137 44.2168 130.371 44.441 130.558C44.9206 130.955 45.8176 130.979 46.204 130.606C46.5214 130.299 46.7318 129.923 46.8457 129.447C45.6658 129.557 44.5514 129.557 43.7234 128.626C43.4405 128.733 43.2059 128.822 42.9506 128.922ZM103.788 55.334C104.133 55.3064 104.461 55.2891 104.616 54.9338C104.795 54.5232 104.985 54.0885 104.688 53.6676C104.578 53.5124 104.368 53.3813 104.181 53.333C103.319 53.1191 102.753 53.4399 102.377 54.3197C102.218 54.6923 102.256 54.8786 102.632 55.0269C103.001 55.1718 103.402 55.2339 103.791 55.334H103.788ZM157.07 124.386C156.804 124.644 156.528 124.872 156.307 125.141C155.793 125.769 155.938 126.49 156.638 126.901C156.956 127.087 157.411 127.018 157.615 126.763C157.898 126.411 158.184 126.059 158.453 125.724C158.056 125.338 157.604 124.903 157.07 124.386ZM107.945 58.3389C108.138 58.8012 108.559 58.9392 108.925 59.1393C109.301 59.3429 109.612 59.2704 109.867 58.9289C110.205 58.4804 110.302 57.9594 110.212 57.4212C110.108 56.8002 109.674 56.6277 109.146 56.9831C108.628 57.3315 108.269 57.8283 107.949 58.3355L107.945 58.3389ZM101.559 55.6065C101.57 55.0062 101.021 54.644 100.407 54.8441C99.7894 55.0442 99.265 55.9929 99.4099 56.6415C99.4892 56.9969 99.7859 57.2039 100.162 57.1659C100.711 57.1107 101.549 56.1723 101.559 55.61V55.6065ZM101.625 53.9816C101.746 53.7056 101.856 53.4296 101.987 53.1674C102.118 52.9121 102.056 52.7154 101.846 52.5567C101.473 52.2738 101.111 51.9806 100.717 51.7322C100.548 51.6252 100.317 51.5942 100.11 51.5804C99.7894 51.5597 99.6445 51.7149 99.6548 52.0427C99.6617 52.1841 99.7031 52.3359 99.7652 52.467C99.9619 52.8879 100.176 53.2985 100.393 53.7297C100.786 53.8091 101.194 53.8953 101.625 53.9816ZM103.643 56.2931C103.215 56.1896 102.836 56.0964 102.453 56.0067C101.98 56.7968 102.577 57.7731 101.894 58.4355C102.059 58.8357 102.211 59.2014 102.384 59.6154C102.594 59.5947 102.812 59.574 103.084 59.5464C102.981 58.3907 103.157 57.3384 103.64 56.2896L103.643 56.2931ZM163.639 125.414C164.042 125.569 164.146 125.338 164.294 125.117C164.536 124.751 164.794 124.393 165.084 124.065C165.422 123.685 165.429 122.978 165.053 122.633C164.656 122.267 164.039 122.34 163.68 122.792C163.566 122.937 163.452 123.085 163.335 123.244C163.835 123.913 164.032 124.617 163.642 125.417L163.639 125.414ZM163.045 129.043C163.159 129.492 163.225 129.913 163.38 130.292C163.494 130.572 163.694 130.848 163.925 131.044C164.501 131.541 165.046 131.355 165.263 130.623C165.37 130.268 165.291 129.957 165.056 129.678C164.542 129.067 163.877 128.929 163.045 129.04V129.043ZM105.292 55.8446C105.806 56.0481 105.817 56.0585 106.017 55.8894C106.886 55.158 107.393 53.7366 106.055 52.7534C105.886 52.6292 105.703 52.5188 105.513 52.4256C105.247 52.2945 104.968 52.2704 104.64 52.3635C105.982 53.3813 106.127 54.1644 105.292 55.8446ZM50.8822 128.253C50.72 128.836 50.5613 129.399 50.413 129.926C50.6648 130.206 50.9167 130.437 51.103 130.713C51.2927 130.999 51.4135 131.327 51.5722 131.651C52.2208 130.82 52.1897 129.154 51.5411 128.439C51.3721 128.253 51.1892 128.143 50.8787 128.257L50.8822 128.253ZM45.6934 124.355C46.304 124.707 46.7594 124.638 47.2148 124.068C47.3321 123.923 47.4356 123.754 47.5046 123.582C47.7461 122.975 47.4563 122.474 46.8077 122.374C46.6214 122.347 46.4282 122.347 46.2419 122.364C45.8659 122.402 45.7865 122.505 45.7693 122.895C45.7451 123.371 45.721 123.851 45.6968 124.355H45.6934ZM46.7663 134.187C47.3908 134.515 48.0014 134.839 48.619 135.15C48.7673 135.222 48.9433 135.25 49.1089 135.277C49.3228 135.312 49.4746 135.212 49.5643 135.015C49.8058 134.511 49.5781 133.939 49.0399 133.801C48.3671 133.632 47.684 133.511 46.963 133.363C46.9009 133.625 46.8457 133.863 46.7663 134.187ZM44.9102 135.367C44.8723 136.061 44.9654 136.402 45.2414 136.637C45.721 137.044 46.9181 137.002 47.3839 136.561C47.6081 136.35 47.6288 136.154 47.3942 135.974C46.6525 135.415 45.821 135.215 44.9102 135.364V135.367ZM44.6722 126.394C44.6894 126.68 44.7101 126.949 44.7239 127.222C44.7653 127.963 44.8826 128.101 45.6037 128.205C45.7934 128.232 45.9832 128.246 46.1729 128.239C46.5628 128.222 46.7146 128.05 46.6456 127.663C46.5524 127.139 46.2764 126.721 45.8245 126.428C45.4553 126.19 45.0827 126.169 44.6722 126.394ZM165.315 128.074C165.853 128.146 166.202 128.022 166.392 127.594C166.63 127.063 166.744 126.497 166.657 125.921C166.623 125.69 166.45 125.472 166.309 125.265C166.261 125.193 166.126 125.141 166.033 125.141C165.643 125.141 165.16 125.924 165.343 126.283C165.571 126.728 165.602 127.17 165.446 127.636C165.408 127.753 165.374 127.874 165.315 128.07V128.074ZM162.255 133.401C161.569 133.459 160.91 133.514 160.244 133.57C160.168 133.997 160.13 134.401 160.547 134.653C160.982 134.919 161.451 134.984 161.938 134.774C162.721 134.432 162.807 134.018 162.259 133.397L162.255 133.401ZM43.2991 133.225C43.4336 133.639 43.7062 133.811 44.1581 133.763C44.5135 133.725 44.8757 133.763 45.2345 133.742C45.6934 133.718 45.8279 133.497 45.6692 133.073C45.4864 132.59 44.6377 132.11 44.1581 132.231C44.0684 132.255 43.9787 132.335 43.9166 132.41C43.7062 132.669 43.5095 132.942 43.2991 133.221V133.225ZM47.6012 125.673C47.8358 126.238 48.0359 126.763 48.274 127.27C48.3809 127.494 48.9502 127.57 49.2676 127.453C49.5608 127.346 49.6057 127.104 49.6057 126.839C49.6126 125.914 48.6673 125.3 47.6012 125.669V125.673ZM40.2148 127.746C41.0048 127.746 41.7431 127.756 42.478 127.739C42.6608 127.736 42.8575 127.68 43.0231 127.594C43.3232 127.439 43.4164 127.087 43.2577 126.842C43.0265 126.48 42.4642 126.376 42.0812 126.587C41.7328 126.78 41.3705 126.953 40.9979 127.087C40.6633 127.204 40.3942 127.366 40.2113 127.746H40.2148ZM163.511 132.193C163.356 132.742 163.545 133.138 164.077 133.47C164.504 133.739 164.987 133.639 165.508 133.18C165.936 132.8 166.047 132.338 165.812 131.841C165.139 132.545 164.36 132.642 163.514 132.193H163.511ZM160.037 130.948C160.006 131.676 160.202 132.069 160.63 132.207C161.165 132.383 161.751 132.241 162.048 131.807C162.566 131.058 162.628 130.982 162.227 130.627C161.586 131.151 160.841 131.134 160.037 130.944V130.948ZM159.302 129.071C158.881 128.985 158.567 128.974 158.312 128.85C158.039 128.719 157.822 128.477 157.567 128.274C157.446 128.374 157.322 128.453 157.218 128.557C156.694 129.095 156.866 129.761 157.594 129.954C158.167 130.106 158.688 129.937 159.122 129.561C159.233 129.464 159.24 129.247 159.298 129.071H159.302ZM154.948 124.745C154.917 124.71 154.869 124.638 154.803 124.586C154.389 124.265 153.854 124.179 153.565 124.386C153.289 124.582 153.247 125.11 153.471 125.631C153.727 126.225 154.037 126.369 154.644 126.207C154.744 125.724 154.844 125.252 154.948 124.745ZM43.4578 125.338C43.7269 124.817 43.9891 124.362 44.1995 123.885C44.4031 123.427 44.1685 122.861 43.7338 122.637C43.2853 122.405 42.9748 122.574 42.9679 123.068C42.9679 123.254 43.0024 123.447 43.0576 123.623C43.2197 124.148 43.2715 124.655 42.8782 125.152C43.0748 125.214 43.2301 125.265 43.4578 125.334V125.338ZM165.405 82.0163C164.846 82.7304 165.246 83.2824 165.564 83.8206C165.788 84.2036 166.119 84.2967 166.416 84.138C166.726 83.9724 166.857 83.5757 166.678 83.1962C166.419 82.6476 166.019 82.2336 165.405 82.0128V82.0163ZM38.6381 123.606C38.2379 124.072 38.1793 124.493 38.2862 124.945C38.338 125.169 38.4277 125.39 38.4794 125.614C38.614 126.183 38.7692 126.328 39.3143 126.28C39.4765 126.266 39.7042 126.152 39.7594 126.024C39.8146 125.897 39.7214 125.676 39.6421 125.524C39.4696 125.19 39.2557 124.879 39.0763 124.548C38.9279 124.275 38.8141 123.985 38.6381 123.606ZM166.447 130.092C167.116 129.899 167.72 129.702 167.889 128.967C167.999 128.488 168.027 128.022 167.661 127.58C167.437 127.932 167.275 128.284 167.026 128.55C166.778 128.819 166.44 129.002 166.133 129.23C166.233 129.506 166.333 129.778 166.447 130.092ZM158.636 131.23H156.997C156.959 132.297 157.987 132.883 158.967 132.39C158.857 132.003 158.746 131.62 158.636 131.23ZM155.952 128.008C155.6 127.525 155.4 127.674 155.1 127.915C155.034 127.967 154.969 128.022 154.907 128.077C154.472 128.457 154.399 128.674 154.555 129.112C154.741 129.637 155.252 130.04 155.724 130.033C155.628 129.272 155.705 128.597 155.955 128.008H155.952ZM160.233 129.064C160.233 129.064 160.264 129.067 160.282 129.071C160.282 129.174 160.275 129.281 160.282 129.385C160.327 129.868 160.513 130.006 160.985 129.916C161.468 129.826 161.869 129.081 161.679 128.615C161.651 128.543 161.589 128.474 161.524 128.426C161.317 128.281 161.106 128.143 160.889 128.015C160.658 127.877 160.475 127.946 160.402 128.201C160.327 128.481 160.285 128.774 160.226 129.06L160.233 129.064ZM90.1742 61.437C89.9051 61.3335 89.7257 61.268 89.5532 61.2024C89.36 61.1265 89.1668 61.0472 88.9667 60.9678C88.6321 61.2197 88.4113 61.5302 88.325 61.9062C88.294 62.0408 88.3388 62.265 88.4354 62.3513C88.808 62.679 89.5049 62.5824 89.7913 62.1753C89.9327 61.9752 90.0224 61.7337 90.1742 61.4405V61.437ZM92.6651 59.612C93.0067 59.2773 93.1136 58.9151 93.1654 58.539C93.2206 58.1285 93.0446 57.7904 92.7169 57.5489C92.3443 57.2729 92.0614 57.3936 92.02 57.8559C91.9613 58.5252 92.296 59.0531 92.6651 59.6085V59.612ZM99.4133 61.4853C99.4858 61.8786 99.5617 62.2823 99.6376 62.6963C100.141 62.6342 100.617 62.5755 101.145 62.51C101.162 62.1995 101.18 61.8924 101.194 61.6268C100.566 61.575 99.9929 61.5302 99.4133 61.4853ZM160.944 120.429C161.299 120.708 161.648 120.918 161.914 121.208C162.169 121.484 162.334 121.84 162.562 122.202C162.783 121.643 162.707 121.143 162.497 120.673C162.221 120.056 161.496 119.932 160.944 120.432V120.429ZM161.458 125.196C161.782 125.172 161.996 125.176 162.2 125.141C162.655 125.065 162.838 124.883 162.821 124.558C162.804 124.199 162.503 123.865 162.152 123.81C161.851 123.765 161.641 123.872 161.575 124.168C161.51 124.472 161.503 124.786 161.458 125.193V125.196ZM41.5465 124.751C41.5465 124.548 41.5465 124.382 41.5465 124.217C41.5465 124.11 41.5396 124.003 41.5223 123.899C41.4844 123.654 41.3809 123.413 41.1187 123.399C40.9082 123.389 40.6495 123.451 40.4873 123.575C40.2769 123.737 40.2458 124.003 40.37 124.268C40.5805 124.724 40.7978 124.827 41.5499 124.751H41.5465ZM156.839 121.926C156.397 121.843 156.031 121.919 155.845 122.26C155.6 122.716 155.686 123.189 155.986 123.613C156.476 123.437 156.78 123.175 156.732 122.626C156.714 122.423 156.794 122.212 156.842 121.926H156.839ZM99.4754 60.1019C99.7066 60.4883 100.403 60.6987 100.776 60.4365C101.073 60.2295 101.211 59.9225 101.169 59.5602C101.128 59.2049 100.89 59.1186 100.6 59.3256C100.231 59.5913 99.8515 59.8397 99.4754 60.0984V60.1019ZM158.039 122.633C158.584 122.595 159.078 122.561 159.592 122.523C159.499 122.123 159.412 121.76 159.326 121.405C158.633 121.405 158.274 121.74 158.039 122.633ZM97.0156 60.4331C97.5676 60.5469 98.0644 60.6539 98.5543 60.7539C98.5888 59.8121 97.9126 59.6223 97.2536 59.3636C97.1708 59.7396 97.0984 60.0674 97.019 60.4331H97.0156ZM40.1561 132.007C40.132 132.045 40.1078 132.083 40.0802 132.124C40.2217 132.179 40.3631 132.262 40.508 132.279C40.822 132.317 41.1428 132.366 41.4533 132.331C41.8225 132.29 42.1951 132.196 42.5366 132.062C42.6712 132.01 42.7885 131.782 42.8126 131.62C42.8575 131.327 42.7436 131.061 42.4987 130.851C41.8087 132 41.7362 132.414 40.1527 132.01L40.1561 132.007ZM40.0768 130.223C40.2976 130.62 40.6115 130.827 41.0186 130.889C41.3878 130.385 41.3878 129.957 41.0186 129.719C40.684 129.502 40.3493 129.485 40.0768 130.22V130.223ZM159.968 119.601C159.333 118.962 158.671 119.214 158.339 120.177C158.691 120.149 159.047 120.09 159.398 120.097C159.743 120.104 159.895 119.939 159.968 119.597V119.601ZM98.2196 58.4631C99.0407 59.0427 99.5927 58.9737 99.9446 58.2975C99.572 58.1664 99.2029 58.0388 98.8199 57.9042C98.6267 58.0836 98.4473 58.2527 98.2196 58.4631ZM107.086 59.2359C106.413 59.4567 106.037 59.9466 105.692 60.5331C106.61 60.6987 107.276 60.0743 107.086 59.2359ZM161.934 127.146C162.145 126.811 162.355 126.473 162.617 126.055H161.389C161.141 126.708 161.165 126.763 161.934 127.146ZM49.2572 124.42C49.7264 124.845 50.1404 125.221 50.5717 125.61V124.21C50.1094 124.286 49.7023 124.348 49.2572 124.42ZM38.1068 133.594C38.1586 133.566 38.2069 133.542 38.2586 133.514C38.0654 132.931 37.8722 132.348 37.6825 131.776C37.2064 131.838 37.1408 131.879 37.1857 132.193C37.2685 132.811 37.6169 133.256 38.1068 133.594ZM163.104 127.691C163.828 127.825 164.125 127.739 164.28 127.318C164.335 127.173 164.315 126.911 164.218 126.821C164.122 126.732 163.849 126.728 163.721 126.804C163.411 126.984 163.207 127.277 163.104 127.687V127.691ZM164.829 121.191C164.674 120.432 164.339 120.17 163.642 120.215C163.725 120.518 163.804 120.815 163.894 121.143C164.197 121.16 164.484 121.174 164.829 121.191ZM37.6997 127.139C37.6135 127.712 37.6928 127.981 37.9447 128.074C38.2414 128.181 38.5898 127.936 38.8313 127.425C38.4484 127.329 38.0792 127.235 37.6997 127.142V127.139ZM94.7662 60.6159C94.8145 60.6539 94.8662 60.6884 94.9145 60.7263C95.4803 60.6366 95.7425 60.2192 95.915 59.7258C95.9461 59.6327 95.9012 59.4429 95.8322 59.405C95.7563 59.3636 95.5562 59.405 95.5045 59.474C95.2423 59.8431 95.0111 60.233 94.7696 60.6125L94.7662 60.6159ZM158.46 123.889C158.715 124.327 158.988 124.575 159.402 124.579C159.523 124.579 159.733 124.475 159.747 124.389C159.771 124.258 159.706 124.051 159.605 123.968C159.285 123.706 158.919 123.747 158.457 123.889H158.46ZM37.3513 89.3648C37.0511 89.7995 37.0442 90.1583 37.1546 90.5205C37.2133 90.7172 37.3823 90.8276 37.5997 90.7413C37.7756 90.6723 37.8688 90.5343 37.7894 90.3411C37.6652 90.0444 37.5272 89.7512 37.3513 89.3648ZM159.657 127.053C159.34 126.866 159.064 126.742 158.802 126.98C158.574 127.191 158.57 127.449 158.798 127.712C159.188 127.653 159.44 127.439 159.657 127.053ZM48.3568 128.853C48.6845 129.026 49.3745 129.112 49.5539 128.988C49.6126 128.95 49.6091 128.819 49.6747 128.591C49.1951 128.798 48.7604 128.546 48.3533 128.853H48.3568ZM94.5523 62.9412C94.6006 62.9447 94.6454 62.9481 94.6937 62.955C94.7938 62.6928 94.8904 62.4341 95.0111 62.1201C94.849 62.096 94.7489 62.0649 94.6558 62.0718C94.5799 62.0753 94.504 62.1201 94.3729 62.1684C94.435 62.441 94.4936 62.6928 94.5523 62.9447V62.9412ZM94.4315 58.6356C94.8628 58.3044 94.8593 58.2941 94.366 58.0698C94.3867 58.263 94.4074 58.4355 94.4315 58.6356ZM90.0914 60.0432C90.1225 59.9915 90.157 59.9363 90.188 59.8845C90.0224 59.7741 89.9362 59.505 89.5084 59.681C89.7568 59.8362 89.9258 59.9397 90.0914 60.0432ZM50.8615 126.583C50.7994 126.777 50.7166 126.977 51.0547 127.166C50.965 126.894 50.9132 126.739 50.8615 126.583ZM101.476 57.8283C101.442 57.78 101.407 57.7283 101.376 57.68C101.266 57.7697 101.159 57.8594 101.049 57.9491C101.073 57.9836 101.1 58.0146 101.125 58.0491C101.242 57.9767 101.359 57.9042 101.476 57.8283ZM160.875 121.857C160.827 121.898 160.782 121.943 160.734 121.985C160.854 122.123 160.975 122.257 161.096 122.395C161.141 122.357 161.182 122.319 161.227 122.281C161.11 122.14 160.992 121.998 160.875 121.857Z" fill="black"/>
</svg>
