<svg width="350" height="58" viewBox="0 0 350 58" fill="none" xmlns="http://www.w3.org/2000/svg">
<g clip-path="url(#clip0_49_1501)">
<path fill-rule="evenodd" clip-rule="evenodd" d="M348.483 42.5614C344.166 41.919 339.827 41.3202 335.456 41.6795C330.825 42.0605 326.182 42.4852 321.583 43.1929C315.16 44.1973 308.747 45.297 302.333 46.3966L302.333 46.3968C299.292 46.9182 296.251 47.4396 293.208 47.9509C290.182 48.4627 287.134 48.724 284.13 47.842C280.887 46.8839 279.748 44.5103 281.093 41.4073C281.461 40.5471 282.015 39.7523 282.568 38.9902C282.938 38.4776 283.358 38.0005 283.781 37.5209C283.978 37.2975 284.175 37.0736 284.368 36.8452L284.287 36.79C282.934 35.874 282.864 35.8267 281.95 36.6275C281.151 37.3311 280.401 38.0961 279.664 38.8487L279.662 38.8503C279.419 39.0988 279.176 39.3459 278.934 39.589C278.848 39.5327 278.774 39.4894 278.71 39.4523L278.71 39.4521C278.589 39.3816 278.507 39.3337 278.457 39.2624C275.973 36.0613 269.801 36.3226 267.393 40.8738C266.97 41.6795 266.276 42.3872 265.582 42.9969C263.348 44.9241 260.733 46.1871 258.022 47.2759C251.655 49.8236 245.006 50.2483 238.292 49.7692C236.231 49.6168 234.159 48.9635 232.196 48.2667C230.135 47.5372 229.115 45.9475 229.43 43.6284C229.537 42.8393 229.552 42.0395 229.567 41.2705V41.2704C229.574 40.9465 229.58 40.6282 229.593 40.3185C228.378 39.8394 227.89 40.4165 227.662 41.1351C226.838 43.7917 224.723 44.9894 222.391 45.9802C218.551 47.6134 214.527 48.6042 210.438 49.2575C205.622 50.0305 200.773 50.5749 195.892 49.8672C192.779 49.4208 190.046 48.4191 189.341 44.8043C189.308 44.6628 189.254 44.5212 189.2 44.3906C188.484 42.8009 187.714 42.4416 186.076 43.1167C185.45 43.3759 184.875 43.7429 184.297 44.1112L184.297 44.1116C184.074 44.2536 183.851 44.3958 183.625 44.5321C183.339 44.699 183.061 44.8782 182.721 45.0972C182.507 45.2354 182.268 45.3895 181.987 45.5665C182.055 45.2034 182.117 44.8881 182.174 44.603L182.174 44.6022C182.27 44.1182 182.348 43.7209 182.41 43.3235C182.648 41.625 182.366 41.3419 180.577 41.2657C180.352 41.4839 180.147 41.7168 179.948 41.9428L179.948 41.943C179.531 42.4163 179.141 42.8594 178.657 43.0731C171.52 46.2197 164.242 48.9417 156.508 50.2483C152.874 50.858 149.284 51.0758 145.813 49.4752C143.362 48.3429 141.225 46.9275 140.628 44.0204C140.552 43.672 140.401 43.3235 140.238 43.0078C139.565 41.7448 138.741 41.2984 137.364 41.7121C136.55 41.9534 135.776 42.3767 135.014 42.793C134.882 42.8652 134.751 42.9371 134.619 43.0078C134.218 43.227 133.844 43.4967 133.387 43.8258C133.141 44.0035 132.87 44.1986 132.559 44.4123C132.61 44.0503 132.65 43.7445 132.685 43.4735L132.685 43.4727C132.738 43.0594 132.782 42.7268 132.841 42.3981C133.177 40.4927 132.982 40.2532 131.333 40.0789C130.915 40.3679 130.537 40.6557 130.18 40.928L130.179 40.9282C129.459 41.4765 128.822 41.9619 128.111 42.2674C121.137 45.2398 113.935 47.5481 106.505 49.0288C103.891 49.5514 101.157 49.6603 98.4783 49.6059C94.8338 49.5297 92.3608 47.2105 92.2849 44.0966C92.274 43.5957 92.1547 43.0731 91.9703 42.6049C91.4388 41.2875 90.0504 40.9609 88.9441 41.8755C88.7813 42.0075 88.6437 42.1685 88.5065 42.3293C88.406 42.4469 88.3057 42.5644 88.1957 42.6703C83.6401 47.1779 78.5421 50.8471 72.4246 52.9376C64.4849 55.6487 56.3499 56.4108 48.1281 54.8321C41.9238 53.6453 35.7846 52.1101 29.6671 50.5422C22.7903 48.7784 15.9352 48.1796 8.98252 50.0087C8.92467 50.0233 8.84754 49.97 8.77041 49.9168C8.73184 49.8902 8.69327 49.8636 8.65712 49.8454C8.67487 49.8026 8.68797 49.7552 8.70099 49.7081L8.701 49.708C8.72776 49.6112 8.75416 49.5156 8.81982 49.4643C10.0109 48.4149 11.1904 47.3519 12.3696 46.2892L12.3699 46.289L12.3699 46.2889C15.1422 43.7905 17.9126 41.2938 20.8271 38.9793C25.753 35.0741 30.7315 31.2329 35.7108 27.3911L35.7112 27.3908C40.5887 23.6275 45.467 19.8636 50.2974 16.0384C53.8754 13.2101 57.3235 10.2099 60.768 7.21269L60.7681 7.21257C61.9911 6.14838 63.2137 5.08459 64.4415 4.02901C65.1574 3.41929 65.8082 2.70068 66.318 1.91675C66.5783 1.5139 66.6759 0.686416 66.4373 0.370666C66.1878 0.0549159 65.3743 -0.0866272 64.9187 0.0549159C62.8736 0.716613 60.8401 1.41356 58.8062 2.11067C56.9244 2.75562 55.0423 3.4007 53.1501 4.01812C52.4559 4.24623 51.7619 4.47582 51.0679 4.70542C47.5549 5.86766 44.0407 7.03028 40.4812 8.0031C35.8497 9.2661 31.1205 10.1371 26.2829 10.0718C21.8683 10.0174 18.0503 8.49306 14.8939 5.35734C14.7358 5.20577 14.5633 5.06856 14.3291 4.88227C14.21 4.78753 14.075 4.6801 13.9177 4.55163C13.3971 5.96706 14.1238 6.70744 14.8072 7.38249C17.3236 9.87583 20.404 11.215 23.875 11.7921C27.3676 12.3692 30.8494 12.0316 34.2986 11.5417C42.1082 10.442 49.6141 8.16642 56.979 5.39C57.37 5.242 57.7648 5.10921 58.1612 4.9759L58.1613 4.97586C58.4356 4.88362 58.7106 4.79113 58.9856 4.69317L59.2134 5.08514C58.9142 5.33546 58.6153 5.58621 58.3165 5.83696L58.316 5.83741L58.3159 5.83752C57.1202 6.84087 55.9246 7.84422 54.7012 8.8197C52.6459 10.4702 50.5991 12.1319 48.5522 13.7936L48.5519 13.7939L48.5517 13.7941C43.3073 18.0517 38.0624 22.3097 32.6716 26.3819C31.3067 27.4148 29.9393 28.4443 28.572 29.4737L28.5711 29.4744L28.5711 29.4744C20.0507 35.8894 11.5328 42.3025 3.63511 49.5079C2.47452 50.564 1.49832 51.8815 0.619744 53.1989C-0.345609 54.6579 -0.237142 54.745 1.46578 55.9318C1.89657 55.7109 2.32823 55.4829 2.76231 55.2536C3.84743 54.6805 4.94758 54.0995 6.08646 53.6018C6.28711 53.5143 6.48805 53.4259 6.68939 53.3373C8.2186 52.6643 9.77066 51.9812 11.3905 51.6637C16.0762 50.7382 20.7945 50.7709 25.4586 51.8923C27.6857 52.4289 29.9066 52.998 32.1277 53.567C35.0449 54.3145 37.9621 55.062 40.8934 55.7358C49.0826 57.6194 57.3152 58.7735 65.7431 57.3145C74.4096 55.812 82.2192 52.6872 88.5319 46.3286C88.7112 46.1487 88.9379 46.0211 89.2057 45.8703C89.3429 45.793 89.4911 45.7096 89.6491 45.61C90.5928 50.0305 93.8034 51.4133 97.5346 51.8161C99.6823 52.0557 101.906 51.9795 104.053 51.729C112.069 50.8036 119.618 48.1796 127.048 45.1636C127.458 45.001 127.873 44.8519 128.37 44.6739L128.37 44.6738C128.505 44.6254 128.646 44.5748 128.795 44.5212C128.774 44.8277 128.745 45.1168 128.717 45.3932L128.717 45.3936C128.656 45.9911 128.602 46.5297 128.654 47.0581C128.708 47.5698 128.99 48.3429 129.337 48.4627C129.944 48.6586 130.812 48.6477 131.344 48.3429C131.825 48.0691 132.211 47.6284 132.599 47.1849C132.797 46.9582 132.997 46.7308 133.209 46.5246L133.211 46.523C134.349 45.4239 135.499 44.3141 136.865 43.8353C137.159 44.3173 137.428 44.8015 137.691 45.2762L137.692 45.2769C138.274 46.3246 138.83 47.3262 139.576 48.1578C141.29 50.085 143.535 51.3262 146.041 52.0339C150.564 53.3078 155.13 53.0356 159.664 52.2081C165.272 51.1846 170.587 49.2139 175.793 46.9492C176.261 46.7423 176.741 46.566 177.281 46.3676L177.282 46.3674C177.594 46.2527 177.926 46.1307 178.288 45.9911C178.227 46.2588 178.179 46.4754 178.139 46.659C178.065 46.998 178.015 47.224 177.952 47.4501C177.67 48.4409 178.06 49.2248 178.874 49.6821C179.709 50.1503 180.577 49.987 181.26 49.2684C181.597 48.9135 181.911 48.5466 182.227 48.1767L182.228 48.176C182.338 48.0468 182.449 47.9172 182.562 47.7876C183.668 46.5137 185.013 45.61 186.651 44.8696C186.712 45.0237 186.768 45.1598 186.819 45.2838C186.941 45.5803 187.034 45.8075 187.096 46.0455C187.67 48.2667 189.08 49.8128 191.152 50.5967C192.833 51.2391 194.612 51.7508 196.38 52.023C201.619 52.8287 206.826 52.0992 212.01 51.3262C216.783 50.6076 221.393 49.3119 225.601 46.8404C225.907 46.6589 226.222 46.491 226.56 46.3106L226.561 46.31C226.75 46.2091 226.946 46.1043 227.152 45.9911C228.573 48.7457 230.894 50.1394 233.639 50.9342C234.474 51.1737 235.32 51.4024 236.177 51.5548C244.225 53.0029 251.959 51.7835 259.443 48.7131C261.161 48.0035 262.809 47.1282 264.459 46.252L264.462 46.2507C265.166 45.8769 265.87 45.5031 266.58 45.1418C268.662 48.0925 270.344 48.5171 273.587 46.8295C274.258 46.4772 274.909 46.0658 275.55 45.661L275.648 45.5991C276.116 45.2999 276.571 44.9866 277.072 44.641L277.073 44.6402C277.338 44.458 277.615 44.2668 277.915 44.0639C278.002 44.3788 278.08 44.6497 278.151 44.8985L278.153 44.9062C278.232 45.1791 278.302 45.4258 278.37 45.6753C278.902 47.5916 280.127 48.8328 282.015 49.399C282.774 49.6277 283.555 49.8128 284.347 49.9434C289.567 50.7849 294.715 49.98 299.831 49.1801L300.172 49.1268C303.728 48.5756 307.26 47.8871 310.792 47.1987C316.958 45.9972 323.121 44.7959 329.404 44.3252C329.998 44.2813 330.592 44.2351 331.185 44.1889L331.186 44.1889C335.883 43.8236 340.574 43.4588 345.283 44.1837C346.216 44.3252 347.16 44.4341 348.092 44.5321C349.221 44.641 349.828 44.1293 349.991 42.8989C349.796 42.8492 349.612 42.7955 349.432 42.7434C349.101 42.6471 348.789 42.5564 348.472 42.507L348.483 42.5614ZM271.808 45.5229C269.986 46.2633 269.02 45.4902 269.216 43.5413C269.498 40.8738 272.48 38.7288 275.062 39.3495C275.995 39.5672 276.179 39.7741 277.069 41.6141C275.474 43.2582 273.847 44.6845 271.808 45.5229ZM228.334 30.5084C229.332 30.5301 230.189 29.5393 230.102 28.4614C230.027 27.4271 229.083 26.5452 228.085 26.5778C227.12 26.6105 226.393 27.4489 226.436 28.4832C226.469 29.5285 227.369 30.4866 228.334 30.5084ZM93.7817 30.1817C93.684 31.1181 93.1092 31.5972 92.2089 31.6625V31.6734C91.2978 31.7387 90.5927 30.9548 90.6144 30.0075C90.6361 29.0385 91.352 28.3635 92.2848 28.4179C93.2068 28.4723 93.8793 29.2454 93.7817 30.1817Z" fill="#47567B"/>
</g>
<defs>
<clipPath id="clip0_49_1501">
<rect width="349.981" height="57.9743" fill="white" transform="translate(0.00976562)"/>
</clipPath>
</defs>
</svg>
